SplineFontDB: 3.2
FontName: AgensBoldItalic
FullName: Agens Bold Italic:T
FamilyName: AgensU
Weight: 
Copyright: Copyright  c  1989 Adobe Systems Incorporated.  All Rights Reserved. Adobe Garamond is a trademark of Adobe Systems Incorporated.
Version: p
ItalicAngle: 0
UnderlinePosition: 0
UnderlineWidth: 0
Ascent: 800
Descent: 200
InvalidEm: 0
sfntRevision: 0x00010000
LayerCount: 2
Layer: 0 0 "Back" 1
Layer: 1 0 "Fore" 0
XUID: [1021 1001 -774976532 9710540]
StyleMap: 0x0000
FSType: 0
OS2Version: 3
OS2_WeightWidthSlopeOnly: 0
OS2_UseTypoMetrics: 0
CreationTime: -2082844800
ModificationTime: 1710007699
PfmFamily: 17
TTFWeight: 700
TTFWidth: 5
LineGap: 0
VLineGap: 0
Panose: 2 0 8 3 0 0 0 0 0 0
OS2TypoAscent: 800
OS2TypoAOffset: 0
OS2TypoDescent: -200
OS2TypoDOffset: 0
OS2TypoLinegap: 90
OS2WinAscent: 808
OS2WinAOffset: 0
OS2WinDescent: 334
OS2WinDOffset: 0
HheadAscent: 808
HheadAOffset: 0
HheadDescent: -500
HheadDOffset: 0
OS2SubXSize: 650
OS2SubYSize: 700
OS2SubXOff: 0
OS2SubYOff: 140
OS2SupXSize: 650
OS2SupYSize: 700
OS2SupXOff: 0
OS2SupYOff: 480
OS2StrikeYSize: 49
OS2StrikeYPos: 258
OS2CapHeight: 512
OS2XHeight: 494
OS2Vendor: 'PfEd'
OS2CodePages: 20000000.00000000
OS2UnicodeRanges: 800000af.5000204a.00000000.00000000
DEI: 91125
LangName: 1033 "" "" "" "FontForge 2.0 : Agens Bold Italic:T : 1-5-2021"
LangName: 1024 "Copyright  c  1989 Adobe Systems Incorporated.  All Rights Reserved. Adobe Garamond is a trademark of Adobe Systems Incorporated." "AgensU" "Bold Italic" "Agens Bold Italic" "Agens Bold Italic:T" "p"
Encoding: UnicodeBmp
Compacted: 1
UnicodeInterp: none
NameList: AGL For New Fonts
DisplaySize: -48
AntiAlias: 1
FitToEm: 1
WinInfo: 0 15 12
BeginPrivate: 3
BlueValues 25 [-292 -3 395 647 653 731]
BlueScale 10 0.00416667
BlueShift 2 13
EndPrivate
BeginChars: 65537 225

StartChar: .notdef
Encoding: 65536 -1 0
Width: 500
GlyphClass: 1
Flags: W
LayerCount: 2
Fore
SplineSet
40 667 m 1
 460 667 l 1
 460 0 l 1
 40 0 l 1
 40 667 l 1
60 647 m 1
 60 20 l 1
 440 20 l 1
 440 647 l 1
 60 647 l 1
EndSplineSet
EndChar

StartChar: .null
Encoding: 0 0 1
Width: 414
GlyphClass: 2
Flags: W
LayerCount: 2
Fore
SplineSet
118 94 m 2
 118.001953125 263 l 1
 35.001953125 191 l 1
 21.001953125 194.333007812 15.6689453125 204.333007812 19.001953125 221 c 1
 118.001953125 306 l 1
 118.001953125 600 l 2
 118.001953125 620.666992188 113.668945312 633.333984375 105.001953125 638.000976562 c 0
 96.3349609375 642.66796875 80.66796875 645.66796875 58.0009765625 647.000976562 c 2
 40.0009765625 649.000976562 l 2
 38.0009765625 652.333984375 37.0009765625 656.166992188 37.0009765625 660.5 c 0
 37.0009765625 664.833007812 38.333984375 667.666015625 41.0009765625 668.999023438 c 0
 88.333984375 685.666015625 134.333984375 705.999023438 179.000976562 729.999023438 c 1
 193.000976562 727.33203125 200.000976562 724.33203125 200.000976562 720.999023438 c 2
 192.000976562 623.999023438 l 1
 192.000976562 354.999023438 l 1
 289.000976562 439.999023438 l 1
 304.333984375 435.999023438 310.333984375 426.666015625 307.000976562 411.999023438 c 1
 192.000976562 310.999023438 l 1
 192.000976562 106.999023438 l 2
 192.000976562 74.9990234375 193.66796875 53.9990234375 197.000976562 43.9990234375 c 0
 199.66796875 41.33203125 201.834960938 38.83203125 203.501953125 36.4990234375 c 0
 205.168945312 34.166015625 209.8359375 32.3330078125 217.502929688 31 c 0
 225.169921875 29.6669921875 235.669921875 29 249.002929688 29 c 0
 283.002929688 29 308.669921875 33.3330078125 326.002929688 42 c 0
 343.3359375 50.6669921875 358.668945312 72 372.001953125 106 c 0
 374.001953125 108 377.001953125 109 381.001953125 109 c 0
 385.001953125 109 388.334960938 108.5 391.001953125 107.5 c 0
 393.668945312 106.5 395.668945312 104.666992188 397.001953125 102 c 0
 391.001953125 54.6669921875 381.334960938 19.6669921875 368.001953125 -3 c 1
 335.334960938 -1 290.66796875 0 234.000976562 0 c 2
 155.000976562 0 l 2
 129.66796875 0 94.0009765625 -1 48.0009765625 -3 c 0
 44.66796875 -1 42.66796875 2.8330078125 42.0009765625 8.5 c 0
 41.333984375 14.1669921875 42.6669921875 18 46 20 c 2
 72 23 l 2
 93.3330078125 26.3330078125 106.333007812 31.5 111 38.5 c 0
 115.666992188 45.5 118 64 118 94 c 2
EndSplineSet
EndChar

StartChar: quotedbl
Encoding: 34 34 4
Width: 780
GlyphClass: 2
Flags: W
LayerCount: 2
Fore
SplineSet
303 -194 m 0
 289.666992188 -194 278.5 -190.16796875 269.5 -182.500976562 c 0
 260.5 -174.833984375 256 -163.666992188 256 -149 c 0
 255.333007812 -135 259.5 -123.5 268.5 -114.5 c 0
 277.5 -105.5 289 -101 303 -101 c 0
 317 -101 328.166992188 -105.5 336.5 -114.5 c 0
 344.833007812 -123.5 349 -134 349 -146 c 0
 349 -160 344.833007812 -171.5 336.5 -180.5 c 0
 328.166992188 -189.5 317 -194 303 -194 c 0
491 -194.000976562 m 0
 477.666992188 -194.000976562 466.333007812 -190.166992188 457 -182.5 c 0
 447.666992188 -174.833007812 443 -163.666015625 443 -148.999023438 c 0
 443 -134.999023438 447.5 -123.499023438 456.5 -114.499023438 c 0
 465.5 -105.499023438 477 -100.999023438 491 -100.999023438 c 0
 505 -100.999023438 516 -105.33203125 524 -113.999023438 c 0
 532 -122.666015625 536 -133.333007812 536 -146 c 0
 536 -160.666992188 532 -172.333984375 524 -181.000976562 c 0
 516 -189.66796875 505 -194.000976562 491 -194.000976562 c 0
534.999023438 349 m 0
 521.666015625 338.333007812 507.993164062 312.3359375 493.993164062 271.002929688 c 0
 491.326171875 269.002929688 487.159179688 268.3359375 481.4921875 269.002929688 c 0
 475.825195312 269.669921875 470.9921875 271.669921875 466.9921875 275.002929688 c 1
 478.9921875 313.002929688 490.325195312 365.002929688 500.9921875 431.002929688 c 1
 507.659179688 433.669921875 514.326171875 433.669921875 520.993164062 431.002929688 c 1
 522.993164062 413.002929688 527.66015625 402.169921875 534.993164062 398.502929688 c 0
 542.326171875 394.8359375 560.659179688 393.002929688 589.9921875 393.002929688 c 2
 650.9921875 393.002929688 l 2
 681.659179688 393.002929688 701.9921875 394.002929688 711.9921875 396.002929688 c 0
 715.9921875 394.002929688 717.659179688 390.669921875 716.9921875 386.002929688 c 0
 696.325195312 357.3359375 671.658203125 319.3359375 642.991210938 272.002929688 c 2
 519.991210938 69.0029296875 l 2
 509.991210938 51.669921875 505.991210938 40.669921875 507.991210938 36.0029296875 c 0
 509.991210938 31.3359375 520.32421875 29.0029296875 538.991210938 29.0029296875 c 2
 572.991210938 29.0029296875 l 2
 598.32421875 29.0029296875 618.32421875 30.669921875 632.991210938 34.0029296875 c 0
 647.658203125 37.3359375 661.325195312 46.0029296875 673.9921875 60.0029296875 c 0
 691.325195312 77.3359375 703.9921875 96.6689453125 711.9921875 118.001953125 c 0
 716.659179688 120.668945312 721.326171875 121.168945312 725.993164062 119.501953125 c 0
 730.66015625 117.834960938 733.327148438 115.001953125 733.994140625 111.001953125 c 0
 734.661132812 97.001953125 732.494140625 80.8349609375 727.494140625 62.501953125 c 0
 722.494140625 44.1689453125 717.661132812 24.6689453125 712.994140625 4.001953125 c 0
 708.327148438 -16.6650390625 705.994140625 -36.998046875 705.994140625 -56.998046875 c 0
 704.661132812 -160.998046875 716.994140625 -217.331054688 742.994140625 -225.998046875 c 0
 765.661132812 -233.331054688 780.828125 -233.998046875 788.495117188 -227.998046875 c 0
 796.162109375 -221.998046875 800.329101562 -210.665039062 800.99609375 -193.998046875 c 0
 801.663085938 -177.331054688 802.663085938 -166.998046875 803.99609375 -162.998046875 c 0
 805.99609375 -156.998046875 811.163085938 -152.831054688 819.49609375 -150.498046875 c 0
 827.829101562 -148.165039062 836.162109375 -148.498046875 844.495117188 -151.498046875 c 0
 852.828125 -154.498046875 858.328125 -159.998046875 860.995117188 -167.998046875 c 0
 869.662109375 -191.998046875 866.329101562 -211.665039062 850.99609375 -226.998046875 c 0
 808.99609375 -266.331054688 764.99609375 -277.331054688 718.99609375 -259.998046875 c 0
 672.99609375 -242.665039062 649.99609375 -189.665039062 649.99609375 -100.998046875 c 2
 650.99609375 0.001953125 l 1
 505.99609375 0.001953125 l 2
 481.329101562 0.001953125 459.662109375 -1.3310546875 440.995117188 -3.998046875 c 0
 437.662109375 -4.6650390625 424.495117188 -6.83203125 401.495117188 -10.4990234375 c 0
 378.495117188 -14.166015625 365.662109375 -15.9990234375 362.995117188 -15.9990234375 c 0
 355.662109375 -15.9990234375 351.995117188 -13.33203125 351.995117188 -7.9990234375 c 2
 351.995117188 9.0009765625 l 2
 351.995117188 21.66796875 351.328125 29.0009765625 349.995117188 31.0009765625 c 2
 345.995117188 31.0009765625 l 1
 318.662109375 13.66796875 296.662109375 1.66796875 279.995117188 -4.9990234375 c 0
 263.328125 -11.666015625 243.328125 -14.9990234375 219.995117188 -14.9990234375 c 0
 165.328125 -14.9990234375 120.828125 3.833984375 86.4951171875 41.5009765625 c 0
 52.162109375 79.16796875 34.9951171875 124.334960938 34.9951171875 177.001953125 c 0
 34.9951171875 245.668945312 57.9951171875 301.168945312 103.995117188 343.501953125 c 0
 149.995117188 385.834960938 207.662109375 407.001953125 276.995117188 407.001953125 c 0
 304.995117188 407.001953125 327.328125 404.001953125 343.995117188 398.001953125 c 0
 347.995117188 398.001953125 349.995117188 402.668945312 349.995117188 412.001953125 c 2
 349.995117188 600.001953125 l 2
 349.995117188 620.668945312 345.662109375 633.3359375 336.995117188 638.002929688 c 0
 328.328125 642.669921875 311.995117188 645.669921875 287.995117188 647.002929688 c 2
 269.995117188 649.002929688 l 2
 267.995117188 652.3359375 266.995117188 656.168945312 266.995117188 660.501953125 c 0
 266.995117188 664.834960938 268.328125 667.66796875 270.995117188 669.000976562 c 0
 316.328125 684.333984375 362.995117188 704.666992188 410.995117188 730 c 1
 424.995117188 727.333007812 431.995117188 724.333007812 431.995117188 721 c 2
 422.995117188 646 l 1
 422.995117188 125 l 2
 422.995117188 80.3330078125 424.328125 53.8330078125 426.995117188 45.5 c 0
 429.662109375 37.1669921875 435.329101562 39 443.99609375 51 c 0
 456.663085938 73 464.830078125 87.6669921875 468.497070312 95 c 0
 472.1640625 102.333007812 476.831054688 111.333007812 482.498046875 122 c 0
 488.165039062 132.666992188 493.33203125 142.333984375 497.999023438 151.000976562 c 2
 600.999023438 333.000976562 l 2
 608.33203125 346.333984375 610.999023438 355.000976562 608.999023438 359.000976562 c 0
 606.999023438 363.000976562 601.33203125 364.333984375 591.999023438 363.000976562 c 0
 563.999023438 362.333984375 544.999023438 357.666992188 534.999023438 349 c 0
351.993164062 99.0029296875 m 2
 351.991210938 295.002929688 l 2
 351.991210938 308.3359375 347.658203125 321.3359375 338.991210938 334.002929688 c 0
 318.991210938 362.002929688 290.991210938 376.002929688 254.991210938 376.002929688 c 0
 211.658203125 376.002929688 177.825195312 359.8359375 153.4921875 327.502929688 c 0
 129.159179688 295.169921875 116.9921875 256.002929688 116.9921875 210.002929688 c 0
 116.9921875 162.002929688 130.325195312 120.669921875 156.9921875 86.0029296875 c 0
 183.659179688 51.3359375 219.9921875 34.0029296875 265.9921875 34.0029296875 c 0
 298.659179688 34.0029296875 324.326171875 43.3359375 342.993164062 62.0029296875 c 0
 348.993164062 68.0029296875 351.993164062 80.3359375 351.993164062 99.0029296875 c 2
EndSplineSet
EndChar

StartChar: numbersign
Encoding: 35 35 5
Width: 503
GlyphClass: 2
Flags: W
LayerCount: 2
Fore
SplineSet
351 15 m 1
 317 -5 279.331054688 -15 237.998046875 -15 c 0
 179.998046875 -15 131.331054688 4.3330078125 91.998046875 43 c 0
 52.6650390625 81.6669921875 32.998046875 131 32.998046875 191 c 0
 32.998046875 261.666992188 58.998046875 318 110.998046875 360 c 1
 74.998046875 412 l 2
 75.6650390625 418 78.998046875 422.666992188 84.998046875 426 c 0
 90.998046875 429.333007812 96.998046875 430.666015625 102.998046875 429.999023438 c 1
 138.998046875 379.999023438 l 1
 172.998046875 397.999023438 208.665039062 406.999023438 245.998046875 406.999023438 c 0
 283.331054688 406.999023438 317.498046875 398.33203125 348.498046875 380.999023438 c 0
 379.498046875 363.666015625 403.998046875 339.333007812 421.998046875 308 c 0
 439.998046875 276.666992188 448.998046875 241 448.998046875 201 c 0
 448.998046875 129.666992188 425.331054688 74 377.998046875 34 c 1
 378.998046875 33 l 1
 414.998046875 -19 l 1
 413.665039062 -25.6669921875 410.83203125 -31 406.499023438 -35 c 0
 402.166015625 -39 396.333007812 -41 389 -41 c 1
 352 14 l 1
 351 15 l 1
325.998046875 51 m 1
 145.998046875 310.999023438 l 1
 141.998046875 315.999023438 l 1
 125.998046875 287.33203125 117.998046875 250.33203125 117.998046875 204.999023438 c 0
 117.998046875 155.666015625 129.498046875 111.833007812 152.498046875 73.5 c 0
 175.498046875 35.1669921875 207.331054688 16 247.998046875 16 c 0
 280.665039062 16 306.665039062 27.6669921875 325.998046875 51 c 1
344.998046875 80.9990234375 m 1
 359.665039062 109.666015625 366.998046875 144.666015625 366.998046875 185.999023438 c 0
 366.998046875 235.999023438 355.831054688 280.33203125 333.498046875 318.999023438 c 0
 311.165039062 357.666015625 277.998046875 376.999023438 233.998046875 376.999023438 c 0
 205.331054688 376.999023438 181.331054688 366.33203125 161.998046875 344.999023438 c 1
 165.998046875 339.999023438 l 1
 344.998046875 80.9990234375 l 1
153.998046875 -194.000976562 m 0
 140.665039062 -194.000976562 129.498046875 -190.168945312 120.498046875 -182.501953125 c 0
 111.498046875 -174.834960938 106.998046875 -163.66796875 106.998046875 -149.000976562 c 0
 106.331054688 -135.000976562 110.498046875 -123.500976562 119.498046875 -114.500976562 c 0
 128.498046875 -105.500976562 139.998046875 -101.000976562 153.998046875 -101.000976562 c 0
 167.998046875 -101.000976562 179.165039062 -105.500976562 187.498046875 -114.500976562 c 0
 195.831054688 -123.500976562 199.998046875 -134.000976562 199.998046875 -146.000976562 c 0
 199.998046875 -160.000976562 195.831054688 -171.500976562 187.498046875 -180.500976562 c 0
 179.165039062 -189.500976562 167.998046875 -194.000976562 153.998046875 -194.000976562 c 0
341.998046875 -194.001953125 m 0
 328.665039062 -194.001953125 317.331054688 -190.16796875 307.998046875 -182.500976562 c 0
 298.665039062 -174.833984375 293.998046875 -163.666992188 293.998046875 -149 c 0
 293.998046875 -135 298.498046875 -123.5 307.498046875 -114.5 c 0
 316.498046875 -105.5 327.998046875 -101 341.998046875 -101 c 0
 355.998046875 -101 366.998046875 -105.333007812 374.998046875 -114 c 0
 382.998046875 -122.666992188 386.998046875 -133.333984375 386.998046875 -146.000976562 c 0
 386.998046875 -160.66796875 382.998046875 -172.334960938 374.998046875 -181.001953125 c 0
 366.998046875 -189.668945312 355.998046875 -194.001953125 341.998046875 -194.001953125 c 0
EndSplineSet
EndChar

StartChar: dollar
Encoding: 36 36 6
Width: 279
GlyphClass: 2
Flags: W
LayerCount: 2
Fore
SplineSet
50 700 m 0
 18.6669921875 700 3 715 3 745 c 0
 2.3330078125 759 6.5 770.5 15.5 779.5 c 0
 24.5 788.5 36 793 50 793 c 0
 64 793 75.1669921875 788.5 83.5 779.5 c 0
 91.8330078125 770.5 96 760 96 748 c 0
 96 734 91.8330078125 722.5 83.5 713.5 c 0
 75.1669921875 704.5 64 700 50 700 c 0
238 700 m 0
 224.666992188 700 213.333007812 703.833984375 204 711.500976562 c 0
 194.666992188 719.16796875 190 730.334960938 190 745.001953125 c 0
 190 759.001953125 194.5 770.501953125 203.5 779.501953125 c 0
 212.5 788.501953125 224 793.001953125 238 793.001953125 c 0
 252 793.001953125 263 788.668945312 271 780.001953125 c 0
 279 771.334960938 283 760.66796875 283 748.000976562 c 0
 283 733.333984375 279 721.666992188 271 713 c 0
 263 704.333007812 252 700 238 700 c 0
93.9990234375 563.000976562 m 2
 93.9990234375 583.66796875 89.83203125 596.502929688 81.4990234375 601.502929688 c 0
 73.166015625 606.502929688 57.3330078125 609.669921875 34 611.002929688 c 2
 16 612.002929688 l 2
 14 615.3359375 13 619.168945312 13 623.501953125 c 0
 13 627.834960938 14.3330078125 630.66796875 17 632.000976562 c 0
 64.3330078125 648.66796875 110.333007812 669.000976562 155 693.000976562 c 1
 169 690.333984375 176 687.333984375 176 684.000976562 c 2
 168 587.000976562 l 1
 168 -56.9990234375 l 2
 168 -125.666015625 169 -169.666015625 171 -188.999023438 c 0
 173 -208.33203125 181 -220.665039062 195 -225.998046875 c 0
 217 -233.331054688 232 -233.831054688 240 -227.498046875 c 0
 248 -221.165039062 252.166992188 -209.83203125 252.5 -193.499023438 c 0
 252.833007812 -177.166015625 253.666015625 -166.999023438 254.999023438 -162.999023438 c 0
 256.999023438 -156.999023438 262.166015625 -152.83203125 270.499023438 -150.499023438 c 0
 278.83203125 -148.166015625 287.165039062 -148.499023438 295.498046875 -151.499023438 c 0
 303.831054688 -154.499023438 309.331054688 -159.999023438 311.998046875 -167.999023438 c 0
 320.665039062 -191.999023438 317.33203125 -211.666015625 301.999023438 -226.999023438 c 0
 272.666015625 -250.33203125 241.666015625 -263.83203125 208.999023438 -267.499023438 c 0
 176.33203125 -271.166015625 148.999023438 -259.666015625 126.999023438 -232.999023438 c 0
 104.999023438 -206.33203125 93.9990234375 -162.33203125 93.9990234375 -100.999023438 c 2
 93.9990234375 6.0009765625 l 1
 93.9990234375 563.000976562 l 2
EndSplineSet
EndChar

StartChar: percent
Encoding: 37 37 7
Width: 540
GlyphClass: 2
Flags: W
LayerCount: 2
Fore
SplineSet
183 356 m 0
 209.666992188 372.666992188 233.668945312 385.330078125 255.001953125 393.997070312 c 0
 276.334960938 402.6640625 299.001953125 406.997070312 323.001953125 406.997070312 c 0
 362.334960938 406.997070312 391.66796875 395.6640625 411.000976562 372.997070312 c 0
 430.333984375 350.330078125 440.000976562 320.663085938 440.000976562 283.99609375 c 2
 440.000976562 -63.00390625 l 1
 440.000976562 -77.00390625 l 1
 452.66796875 -70.3369140625 467.66796875 -67.00390625 485.000976562 -67.00390625 c 0
 499.000976562 -67.00390625 512.500976562 -69.6708984375 525.500976562 -75.00390625 c 0
 538.500976562 -80.3369140625 549.500976562 -87.3369140625 558.500976562 -96.00390625 c 0
 567.500976562 -104.670898438 574.66796875 -115.837890625 580.000976562 -129.504882812 c 0
 585.333984375 -143.171875 588.000976562 -156.671875 588.000976562 -170.004882812 c 0
 588.000976562 -192.671875 581.16796875 -212.838867188 567.500976562 -230.505859375 c 0
 553.833984375 -248.172851562 536.333984375 -260.672851562 515.000976562 -268.005859375 c 0
 503.000976562 -270.672851562 490.66796875 -272.005859375 478.000976562 -272.005859375 c 0
 458.66796875 -272.005859375 441.500976562 -267.672851562 426.500976562 -259.005859375 c 0
 411.500976562 -250.338867188 399.000976562 -238.338867188 389.000976562 -223.005859375 c 0
 381.000976562 -209.005859375 375.333984375 -192.005859375 372.000976562 -172.005859375 c 1
 359.333984375 -183.338867188 348.666992188 -195.671875 340 -209.004882812 c 0
 331.333007812 -222.337890625 324.666015625 -235.004882812 319.999023438 -247.004882812 c 0
 315.33203125 -259.004882812 311.999023438 -266.337890625 309.999023438 -269.004882812 c 0
 307.33203125 -274.337890625 303.33203125 -277.337890625 297.999023438 -278.004882812 c 0
 292.666015625 -278.671875 287.999023438 -277.671875 283.999023438 -275.004882812 c 0
 279.999023438 -272.337890625 277.999023438 -267.670898438 277.999023438 -261.00390625 c 0
 279.999023438 -235.670898438 289.499023438 -209.170898438 306.499023438 -181.50390625 c 0
 323.499023438 -153.836914062 343.33203125 -131.336914062 365.999023438 -114.00390625 c 1
 365.999023438 10.99609375 l 1
 365.999023438 5.99609375 l 1
 365.999023438 259.99609375 l 2
 365.999023438 325.99609375 334.666015625 358.99609375 271.999023438 358.99609375 c 0
 232.666015625 358.99609375 204.333007812 347.329101562 187 323.99609375 c 0
 177 311.99609375 172 292.329101562 172 264.99609375 c 2
 172 110.99609375 l 2
 172 84.3291015625 172.666992188 65.8291015625 174 55.49609375 c 0
 175.333007812 45.1630859375 178.5 37.99609375 183.5 33.99609375 c 0
 188.5 29.99609375 197.333007812 26.99609375 210 24.99609375 c 2
 236 21.99609375 l 2
 240 19.99609375 241.666992188 15.8291015625 241 9.49609375 c 0
 240.333007812 3.1630859375 238 -1.00390625 234 -3.00390625 c 0
 199.333007812 -1.00390625 166.333007812 -0.00390625 135 -0.00390625 c 0
 103 -0.00390625 69 -1.00390625 33 -3.00390625 c 0
 29 -0.3369140625 26.6669921875 3.830078125 26 9.4970703125 c 0
 25.3330078125 15.1640625 27 19.3310546875 31 21.998046875 c 2
 60 24.998046875 l 2
 78 26.998046875 88.8330078125 32.498046875 92.5 41.498046875 c 0
 96.1669921875 50.498046875 98 73.6650390625 98 110.998046875 c 2
 98 286.998046875 l 2
 98 312.998046875 95.6669921875 329.331054688 91 335.998046875 c 0
 86.3330078125 342.665039062 73 348.665039062 51 353.998046875 c 2
 42 355.998046875 l 2
 40 357.998046875 39 360.831054688 39 364.498046875 c 0
 39 368.165039062 40.3330078125 370.665039062 43 371.998046875 c 0
 97 380.665039062 137.333007812 400.33203125 164 430.999023438 c 1
 169.333007812 429.666015625 172 427.333007812 172 424 c 2
 172 367 l 2
 172 359.666992188 175.666992188 356 183 356 c 0
488.001953125 -225.00390625 m 0
 501.334960938 -225.00390625 512.834960938 -219.50390625 522.501953125 -208.50390625 c 0
 532.168945312 -197.50390625 537.001953125 -184.00390625 537.001953125 -168.00390625 c 0
 537.001953125 -156.670898438 535.001953125 -147.670898438 531.001953125 -141.00390625 c 0
 520.334960938 -123.00390625 505.334960938 -114.00390625 486.001953125 -114.00390625 c 0
 453.334960938 -114.00390625 436.334960938 -133.336914062 435.001953125 -172.00390625 c 0
 435.001953125 -188.670898438 440.501953125 -201.670898438 451.501953125 -211.00390625 c 0
 462.501953125 -220.336914062 474.668945312 -225.00390625 488.001953125 -225.00390625 c 0
EndSplineSet
EndChar

StartChar: ampersand
Encoding: 38 38 8
Width: 564
GlyphClass: 2
Flags: W
LayerCount: 2
Fore
SplineSet
368 366 m 1
 394.666992188 346.666992188 415.999023438 323.166992188 431.999023438 295.5 c 0
 447.999023438 267.833007812 457.33203125 236.333007812 459.999023438 201 c 0
 464.666015625 139.666992188 446.666015625 88.333984375 405.999023438 47.0009765625 c 0
 365.33203125 5.66796875 313.33203125 -14.9990234375 249.999023438 -14.9990234375 c 0
 188.666015625 -13.666015625 138.499023438 7.1669921875 99.4990234375 47.5 c 0
 60.4990234375 87.8330078125 41.9990234375 139.333007812 43.9990234375 202 c 0
 46.666015625 276 70.3330078125 328.666992188 115 360 c 0
 159.666992188 391.333007812 214 406 278 404 c 2
 513 404 l 1
 518 350 l 1
 368 366 l 1
374.999023438 178 m 0
 377.666015625 228.666992188 368.665039062 273.999023438 347.998046875 313.999023438 c 0
 327.331054688 353.999023438 295.331054688 374.999023438 251.998046875 376.999023438 c 0
 218.665039062 378.999023438 190.83203125 365.166015625 168.499023438 335.499023438 c 0
 146.166015625 305.83203125 133.999023438 263.999023438 131.999023438 209.999023438 c 0
 130.666015625 159.33203125 140.666015625 114.83203125 161.999023438 76.4990234375 c 0
 183.33203125 38.166015625 214.33203125 17.9990234375 254.999023438 15.9990234375 c 0
 295.666015625 13.9990234375 325.499023438 29.33203125 344.499023438 61.9990234375 c 0
 363.499023438 94.666015625 373.666015625 133.333007812 374.999023438 178 c 0
258.998046875 -223.000976562 m 0
 242.331054688 -223.000976562 228.997070312 -217.500976562 218.997070312 -206.500976562 c 0
 208.997070312 -195.500976562 203.997070312 -181.66796875 203.997070312 -165.000976562 c 0
 203.997070312 -147.000976562 209.497070312 -133.16796875 220.497070312 -123.500976562 c 0
 231.497070312 -113.833984375 245.330078125 -109.000976562 261.997070312 -109.000976562 c 0
 278.6640625 -109.000976562 292.331054688 -114.333984375 302.998046875 -125.000976562 c 0
 313.665039062 -135.66796875 318.998046875 -148.334960938 318.998046875 -163.001953125 c 0
 318.998046875 -180.334960938 312.998046875 -194.66796875 300.998046875 -206.000976562 c 0
 288.998046875 -217.333984375 274.998046875 -223.000976562 258.998046875 -223.000976562 c 0
EndSplineSet
EndChar

StartChar: quotesingle
Encoding: 39 39 9
Width: 423
GlyphClass: 2
Flags: W
LayerCount: 2
Fore
SplineSet
84 154 m 2
 282 154 l 2
 294.666992188 154 302.333984375 155.333007812 305.000976562 158 c 0
 307.66796875 160.666992188 309.000976562 168.666992188 309.000976562 182 c 0
 309.000976562 232.666992188 294.500976562 273.333984375 265.500976562 304.000976562 c 0
 236.500976562 334.66796875 195.66796875 350.000976562 143.000976562 350.000976562 c 0
 107.66796875 350.000976562 77.0009765625 333.66796875 51.0009765625 301.000976562 c 1
 40.333984375 297.66796875 34.333984375 301.66796875 33.0009765625 313.000976562 c 1
 49.0009765625 345.000976562 71.66796875 368.66796875 101.000976562 384.000976562 c 0
 130.333984375 399.333984375 160.000976562 407.000976562 190.000976562 407.000976562 c 0
 252.66796875 407.000976562 301.000976562 384.66796875 335.000976562 340.000976562 c 0
 363.000976562 303.333984375 377.000976562 260.000976562 377.000976562 210.000976562 c 0
 377.000976562 147.333984375 358.16796875 94.1669921875 320.500976562 50.5 c 0
 282.833984375 6.8330078125 234.666992188 -15 176 -15 c 0
 132.666992188 -15 98.5 -2.3330078125 73.5 23 c 0
 48.5 48.3330078125 34 81 30 121 c 0
 28.6669921875 135 28.6669921875 144 30 148 c 0
 31.3330078125 152 49.3330078125 154 84 154 c 2
291 125 m 2
 220.001953125 125.001953125 l 2
 155.334960938 125.001953125 118.66796875 121.334960938 110.000976562 114.001953125 c 0
 106.000976562 111.334960938 104.000976562 99.3349609375 104.000976562 78.001953125 c 0
 104.000976562 61.3349609375 111.16796875 46.66796875 125.500976562 34.0009765625 c 0
 139.833984375 21.333984375 160.333984375 15.0009765625 187.000976562 15.0009765625 c 0
 214.333984375 15.0009765625 239.666992188 27.66796875 263 53.0009765625 c 0
 286.333007812 78.333984375 298 100.666992188 298 120 c 0
 298 123.333007812 295.666992188 125 291 125 c 2
170.001953125 578.001953125 m 2
 251.000976562 542.000976562 l 2
 269.000976562 534.66796875 283.000976562 535.16796875 293.000976562 543.500976562 c 0
 303.000976562 551.833984375 314.66796875 568.000976562 328.000976562 592.000976562 c 0
 330.000976562 596.000976562 333.16796875 597.66796875 337.500976562 597.000976562 c 0
 341.833984375 596.333984375 344.333984375 593.333984375 345.000976562 588.000976562 c 0
 347.000976562 555.333984375 338.66796875 528.333984375 320.000976562 507.000976562 c 0
 308.66796875 494.333984375 294.66796875 487.000976562 278.000976562 485.000976562 c 0
 261.333984375 483.000976562 245.333984375 484.66796875 230.000976562 490.000976562 c 2
 151.000976562 523.000976562 l 2
 123.66796875 535.000976562 95.3349609375 518.66796875 66.001953125 474.000976562 c 0
 64.001953125 470.000976562 60.8349609375 469.000976562 56.501953125 471.000976562 c 0
 52.1689453125 473.000976562 49.6689453125 475.66796875 49.001953125 479.000976562 c 0
 46.3349609375 501.000976562 59.001953125 527.333984375 87.001953125 558.000976562 c 0
 95.001953125 568.66796875 107.168945312 576.334960938 123.501953125 581.001953125 c 0
 139.834960938 585.668945312 155.334960938 584.668945312 170.001953125 578.001953125 c 2
199.000976562 -222.999023438 m 0
 182.333984375 -222.999023438 169 -217.499023438 159 -206.499023438 c 0
 149 -195.499023438 144 -181.666015625 144 -164.999023438 c 0
 144 -146.999023438 149.5 -133.166015625 160.5 -123.499023438 c 0
 171.5 -113.83203125 185.333007812 -108.999023438 202 -108.999023438 c 0
 218.666992188 -108.999023438 232.333984375 -114.33203125 243.000976562 -124.999023438 c 0
 253.66796875 -135.666015625 259.000976562 -148.333007812 259.000976562 -163 c 0
 259.000976562 -180.333007812 253.000976562 -194.666015625 241.000976562 -205.999023438 c 0
 229.000976562 -217.33203125 215.000976562 -222.999023438 199.000976562 -222.999023438 c 0
EndSplineSet
EndChar

StartChar: parenleft
Encoding: 40 40 10
Width: 436
GlyphClass: 2
Flags: W
LayerCount: 2
Fore
SplineSet
190 -62 m 0
 214 -62 235.501953125 -68.6630859375 254.501953125 -81.99609375 c 0
 273.501953125 -95.3291015625 283.334960938 -117.329101562 284.001953125 -147.99609375 c 0
 284.668945312 -180.663085938 274.501953125 -208.830078125 253.501953125 -232.497070312 c 0
 232.501953125 -256.1640625 205.668945312 -273.331054688 173.001953125 -283.998046875 c 1
 163.001953125 -276.665039062 160.334960938 -268.998046875 165.001953125 -260.998046875 c 1
 214.334960938 -240.331054688 238.66796875 -211.998046875 238.000976562 -175.998046875 c 0
 237.333984375 -157.998046875 230.166992188 -144.831054688 216.5 -136.498046875 c 0
 202.833007812 -128.165039062 187 -126.33203125 169 -130.999023438 c 1
 151 -129.666015625 141.666992188 -120.666015625 141 -103.999023438 c 0
 141 -92.666015625 144.666992188 -82.8330078125 152 -74.5 c 0
 159.333007812 -66.1669921875 172 -62 190 -62 c 0
181.001953125 578.00390625 m 2
 262.000976562 542.002929688 l 2
 280.000976562 534.669921875 294.000976562 535.169921875 304.000976562 543.502929688 c 0
 314.000976562 551.8359375 325.66796875 568.002929688 339.000976562 592.002929688 c 0
 341.000976562 596.002929688 344.16796875 597.669921875 348.500976562 597.002929688 c 0
 352.833984375 596.3359375 355.333984375 593.3359375 356.000976562 588.002929688 c 0
 358.000976562 555.3359375 349.66796875 528.3359375 331.000976562 507.002929688 c 0
 319.66796875 494.3359375 305.66796875 487.002929688 289.000976562 485.002929688 c 0
 272.333984375 483.002929688 256.333984375 484.669921875 241.000976562 490.002929688 c 2
 162.000976562 523.002929688 l 2
 134.66796875 535.002929688 106.334960938 518.669921875 77.001953125 474.002929688 c 0
 75.001953125 470.002929688 71.8349609375 469.002929688 67.501953125 471.002929688 c 0
 63.1689453125 473.002929688 60.6689453125 475.669921875 60.001953125 479.002929688 c 0
 57.3349609375 501.002929688 70.001953125 527.3359375 98.001953125 558.002929688 c 0
 106.001953125 568.669921875 118.168945312 576.336914062 134.501953125 581.00390625 c 0
 150.834960938 585.670898438 166.334960938 584.670898438 181.001953125 578.00390625 c 2
299.000976562 300.002929688 m 0
 301.000976562 314.669921875 295.666992188 328.672851562 283 342.005859375 c 0
 270.333007812 355.338867188 251 362.005859375 225 362.005859375 c 0
 205.666992188 362.005859375 183 352.005859375 157 332.005859375 c 0
 150.333007812 327.338867188 145.833007812 322.671875 143.5 318.004882812 c 0
 141.166992188 313.337890625 140 303.670898438 140 289.00390625 c 2
 140 216.00390625 l 2
 140 213.336914062 140.333007812 211.169921875 141 209.502929688 c 0
 141.666992188 207.8359375 143.166992188 206.8359375 145.5 206.502929688 c 0
 147.833007812 206.169921875 149.666015625 205.669921875 150.999023438 205.002929688 c 0
 159.666015625 205.669921875 176.333007812 210.002929688 201 218.002929688 c 0
 261.666992188 242.002929688 294.333984375 269.3359375 299.000976562 300.002929688 c 0
69 106.005859375 m 2
 69.001953125 291.0078125 l 2
 69.001953125 328.340820312 65.1689453125 352.0078125 57.501953125 362.0078125 c 0
 49.8349609375 372.0078125 36.3349609375 371.340820312 17.001953125 360.0078125 c 0
 11.6689453125 356.674804688 8.6689453125 357.674804688 8.001953125 363.0078125 c 0
 7.3349609375 368.340820312 9.8349609375 375.0078125 15.501953125 383.0078125 c 0
 21.1689453125 391.0078125 29.3359375 396.674804688 40.0029296875 400.0078125 c 0
 65.3359375 409.340820312 84.3359375 410.340820312 97.0029296875 403.0078125 c 0
 109.669921875 395.674804688 121.336914062 384.674804688 132.00390625 370.0078125 c 0
 137.336914062 363.340820312 143.00390625 360.0078125 149.00390625 360.0078125 c 0
 154.336914062 360.0078125 165.669921875 367.340820312 183.002929688 382.0078125 c 0
 205.002929688 398.674804688 232.3359375 407.0078125 265.002929688 407.0078125 c 0
 297.002929688 407.0078125 322.669921875 399.340820312 342.002929688 384.0078125 c 0
 366.669921875 362.0078125 378.002929688 338.340820312 376.002929688 313.0078125 c 0
 373.3359375 289.0078125 363.168945312 268.674804688 345.501953125 252.0078125 c 0
 327.834960938 235.340820312 304.16796875 220.840820312 274.500976562 208.5078125 c 0
 244.833984375 196.174804688 207.666992188 185.0078125 163 175.0078125 c 0
 151 173.0078125 143.666992188 170.5078125 141 167.5078125 c 0
 138.333007812 164.5078125 137 156.340820312 137 143.0078125 c 2
 137 108.0078125 l 2
 137 74.6748046875 142 52.1748046875 152 40.5078125 c 0
 162 28.8408203125 183.666992188 22.673828125 217 22.0068359375 c 0
 245.666992188 22.0068359375 267.5 29.5068359375 282.5 44.5068359375 c 0
 297.5 59.5068359375 304.333007812 75.673828125 303 93.0068359375 c 0
 303 97.0068359375 301.666992188 102.506835938 299 109.506835938 c 0
 296.333007812 116.506835938 296.333007812 121.33984375 299 124.006835938 c 0
 317 136.673828125 336.333007812 143.006835938 357 143.006835938 c 0
 366.333007812 143.006835938 371 138.006835938 371 128.006835938 c 0
 371 109.33984375 363.5 88.5068359375 348.5 65.5068359375 c 0
 333.5 42.5068359375 311.333007812 23.0068359375 282 7.0068359375 c 0
 252.666992188 -8.9931640625 219 -15.9931640625 181 -13.9931640625 c 0
 143 -11.9931640625 115.166992188 -1.826171875 97.5 16.5068359375 c 0
 79.8330078125 34.83984375 70.3330078125 64.6728515625 69 106.005859375 c 2
EndSplineSet
EndChar

StartChar: parenright
Encoding: 41 41 11
Width: 802
GlyphClass: 2
Flags: W
LayerCount: 2
Fore
SplineSet
399 -97 m 0
 423.666992188 -97 444.330078125 -105.000976562 460.997070312 -121.000976562 c 0
 477.6640625 -137.000976562 485.997070312 -158.000976562 485.997070312 -184.000976562 c 0
 485.997070312 -208.000976562 477.330078125 -228.333984375 459.997070312 -245.000976562 c 0
 442.6640625 -261.66796875 422.331054688 -270.000976562 398.998046875 -270.000976562 c 0
 375.665039062 -270.000976562 355.33203125 -261.333984375 337.999023438 -244.000976562 c 0
 320.666015625 -226.66796875 311.999023438 -206.66796875 311.999023438 -184.000976562 c 0
 311.999023438 -159.333984375 320.33203125 -138.666992188 336.999023438 -122 c 0
 353.666015625 -105.333007812 374.333007812 -97 399 -97 c 0
398.99609375 -125.000976562 m 0
 382.329101562 -125.000976562 368.329101562 -130.66796875 356.99609375 -142.000976562 c 0
 345.663085938 -153.333984375 339.99609375 -167.333984375 339.99609375 -184.000976562 c 0
 339.99609375 -199.333984375 345.99609375 -213.000976562 357.99609375 -225.000976562 c 0
 369.99609375 -237.000976562 383.663085938 -243.000976562 398.99609375 -243.000976562 c 0
 414.329101562 -243.000976562 427.99609375 -237.333984375 439.99609375 -226.000976562 c 0
 451.99609375 -214.66796875 457.99609375 -200.66796875 457.99609375 -184.000976562 c 0
 457.99609375 -166.000976562 452.329101562 -151.66796875 440.99609375 -141.000976562 c 0
 429.663085938 -130.333984375 415.663085938 -125.000976562 398.99609375 -125.000976562 c 0
182.99609375 355.999023438 m 1
 230.99609375 389.999023438 275.329101562 406.989257812 315.99609375 406.989257812 c 0
 358.663085938 406.989257812 393.99609375 387.65625 421.99609375 348.989257812 c 1
 428.663085938 346.989257812 436.99609375 349.322265625 446.99609375 355.989257812 c 0
 495.663085938 389.989257812 540.99609375 406.989257812 582.99609375 406.989257812 c 0
 621.663085938 406.989257812 651.163085938 395.489257812 671.49609375 372.489257812 c 0
 691.829101562 349.489257812 701.99609375 319.989257812 701.99609375 283.989257812 c 2
 701.99609375 110.989257812 l 2
 701.99609375 74.9892578125 703.99609375 52.15625 707.99609375 42.4892578125 c 0
 711.99609375 32.822265625 722.663085938 26.9892578125 739.99609375 24.9892578125 c 2
 763.99609375 21.9892578125 l 2
 767.99609375 19.9892578125 769.663085938 15.822265625 768.99609375 9.4892578125 c 0
 768.329101562 3.15625 765.99609375 -1.0107421875 761.99609375 -3.0107421875 c 0
 729.329101562 -1.0107421875 696.99609375 -0.0107421875 664.99609375 -0.0107421875 c 0
 632.329101562 -0.0107421875 601.99609375 -1.0107421875 573.99609375 -3.0107421875 c 0
 569.99609375 -0.34375 567.663085938 3.8232421875 566.99609375 9.490234375 c 0
 566.329101562 15.1572265625 567.99609375 19.32421875 571.99609375 21.9912109375 c 2
 589.99609375 24.9912109375 l 2
 607.99609375 27.658203125 618.829101562 33.3251953125 622.49609375 41.9921875 c 0
 626.163085938 50.6591796875 627.99609375 73.6591796875 627.99609375 110.9921875 c 2
 627.99609375 255.9921875 l 2
 627.99609375 324.659179688 596.99609375 358.9921875 534.99609375 358.9921875 c 0
 497.663085938 358.9921875 469.99609375 347.325195312 451.99609375 323.9921875 c 0
 441.99609375 311.325195312 436.99609375 291.658203125 436.99609375 264.991210938 c 2
 436.99609375 110.991210938 l 2
 436.99609375 74.9912109375 438.99609375 52.158203125 442.99609375 42.4912109375 c 0
 446.99609375 32.82421875 457.663085938 26.9912109375 474.99609375 24.9912109375 c 2
 495.99609375 21.9912109375 l 2
 499.99609375 19.9912109375 501.663085938 15.82421875 500.99609375 9.4912109375 c 0
 500.329101562 3.158203125 497.99609375 -1.0087890625 493.99609375 -3.0087890625 c 0
 463.99609375 -1.0087890625 432.663085938 -0.0087890625 399.99609375 -0.0087890625 c 0
 367.329101562 -0.0087890625 336.99609375 -1.0087890625 308.99609375 -3.0087890625 c 0
 304.99609375 -0.341796875 302.663085938 3.8251953125 301.99609375 9.4921875 c 0
 301.329101562 15.1591796875 302.99609375 19.326171875 306.99609375 21.9931640625 c 2
 324.99609375 24.9931640625 l 2
 342.99609375 27.66015625 353.829101562 33.3271484375 357.49609375 41.994140625 c 0
 361.163085938 50.6611328125 362.99609375 73.6611328125 362.99609375 110.994140625 c 2
 362.99609375 255.994140625 l 2
 362.99609375 324.661132812 332.329101562 358.994140625 270.99609375 358.994140625 c 0
 234.99609375 358.994140625 206.99609375 346.994140625 186.99609375 322.994140625 c 0
 176.99609375 310.994140625 171.99609375 292.327148438 171.99609375 266.994140625 c 2
 171.99609375 110.994140625 l 2
 171.99609375 84.3271484375 172.663085938 65.8271484375 173.99609375 55.494140625 c 0
 175.329101562 45.1611328125 178.49609375 37.994140625 183.49609375 33.994140625 c 0
 188.49609375 29.994140625 197.329101562 26.994140625 209.99609375 24.994140625 c 2
 227.99609375 21.994140625 l 2
 231.99609375 19.994140625 233.663085938 15.8271484375 232.99609375 9.494140625 c 0
 232.329101562 3.1611328125 229.99609375 -1.005859375 225.99609375 -3.005859375 c 0
 207.329101562 -1.6728515625 192.99609375 -1.005859375 182.99609375 -1.005859375 c 1
 155.99609375 -38.005859375 l 2
 150.663085938 -47.3388671875 153.663085938 -55.005859375 164.99609375 -61.005859375 c 0
 195.663085938 -82.3388671875 210.99609375 -106.005859375 210.99609375 -132.005859375 c 0
 210.99609375 -157.338867188 200.49609375 -178.338867188 179.49609375 -195.005859375 c 0
 158.49609375 -211.672851562 134.329101562 -220.005859375 106.99609375 -220.005859375 c 0
 68.3291015625 -220.005859375 48.99609375 -208.672851562 48.99609375 -186.005859375 c 0
 48.99609375 -179.338867188 51.3291015625 -173.338867188 55.99609375 -168.005859375 c 0
 60.6630859375 -162.672851562 66.6630859375 -160.005859375 73.99609375 -160.005859375 c 0
 81.99609375 -160.005859375 91.8291015625 -164.838867188 103.49609375 -174.505859375 c 0
 115.163085938 -184.172851562 122.99609375 -189.005859375 126.99609375 -189.005859375 c 0
 144.99609375 -189.005859375 153.99609375 -178.672851562 153.99609375 -158.005859375 c 0
 153.99609375 -144.672851562 147.663085938 -131.672851562 134.99609375 -119.005859375 c 0
 122.329101562 -106.338867188 107.662109375 -96.671875 90.9951171875 -90.0048828125 c 1
 90.9951171875 -85.0048828125 l 1
 147.995117188 -0.0048828125 l 1
 134.995117188 -0.0048828125 l 2
 101.662109375 -0.0048828125 69.3291015625 -1.0048828125 37.99609375 -3.0048828125 c 0
 33.99609375 -0.337890625 31.6630859375 3.8291015625 30.99609375 9.49609375 c 0
 30.3291015625 15.1630859375 31.99609375 19.330078125 35.99609375 21.9970703125 c 2
 59.99609375 24.9970703125 l 2
 77.99609375 26.9970703125 88.8291015625 32.4970703125 92.49609375 41.4970703125 c 0
 96.1630859375 50.4970703125 97.99609375 73.6640625 97.99609375 110.997070312 c 2
 97.99609375 286.997070312 l 2
 97.99609375 312.997070312 95.6630859375 329.330078125 90.99609375 335.997070312 c 0
 86.3291015625 342.6640625 72.99609375 348.6640625 50.99609375 353.997070312 c 2
 41.99609375 355.997070312 l 2
 39.99609375 357.997070312 38.99609375 360.830078125 38.99609375 364.497070312 c 0
 38.99609375 368.1640625 40.3291015625 370.6640625 42.99609375 371.997070312 c 0
 96.99609375 380.6640625 137.329101562 400.331054688 163.99609375 430.998046875 c 1
 169.329101562 429.665039062 171.99609375 427.33203125 171.99609375 423.999023438 c 2
 171.99609375 366.999023438 l 2
 171.99609375 359.666015625 175.663085938 355.999023438 182.99609375 355.999023438 c 1
EndSplineSet
EndChar

StartChar: asterisk
Encoding: 42 42 12
Width: 279
GlyphClass: 2
Flags: W
LayerCount: 2
Fore
SplineSet
118 793 m 0
 156.666992188 793 186.498046875 782.833007812 207.498046875 762.5 c 0
 228.498046875 742.166992188 241.998046875 707.666992188 247.998046875 659 c 1
 241.998046875 653 235.665039062 653 228.998046875 659 c 1
 221.665039062 687 209.83203125 707.166992188 193.499023438 719.5 c 0
 177.166015625 731.833007812 152.333007812 738 119 738 c 0
 86.3330078125 738 62.5 732 47.5 720 c 0
 32.5 708 19 687.666992188 7 659 c 0
 0.3330078125 653 -6 653 -12 659 c 1
 -2.6669921875 704.333007812 13 738 35 760 c 0
 57 782 84.6669921875 793 118 793 c 0
93.998046875 563 m 2
 93.998046875 583.666992188 89.8310546875 596.501953125 81.498046875 601.501953125 c 0
 73.1650390625 606.501953125 57.33203125 609.668945312 33.9990234375 611.001953125 c 2
 15.9990234375 612.001953125 l 2
 13.9990234375 615.334960938 12.9990234375 619.16796875 12.9990234375 623.500976562 c 0
 12.9990234375 627.833984375 14.33203125 630.666992188 16.9990234375 632 c 0
 64.33203125 648.666992188 110.33203125 669 154.999023438 693 c 1
 168.999023438 690.333007812 175.999023438 687.333007812 175.999023438 684 c 2
 167.999023438 587 l 1
 167.999023438 -57 l 2
 167.999023438 -125.666992188 168.999023438 -169.666992188 170.999023438 -189 c 0
 172.999023438 -208.333007812 180.999023438 -220.666015625 194.999023438 -225.999023438 c 0
 216.999023438 -233.33203125 231.999023438 -233.83203125 239.999023438 -227.499023438 c 0
 247.999023438 -221.166015625 252.166015625 -209.833007812 252.499023438 -193.5 c 0
 252.83203125 -177.166992188 253.665039062 -167 254.998046875 -163 c 0
 256.998046875 -157 262.165039062 -152.833007812 270.498046875 -150.5 c 0
 278.831054688 -148.166992188 287.1640625 -148.5 295.497070312 -151.5 c 0
 303.830078125 -154.5 309.330078125 -160 311.997070312 -168 c 0
 320.6640625 -192 317.331054688 -211.666992188 301.998046875 -227 c 0
 272.665039062 -250.333007812 241.665039062 -263.833007812 208.998046875 -267.5 c 0
 176.331054688 -271.166992188 148.998046875 -259.666992188 126.998046875 -233 c 0
 104.998046875 -206.333007812 93.998046875 -162.333007812 93.998046875 -101 c 2
 93.998046875 6 l 1
 93.998046875 563 l 2
EndSplineSet
EndChar

StartChar: plus
Encoding: 43 43 13
Width: 501
GlyphClass: 2
Flags: W
LayerCount: 2
Fore
SplineSet
248 407 m 0
 285.333007812 407 319.500976562 398.333007812 350.500976562 381 c 0
 381.500976562 363.666992188 406.000976562 339.333984375 424.000976562 308.000976562 c 0
 442.000976562 276.66796875 451.000976562 241.000976562 451.000976562 201.000976562 c 0
 451.000976562 138.333984375 431.333984375 86.6669921875 392.000976562 46 c 0
 352.66796875 5.3330078125 302.000976562 -15 240.000976562 -15 c 0
 182.000976562 -15 133.333984375 4.3330078125 94.0009765625 43 c 0
 54.66796875 81.6669921875 35.0009765625 131 35.0009765625 191 c 0
 35.0009765625 233 44.5009765625 270.166992188 63.5009765625 302.5 c 0
 82.5009765625 334.833007812 108.16796875 360.333007812 140.500976562 379 c 0
 172.833984375 397.666992188 208.666992188 407 248 407 c 0
149.000976562 -194 m 0
 135.66796875 -194 124.500976562 -190.16796875 115.500976562 -182.500976562 c 0
 106.500976562 -174.833984375 102.000976562 -163.666992188 102.000976562 -149 c 0
 101.333984375 -135 105.500976562 -123.5 114.500976562 -114.5 c 0
 123.500976562 -105.5 135.000976562 -101 149.000976562 -101 c 0
 163.000976562 -101 174.16796875 -105.5 182.500976562 -114.5 c 0
 190.833984375 -123.5 195.000976562 -134 195.000976562 -146 c 0
 195.000976562 -160 190.833984375 -171.5 182.500976562 -180.5 c 0
 174.16796875 -189.5 163.000976562 -194 149.000976562 -194 c 0
337.000976562 -194.000976562 m 0
 323.66796875 -194.000976562 312.333984375 -190.166992188 303.000976562 -182.5 c 0
 293.66796875 -174.833007812 289.000976562 -163.666015625 289.000976562 -148.999023438 c 0
 289.000976562 -134.999023438 293.500976562 -123.499023438 302.500976562 -114.499023438 c 0
 311.500976562 -105.499023438 323.000976562 -100.999023438 337.000976562 -100.999023438 c 0
 351.000976562 -100.999023438 362.000976562 -105.33203125 370.000976562 -113.999023438 c 0
 378.000976562 -122.666015625 382.000976562 -133.333007812 382.000976562 -146 c 0
 382.000976562 -160.666992188 378.000976562 -172.333984375 370.000976562 -181.000976562 c 0
 362.000976562 -189.66796875 351.000976562 -194.000976562 337.000976562 -194.000976562 c 0
369 220 m 1
 365.666992188 246 358.5 271.5 347.5 296.5 c 0
 336.5 321.5 321.5 341.333007812 302.5 356 c 0
 283.5 370.666992188 261.333007812 378 236 378 c 0
 204 378 177 364 155 336 c 0
 133 308 120.666992188 269.333007812 118 220 c 1
 369 220 l 1
370 181 m 1
 116 181 l 1
 120 135.666992188 134 96.6669921875 158 64 c 0
 182 31.3330078125 212.666992188 15 250 15 c 0
 289.333007812 15 318.833007812 31.1669921875 338.5 63.5 c 0
 358.166992188 95.8330078125 368.666992188 135 370 181 c 1
EndSplineSet
EndChar

StartChar: comma
Encoding: 44 44 14
Width: 453
GlyphClass: 2
Flags: W
LayerCount: 2
Fore
SplineSet
278 313 m 2
 362.005859375 103 l 2
 370.672851562 80.3330078125 376.672851562 65.5 380.005859375 58.5 c 0
 383.338867188 51.5 388.505859375 44.5 395.505859375 37.5 c 0
 402.505859375 30.5 411.338867188 26.6669921875 422.005859375 26 c 2
 450.005859375 23 l 2
 452.672851562 19.6669921875 453.672851562 15 453.005859375 9 c 0
 452.338867188 3 450.338867188 -1 447.005859375 -3 c 0
 414.338867188 -1 380.338867188 0 345.005859375 0 c 0
 327.672851562 0 298.005859375 -1 256.005859375 -3 c 0
 253.338867188 -1 251.671875 3.3330078125 251.004882812 10 c 0
 250.337890625 16.6669921875 251.670898438 21 255.00390625 23 c 2
 275.00390625 25 l 2
 290.336914062 27 299.169921875 30.5 301.502929688 35.5 c 0
 303.8359375 40.5 302.3359375 51 297.002929688 67 c 0
 279.002929688 122.333007812 254.002929688 188.333007812 222.002929688 265 c 0
 214.002929688 283.666992188 208.669921875 294.333984375 206.002929688 297.000976562 c 0
 201.3359375 293.66796875 195.002929688 280.66796875 187.002929688 258.000976562 c 0
 183.002929688 246.66796875 173.3359375 220.66796875 158.002929688 180.000976562 c 0
 142.669921875 139.333984375 133.336914062 114.666992188 130.00390625 106 c 0
 118.00390625 74 112.00390625 52.6669921875 112.00390625 42 c 0
 112.00390625 33.3330078125 118.00390625 28 130.00390625 26 c 2
 161.00390625 23 l 2
 163.670898438 20.3330078125 165.00390625 15.8330078125 165.00390625 9.5 c 0
 165.00390625 3.1669921875 163.00390625 -1 159.00390625 -3 c 0
 120.336914062 -1 92.669921875 0 76.0029296875 0 c 0
 60.0029296875 0 34.0029296875 -1 -1.9970703125 -3 c 0
 -4.6640625 -1 -6.3310546875 3.1669921875 -6.998046875 9.5 c 0
 -7.6650390625 15.8330078125 -6.6650390625 20.3330078125 -3.998046875 23 c 2
 19.001953125 25 l 2
 35.001953125 27 46.6689453125 33.1669921875 54.001953125 43.5 c 0
 61.3349609375 53.8330078125 74.001953125 77.3330078125 92.001953125 114 c 0
 99.3349609375 129.333007812 113.16796875 161.333007812 133.500976562 210 c 0
 153.833984375 258.666992188 170.666992188 300.666992188 184 336 c 0
 189.333007812 349.333007812 194.833007812 363 200.5 377 c 0
 206.166992188 391 211.666992188 405.666992188 217 421 c 0
 219 423.666992188 222.333007812 425 227 425 c 0
 233 425 237.333007812 423.666992188 240 421 c 0
 246 399 258.666992188 363 278 313 c 2
219.005859375 -216 m 0
 181.005859375 -216 151.340820312 -206 130.0078125 -186 c 0
 108.674804688 -166 95.0078125 -131.666992188 89.0078125 -83 c 1
 95.6748046875 -77 102.0078125 -77 108.0078125 -83 c 1
 115.340820312 -110.333007812 127.173828125 -130.5 143.506835938 -143.5 c 0
 159.83984375 -156.5 184.672851562 -163 218.005859375 -163 c 0
 250.005859375 -163 273.838867188 -156.5 289.505859375 -143.5 c 0
 305.172851562 -130.5 318.672851562 -110.333007812 330.005859375 -83 c 0
 336.672851562 -77 343.005859375 -77 349.005859375 -83 c 1
 341.005859375 -126.333007812 325.672851562 -159.333007812 303.005859375 -182 c 0
 280.338867188 -204.666992188 252.338867188 -216 219.005859375 -216 c 0
EndSplineSet
EndChar

StartChar: hyphen
Encoding: 45 45 15
Width: 210
GlyphClass: 2
Flags: W
LayerCount: 2
Fore
SplineSet
181 181 m 1
 10 181 l 1
 10 229 l 1
 181 229 l 1
 181 181 l 1
EndSplineSet
EndChar

StartChar: period
Encoding: 46 46 16
Width: 414
GlyphClass: 2
Flags: W
LayerCount: 2
Fore
SplineSet
192 624 m 1
 192.001953125 220 l 1
 279.001953125 220 l 1
 279.001953125 182 l 1
 192.001953125 182 l 1
 192.001953125 107 l 2
 192.001953125 75 193.668945312 54 197.001953125 44 c 0
 199.668945312 41.3330078125 201.8359375 38.8330078125 203.502929688 36.5 c 0
 205.169921875 34.1669921875 209.836914062 32.333984375 217.50390625 31.0009765625 c 0
 225.170898438 29.66796875 235.670898438 29.0009765625 249.00390625 29.0009765625 c 0
 283.00390625 29.0009765625 308.670898438 33.333984375 326.00390625 42.0009765625 c 0
 343.336914062 50.66796875 358.669921875 72.0009765625 372.002929688 106.000976562 c 0
 374.002929688 108.000976562 377.002929688 109.000976562 381.002929688 109.000976562 c 0
 385.002929688 109.000976562 388.3359375 108.500976562 391.002929688 107.500976562 c 0
 393.669921875 106.500976562 395.669921875 104.66796875 397.002929688 102.000976562 c 0
 391.002929688 54.66796875 381.3359375 19.66796875 368.002929688 -2.9990234375 c 1
 335.3359375 -0.9990234375 290.668945312 0.0009765625 234.001953125 0.0009765625 c 2
 155.001953125 0.0009765625 l 2
 129.668945312 0.0009765625 94.001953125 -0.9990234375 48.001953125 -2.9990234375 c 0
 44.6689453125 -0.9990234375 42.6689453125 2.833984375 42.001953125 8.5009765625 c 0
 41.3349609375 14.16796875 42.66796875 18.0009765625 46.0009765625 20.0009765625 c 2
 72.0009765625 23.0009765625 l 2
 93.333984375 26.333984375 106.333984375 31.5009765625 111.000976562 38.5009765625 c 0
 115.66796875 45.5009765625 118.000976562 64.0009765625 118.000976562 94.0009765625 c 2
 118.000976562 182.000976562 l 1
 40.0009765625 182.000976562 l 1
 40.0009765625 220.000976562 l 1
 118.000976562 220.000976562 l 1
 118.000976562 600.000976562 l 2
 118.000976562 620.66796875 113.66796875 633.334960938 105.000976562 638.001953125 c 0
 96.333984375 642.668945312 80.6669921875 645.668945312 58 647.001953125 c 2
 40 649.001953125 l 2
 38 652.334960938 37 656.16796875 37 660.500976562 c 0
 37 664.833984375 38.3330078125 667.666992188 41 669 c 0
 88.3330078125 685.666992188 134.333007812 706 179 730 c 1
 193 727.333007812 200 724.333007812 200 721 c 2
 192 624 l 1
EndSplineSet
EndChar

StartChar: slash
Encoding: 47 47 17
Width: 322
GlyphClass: 2
Flags: W
LayerCount: 2
Fore
SplineSet
88 319 m 2
 88 334.333007812 87 343.501953125 85 346.501953125 c 0
 83 349.501953125 77 351.001953125 67 351.001953125 c 2
 39 351.001953125 l 2
 35.6669921875 353.001953125 33.833984375 356.168945312 33.5009765625 360.501953125 c 0
 33.16796875 364.834960938 34.0009765625 368.66796875 36.0009765625 372.000976562 c 0
 66.0009765625 381.333984375 87.333984375 391.666992188 100.000976562 403 c 0
 120.66796875 421.666992188 134.66796875 462.666992188 142.000976562 526 c 1
 152.000976562 530 159.000976562 528.333007812 163.000976562 521 c 1
 163.000976562 412 l 2
 163.000976562 402.666992188 163.833984375 397.166992188 165.500976562 395.5 c 0
 167.16796875 393.833007812 172.334960938 393 181.001953125 393 c 2
 292.001953125 393 l 1
 298.668945312 389 301.668945312 381.666992188 301.001953125 371 c 0
 300.334960938 360.333007812 297.66796875 353.666015625 293.000976562 350.999023438 c 2
 180.000976562 350.999023438 l 2
 171.333984375 350.999023438 166.166992188 349.666015625 164.5 346.999023438 c 0
 162.833007812 344.33203125 162 336.665039062 162 323.998046875 c 2
 162 -143.001953125 l 2
 162 -169.668945312 162.666992188 -188.001953125 164 -198.001953125 c 0
 165.333007812 -208.001953125 168.5 -215.001953125 173.5 -219.001953125 c 0
 178.5 -223.001953125 187.333007812 -226.001953125 200 -228.001953125 c 2
 241 -232.001953125 l 2
 245 -234.001953125 246.666992188 -238.168945312 246 -244.501953125 c 0
 245.333007812 -250.834960938 243 -255.001953125 239 -257.001953125 c 0
 189 -255.001953125 151 -254.001953125 125 -254.001953125 c 0
 95 -254.001953125 59 -255.001953125 17 -257.001953125 c 0
 13 -254.334960938 10.6669921875 -250.16796875 10 -244.500976562 c 0
 9.3330078125 -238.833984375 11 -234.666992188 15 -232 c 2
 50 -229 l 2
 68 -227 78.8330078125 -221.5 82.5 -212.5 c 0
 86.1669921875 -203.5 88 -180.333007812 88 -143 c 2
 88 319 l 2
126 554.001953125 m 0
 112 554.001953125 100.334960938 559.16796875 91.001953125 569.500976562 c 0
 81.6689453125 579.833984375 77.001953125 592.000976562 77.001953125 606.000976562 c 0
 77.001953125 622.66796875 82.1689453125 635.16796875 92.501953125 643.500976562 c 0
 102.834960938 651.833984375 115.001953125 656.000976562 129.001953125 656.000976562 c 0
 144.334960938 656.000976562 156.66796875 651.333984375 166.000976562 642.000976562 c 0
 175.333984375 632.66796875 180.000976562 621.334960938 180.000976562 608.001953125 c 0
 180.000976562 592.001953125 174.66796875 579.001953125 164.000976562 569.001953125 c 0
 153.333984375 559.001953125 140.666992188 554.001953125 126 554.001953125 c 0
EndSplineSet
EndChar

StartChar: zero
Encoding: 48 48 18
Width: 530
GlyphClass: 2
Flags: W
LayerCount: 2
Fore
SplineSet
358 -149 m 1
 276.999023438 -148.993164062 l 1
 276.999023438 -103.993164062 l 1
 357.999023438 -103.993164062 l 1
 357.999023438 17.0068359375 l 2
 357.999023438 27.673828125 356.666015625 34.0068359375 353.999023438 36.0068359375 c 0
 309.33203125 1.33984375 264.33203125 -15.9931640625 218.999023438 -15.9931640625 c 0
 188.33203125 -15.9931640625 163.33203125 -10.326171875 143.999023438 1.0068359375 c 0
 124.666015625 12.33984375 110.833007812 27.83984375 102.5 47.5068359375 c 0
 94.1669921875 67.173828125 90 89.0068359375 90 113.006835938 c 2
 90 280.006835938 l 2
 90 317.33984375 88.1669921875 340.83984375 84.5 350.506835938 c 0
 80.8330078125 360.173828125 70 365.340820312 52 366.0078125 c 2
 17 369.0078125 l 2
 13.6669921875 373.0078125 12.1669921875 377.840820312 12.5 383.5078125 c 0
 12.8330078125 389.174804688 15 392.674804688 19 394.0078125 c 0
 63 392.0078125 99 391.0078125 127 391.0078125 c 0
 159.666992188 391.0078125 193.333984375 392.0078125 228.000976562 394.0078125 c 0
 232.000976562 393.340820312 234.333984375 389.673828125 235.000976562 383.006835938 c 0
 235.66796875 376.33984375 234.000976562 371.672851562 230.000976562 369.005859375 c 2
 202.000976562 366.005859375 l 2
 184.000976562 364.005859375 173.16796875 358.505859375 169.500976562 349.505859375 c 0
 165.833984375 340.505859375 164.000976562 317.338867188 164.000976562 280.005859375 c 2
 164.000976562 137.005859375 l 2
 164.000976562 104.338867188 172.16796875 78.3388671875 188.500976562 59.005859375 c 0
 204.833984375 39.6728515625 228.333984375 30.005859375 259.000976562 30.005859375 c 0
 289.66796875 30.005859375 315.66796875 39.005859375 337.000976562 57.005859375 c 0
 346.333984375 65.005859375 352.166992188 72.1728515625 354.5 78.505859375 c 0
 356.833007812 84.8388671875 358 96.005859375 358 112.005859375 c 2
 358 280.005859375 l 2
 358 317.338867188 356.166992188 340.505859375 352.5 349.505859375 c 0
 348.833007812 358.505859375 338 364.005859375 320 366.005859375 c 2
 291 369.005859375 l 2
 287 371.672851562 285.333007812 376.172851562 286 382.505859375 c 0
 286.666992188 388.838867188 289 392.671875 293 394.004882812 c 0
 331 392.004882812 365 391.004882812 395 391.004882812 c 0
 425.666992188 391.004882812 461 392.004882812 501 394.004882812 c 0
 505 393.337890625 507.333007812 389.670898438 508 383.00390625 c 0
 508.666992188 376.336914062 507 371.669921875 503 369.002929688 c 2
 470 366.002929688 l 2
 452 364.002929688 441.166992188 358.502929688 437.5 349.502929688 c 0
 433.833007812 340.502929688 432 317.3359375 432 280.002929688 c 2
 432 -103.997070312 l 1
 497 -103.997070312 l 1
 497 -148.997070312 l 1
 432 -148.997070312 l 1
 432 -172.997070312 434 -188.330078125 438 -194.997070312 c 0
 442 -201.6640625 455.666992188 -208.331054688 479 -214.998046875 c 2
 488 -216.998046875 l 2
 490 -218.998046875 491 -221.998046875 491 -225.998046875 c 0
 491 -229.998046875 489.666992188 -232.331054688 487 -232.998046875 c 0
 433 -241.665039062 392.666992188 -261.33203125 366 -291.999023438 c 1
 358.666992188 -290.666015625 355 -288.333007812 355 -285 c 2
 358 -217 l 1
 358 -149 l 1
EndSplineSet
EndChar

StartChar: one
Encoding: 49 49 19
Width: 612
GlyphClass: 2
Flags: W
LayerCount: 2
Fore
SplineSet
445 5 m 1
 415 -8.3330078125 383.33203125 -14.99609375 349.999023438 -14.99609375 c 2
 334.999023438 -14.99609375 l 1
 334.999023438 -101.99609375 l 2
 334.999023438 -142.663085938 335.999023438 -170.49609375 337.999023438 -185.49609375 c 0
 339.999023438 -200.49609375 344.999023438 -211.329101562 352.999023438 -217.99609375 c 0
 360.999023438 -224.663085938 374.999023438 -228.330078125 394.999023438 -228.997070312 c 2
 432.999023438 -230.997070312 l 2
 435.666015625 -232.997070312 436.666015625 -237.1640625 435.999023438 -243.497070312 c 0
 435.33203125 -249.830078125 433.665039062 -253.997070312 430.998046875 -255.997070312 c 0
 372.998046875 -253.997070312 328.998046875 -252.997070312 298.998046875 -252.997070312 c 0
 267.665039062 -252.997070312 222.998046875 -253.997070312 164.998046875 -255.997070312 c 0
 161.665039062 -253.997070312 159.665039062 -249.830078125 158.998046875 -243.497070312 c 0
 158.331054688 -237.1640625 159.6640625 -232.997070312 162.997070312 -230.997070312 c 2
 199.997070312 -228.997070312 l 2
 220.6640625 -227.6640625 234.997070312 -223.831054688 242.997070312 -217.498046875 c 0
 250.997070312 -211.165039062 255.997070312 -200.498046875 257.997070312 -185.498046875 c 0
 259.997070312 -170.498046875 260.997070312 -142.665039062 260.997070312 -101.998046875 c 2
 260.997070312 -14.998046875 l 1
 239.997070312 -14.998046875 l 2
 181.997070312 -14.998046875 133.330078125 4.3349609375 93.9970703125 43.001953125 c 0
 54.6640625 81.6689453125 34.9970703125 131.001953125 34.9970703125 191.001953125 c 0
 34.9970703125 231.001953125 45.1640625 267.668945312 65.4970703125 301.001953125 c 0
 85.830078125 334.334960938 113.330078125 360.334960938 147.997070312 379.001953125 c 0
 182.6640625 397.668945312 220.331054688 407.001953125 260.998046875 407.001953125 c 1
 260.998046875 495.001953125 l 2
 260.998046875 551.001953125 258.331054688 585.668945312 252.998046875 599.001953125 c 0
 247.665039062 612.334960938 229.998046875 620.334960938 199.998046875 623.001953125 c 2
 162.998046875 625.001953125 l 2
 159.665039062 627.001953125 158.33203125 631.168945312 158.999023438 637.501953125 c 0
 159.666015625 643.834960938 161.666015625 647.66796875 164.999023438 649.000976562 c 0
 242.33203125 647.66796875 286.999023438 647.000976562 298.999023438 647.000976562 c 0
 309.666015625 647.000976562 353.666015625 647.66796875 430.999023438 649.000976562 c 0
 433.666015625 648.333984375 435.333007812 644.666992188 436 638 c 0
 436.666992188 631.333007812 435.666992188 627 433 625 c 2
 396 623 l 2
 367.333007812 620.333007812 350 611.833007812 344 597.5 c 0
 338 583.166992188 335 549 335 495 c 2
 335 406 l 1
 372.333007812 406 408.5 397.5 443.5 380.5 c 0
 478.5 363.5 506.833007812 339.333007812 528.5 308 c 0
 550.166992188 276.666992188 561 241 561 201 c 0
 561 127 534.666992188 69.3330078125 482 28 c 1
 475 -7 l 2
 471.666992188 -12.3330078125 479.333984375 -20 498.000976562 -30 c 0
 510.000976562 -38 519.833984375 -44.3330078125 527.500976562 -49 c 0
 535.16796875 -53.6669921875 541.66796875 -59 547.000976562 -65 c 0
 552.333984375 -71 555.000976562 -79 555.000976562 -89 c 0
 555.000976562 -113 544.500976562 -133.666992188 523.500976562 -151 c 0
 502.500976562 -168.333007812 478.333984375 -177 451.000976562 -177 c 0
 412.333984375 -177 393.000976562 -165.333007812 393.000976562 -142 c 0
 393.000976562 -136 395.500976562 -130.166992188 400.500976562 -124.5 c 0
 405.500976562 -118.833007812 411.333984375 -116 418.000976562 -116 c 0
 426.000976562 -116 436.000976562 -121 448.000976562 -131 c 0
 460.000976562 -141 467.66796875 -146 471.000976562 -146 c 0
 477.000976562 -146 483.16796875 -142.166992188 489.500976562 -134.5 c 0
 495.833984375 -126.833007812 499.000976562 -118 499.000976562 -108 c 0
 499.000976562 -96 493.16796875 -86.1669921875 481.500976562 -78.5 c 0
 469.833984375 -70.8330078125 453.666992188 -63 433 -55 c 1
 433 -55 l 1
 445 5 l 1
261.999023438 12.00390625 m 1
 262 380.00390625 l 1
 259.333007812 380.00390625 255.166015625 379.836914062 249.499023438 379.50390625 c 0
 243.83203125 379.170898438 239.33203125 378.670898438 235.999023438 378.00390625 c 0
 201.999023438 378.00390625 173.999023438 362.50390625 151.999023438 331.50390625 c 0
 129.999023438 300.50390625 118.999023438 258.336914062 118.999023438 205.00390625 c 0
 118.999023438 155.00390625 130.499023438 110.50390625 153.499023438 71.50390625 c 0
 176.499023438 32.50390625 208.666015625 12.6708984375 249.999023438 12.00390625 c 2
 261.999023438 12.00390625 l 1
334 13.00390625 m 1
 360 13.00390625 l 2
 388 13.00390625 410.666992188 21.50390625 428 38.50390625 c 0
 445.333007812 55.50390625 457.833007812 77.00390625 465.5 103.00390625 c 0
 473.166992188 129.00390625 477 156.336914062 477 185.00390625 c 0
 477 234.336914062 465.833007812 278.836914062 443.5 318.50390625 c 0
 421.166992188 358.170898438 388.666992188 378.00390625 346 378.00390625 c 0
 340.666992188 378.00390625 336.666992188 378.336914062 334 379.00390625 c 1
 334 13.00390625 l 1
EndSplineSet
EndChar

StartChar: two
Encoding: 50 50 20
Width: 512
GlyphClass: 2
Flags: W
LayerCount: 2
Fore
SplineSet
350 241 m 2
 350 296.993164062 l 2
 350 327.66015625 347.833007812 346.66015625 343.5 353.993164062 c 0
 339.166992188 361.326171875 326.333984375 366.659179688 305.000976562 369.9921875 c 2
 278.000976562 372.9921875 l 2
 274.66796875 374.9921875 273.334960938 378.9921875 274.001953125 384.9921875 c 0
 274.668945312 390.9921875 276.668945312 394.325195312 280.001953125 394.9921875 c 0
 341.334960938 393.659179688 377.001953125 392.9921875 387.001953125 392.9921875 c 0
 397.001953125 392.9921875 432.668945312 393.659179688 494.001953125 394.9921875 c 0
 497.334960938 394.325195312 499.334960938 390.9921875 500.001953125 384.9921875 c 0
 500.668945312 378.9921875 499.3359375 374.9921875 496.002929688 372.9921875 c 2
 469.002929688 369.9921875 l 2
 455.002929688 367.9921875 445.002929688 365.325195312 439.002929688 361.9921875 c 0
 433.002929688 358.659179688 429.002929688 352.826171875 427.002929688 344.493164062 c 0
 425.002929688 336.16015625 424.002929688 320.327148438 424.002929688 296.994140625 c 2
 424.002929688 93.994140625 l 2
 424.002929688 71.3271484375 425.002929688 55.8271484375 427.002929688 47.494140625 c 0
 429.002929688 39.1611328125 432.502929688 33.494140625 437.502929688 30.494140625 c 0
 442.502929688 27.494140625 453.002929688 24.994140625 469.002929688 22.994140625 c 2
 500.002929688 19.994140625 l 2
 503.3359375 18.6611328125 504.668945312 14.994140625 504.001953125 8.994140625 c 0
 503.334960938 2.994140625 501.334960938 -1.005859375 498.001953125 -3.005859375 c 0
 449.334960938 -1.005859375 412.334960938 -0.005859375 387.001953125 -0.005859375 c 0
 361.668945312 -0.005859375 326.001953125 -1.005859375 280.001953125 -3.005859375 c 0
 276.668945312 -1.005859375 274.668945312 2.8271484375 274.001953125 8.494140625 c 0
 273.334960938 14.1611328125 274.66796875 17.994140625 278.000976562 19.994140625 c 2
 305.000976562 22.994140625 l 2
 321.66796875 25.6611328125 332.334960938 27.828125 337.001953125 29.4951171875 c 0
 341.668945312 31.162109375 345.001953125 35.8291015625 347.001953125 43.49609375 c 0
 349.001953125 51.1630859375 350.001953125 67.99609375 350.001953125 93.99609375 c 2
 350.001953125 166.99609375 l 2
 350.001953125 182.99609375 349.168945312 192.663085938 347.501953125 195.99609375 c 0
 345.834960938 199.329101562 340.334960938 200.99609375 331.001953125 200.99609375 c 0
 319.001953125 200.99609375 308.334960938 196.329101562 299.001953125 186.99609375 c 2
 192.001953125 62.99609375 l 2
 180.668945312 49.6630859375 175.001953125 40.330078125 175.001953125 34.9970703125 c 0
 175.001953125 30.330078125 183.334960938 26.9970703125 200.001953125 24.9970703125 c 2
 226.001953125 21.9970703125 l 2
 229.334960938 20.6640625 230.66796875 16.6640625 230.000976562 9.9970703125 c 0
 229.333984375 3.330078125 227.333984375 -1.0029296875 224.000976562 -3.0029296875 c 0
 187.333984375 -1.0029296875 150.000976562 -0.0029296875 112.000976562 -0.0029296875 c 0
 80.66796875 -0.0029296875 46.3349609375 -1.0029296875 9.001953125 -3.0029296875 c 0
 5.6689453125 -1.0029296875 3.6689453125 3.1640625 3.001953125 9.4970703125 c 0
 2.3349609375 15.830078125 3.66796875 19.9970703125 7.0009765625 21.9970703125 c 2
 29.0009765625 23.9970703125 l 2
 52.333984375 27.9970703125 69.6669921875 35.330078125 81 45.9970703125 c 0
 93 57.330078125 126 91.330078125 180 147.997070312 c 0
 201.333007812 170.6640625 214.666015625 184.497070312 219.999023438 189.497070312 c 0
 225.33203125 194.497070312 234.665039062 203.6640625 247.998046875 216.997070312 c 0
 253.998046875 222.997070312 251.665039062 230.6640625 240.998046875 239.997070312 c 0
 227.665039062 254.6640625 212.165039062 271.1640625 194.498046875 289.497070312 c 0
 176.831054688 307.830078125 159.998046875 322.997070312 143.998046875 334.997070312 c 0
 119.331054688 354.997070312 98.3310546875 366.6640625 80.998046875 369.997070312 c 2
 40.998046875 375.997070312 l 2
 38.3310546875 378.6640625 37.3310546875 383.331054688 37.998046875 389.998046875 c 0
 38.6650390625 396.665039062 40.33203125 400.33203125 42.9990234375 400.999023438 c 0
 99.666015625 395.666015625 155.333007812 392.999023438 210 392.999023438 c 2
 241 392.999023438 l 2
 245.666992188 392.33203125 248 388.33203125 248 380.999023438 c 0
 248 373.666015625 245.666992188 369.666015625 241 368.999023438 c 2
 209 364.999023438 l 2
 194.333007812 362.999023438 187 359.666015625 187 354.999023438 c 0
 187 349.666015625 198.666992188 334.333007812 222 309 c 2
 263 266 l 2
 287 240 310 227 332 227 c 0
 340 227 345 227.833007812 347 229.5 c 0
 349 231.166992188 350 235 350 241 c 2
263 606.993164062 m 0
 301.666992188 606.993164062 331.5 596.825195312 352.5 576.4921875 c 0
 373.5 556.159179688 387 521.326171875 393 471.993164062 c 1
 387 466.66015625 380.666992188 466.66015625 374 471.993164062 c 1
 366.666992188 501.326171875 354.833984375 521.993164062 338.500976562 533.993164062 c 0
 322.16796875 545.993164062 297.334960938 551.993164062 264.001953125 551.993164062 c 0
 231.334960938 551.993164062 207.66796875 545.993164062 193.000976562 533.993164062 c 0
 178.333984375 521.993164062 164.666992188 501.326171875 152 471.993164062 c 0
 146 466.66015625 139.666992188 466.66015625 133 471.993164062 c 1
 149.666992188 561.993164062 193 606.993164062 263 606.993164062 c 0
EndSplineSet
EndChar

StartChar: three
Encoding: 51 51 21
Width: 414
GlyphClass: 2
Flags: W
LayerCount: 2
Fore
SplineSet
326 237 m 2
 127.998046875 237.002929688 l 2
 114.665039062 237.002929688 106.83203125 235.669921875 104.499023438 233.002929688 c 0
 102.166015625 230.3359375 100.999023438 222.668945312 100.999023438 210.001953125 c 0
 100.999023438 159.334960938 115.499023438 118.66796875 144.499023438 88.0009765625 c 0
 173.499023438 57.333984375 214.33203125 42.0009765625 266.999023438 42.0009765625 c 0
 302.999023438 42.0009765625 333.666015625 58.0009765625 358.999023438 90.0009765625 c 1
 369.666015625 93.333984375 375.666015625 89.6669921875 376.999023438 79 c 1
 362.999023438 49 340.499023438 25.8330078125 309.499023438 9.5 c 0
 278.499023438 -6.8330078125 248.666015625 -15 219.999023438 -15 c 0
 157.999023438 -15 109.666015625 7 74.9990234375 51 c 0
 46.9990234375 87.6669921875 32.9990234375 131.333984375 32.9990234375 182.000976562 c 0
 32.9990234375 245.333984375 51.83203125 298.666992188 89.4990234375 342 c 0
 127.166015625 385.333007812 175.333007812 407 234 407 c 0
 279.333007812 407 314 394.666992188 338 370 c 0
 362 345.333007812 376 312.333007812 380 271 c 0
 380.666992188 257.666992188 380.666992188 249 380 245 c 0
 378.666992188 239.666992188 360.666992188 237 326 237 c 2
118.998046875 268.002929688 m 2
 189.998046875 268.001953125 l 2
 255.331054688 268.001953125 291.998046875 271.001953125 299.998046875 277.001953125 c 0
 303.998046875 279.668945312 305.998046875 292.001953125 305.998046875 314.001953125 c 0
 305.998046875 330.668945312 298.831054688 345.3359375 284.498046875 358.002929688 c 0
 270.165039062 370.669921875 249.665039062 377.002929688 222.998046875 377.002929688 c 0
 195.665039062 377.002929688 170.665039062 364.502929688 147.998046875 339.502929688 c 0
 125.331054688 314.502929688 113.331054688 292.002929688 111.998046875 272.002929688 c 0
 111.998046875 269.3359375 114.331054688 268.002929688 118.998046875 268.002929688 c 2
194.998046875 -61.998046875 m 0
 218.998046875 -61.998046875 240.5 -68.6611328125 259.5 -81.994140625 c 0
 278.5 -95.3271484375 288.333007812 -117.327148438 289 -147.994140625 c 0
 289.666992188 -180.661132812 279.5 -208.828125 258.5 -232.495117188 c 0
 237.5 -256.162109375 210.666992188 -273.329101562 178 -283.99609375 c 1
 168 -276.663085938 165.333007812 -268.99609375 170 -260.99609375 c 1
 219.333007812 -240.329101562 243.666015625 -211.99609375 242.999023438 -175.99609375 c 0
 242.33203125 -157.99609375 235.165039062 -144.829101562 221.498046875 -136.49609375 c 0
 207.831054688 -128.163085938 191.998046875 -126.330078125 173.998046875 -130.997070312 c 1
 155.998046875 -129.6640625 146.665039062 -120.6640625 145.998046875 -103.997070312 c 0
 145.998046875 -92.6640625 149.665039062 -82.8310546875 156.998046875 -74.498046875 c 0
 164.331054688 -66.1650390625 176.998046875 -61.998046875 194.998046875 -61.998046875 c 0
183 578.005859375 m 2
 263.999023438 542.004882812 l 2
 281.999023438 534.671875 295.999023438 535.171875 305.999023438 543.504882812 c 0
 315.999023438 551.837890625 327.666015625 568.004882812 340.999023438 592.004882812 c 0
 342.999023438 596.004882812 346.166015625 597.671875 350.499023438 597.004882812 c 0
 354.83203125 596.337890625 357.33203125 593.337890625 357.999023438 588.004882812 c 0
 359.999023438 555.337890625 351.666015625 528.337890625 332.999023438 507.004882812 c 0
 321.666015625 494.337890625 307.666015625 487.004882812 290.999023438 485.004882812 c 0
 274.33203125 483.004882812 258.33203125 484.671875 242.999023438 490.004882812 c 2
 163.999023438 523.004882812 l 2
 136.666015625 535.004882812 108.333007812 518.671875 79 474.004882812 c 0
 77 470.004882812 73.8330078125 469.004882812 69.5 471.004882812 c 0
 65.1669921875 473.004882812 62.6669921875 475.671875 62 479.004882812 c 0
 59.3330078125 501.004882812 72 527.337890625 100 558.004882812 c 0
 108 568.671875 120.166992188 576.338867188 136.5 581.005859375 c 0
 152.833007812 585.672851562 168.333007812 584.672851562 183 578.005859375 c 2
EndSplineSet
EndChar

StartChar: four
Encoding: 52 52 22
Width: 409
GlyphClass: 2
Flags: W
LayerCount: 2
Fore
SplineSet
158 26 m 0
 167.333007812 23.3330078125 179.001953125 22.666015625 193.001953125 23.9990234375 c 0
 217.001953125 25.9990234375 236.668945312 34.166015625 252.001953125 48.4990234375 c 0
 267.334960938 62.83203125 275.001953125 80.33203125 275.001953125 100.999023438 c 0
 274.334960938 120.33203125 268.001953125 138.499023438 256.001953125 155.499023438 c 0
 244.001953125 172.499023438 231.334960938 180.999023438 218.001953125 180.999023438 c 0
 211.334960938 181.666015625 204.334960938 180.666015625 197.001953125 177.999023438 c 0
 189.668945312 175.33203125 179.3359375 173.999023438 166.002929688 173.999023438 c 0
 155.3359375 173.999023438 148.168945312 178.83203125 144.501953125 188.499023438 c 0
 140.834960938 198.166015625 143.16796875 206.833007812 151.500976562 214.5 c 0
 159.833984375 222.166992188 172.666992188 224 190 220 c 0
 222.666992188 218 246.5 224.666992188 261.5 240 c 0
 276.5 255.333007812 282.333007812 275.333007812 279 300 c 0
 273 328.666992188 258.833007812 349.333984375 236.5 362.000976562 c 0
 214.166992188 374.66796875 188.666992188 379.334960938 160 376.001953125 c 0
 148 375.334960938 136 370.16796875 124 360.500976562 c 0
 112 350.833984375 105.666992188 342.666992188 105 336 c 0
 101.666992188 314 89.333984375 303 68.0009765625 303 c 0
 59.333984375 303 53.0009765625 306 49.0009765625 312 c 0
 45.0009765625 318 43.0009765625 324.666992188 43.0009765625 332 c 0
 43.0009765625 344.666992188 52.66796875 357.666992188 72.0009765625 371 c 0
 91.333984375 384.333007812 110.666992188 393.666015625 130 398.999023438 c 0
 146 404.33203125 167.333007812 407.33203125 194 407.999023438 c 0
 220.666992188 408.666015625 247.333984375 402.999023438 274.000976562 390.999023438 c 0
 296.66796875 377.666015625 312.66796875 364.999023438 322.000976562 352.999023438 c 0
 331.333984375 340.999023438 337.333984375 323.999023438 340.000976562 301.999023438 c 0
 344.000976562 279.33203125 335.16796875 258.999023438 313.500976562 240.999023438 c 0
 291.833984375 222.999023438 266.000976562 211.33203125 236.000976562 205.999023438 c 1
 314.000976562 192.666015625 354.000976562 154.999023438 356.000976562 92.9990234375 c 0
 357.333984375 63.666015625 345.166992188 39.4990234375 319.5 20.4990234375 c 0
 293.833007812 1.4990234375 260.333007812 -9.66796875 219 -13.0009765625 c 0
 177.666992188 -15.66796875 147.333984375 -13.66796875 128.000976562 -7.0009765625 c 0
 70.0009765625 11.666015625 40.0009765625 32.3330078125 38.0009765625 55 c 0
 36.66796875 61 38.16796875 67.8330078125 42.5009765625 75.5 c 0
 46.833984375 83.1669921875 53.0009765625 87 61.0009765625 87 c 0
 78.333984375 89 91.333984375 80 100.000976562 60 c 0
 101.333984375 52 107.666992188 44.8330078125 119 38.5 c 0
 130.333007812 32.1669921875 143.333007812 28 158 26 c 0
171.001953125 578 m 2
 252.000976562 541.999023438 l 2
 270.000976562 534.666015625 284.000976562 535.166015625 294.000976562 543.499023438 c 0
 304.000976562 551.83203125 315.66796875 567.999023438 329.000976562 591.999023438 c 0
 331.000976562 595.999023438 334.16796875 597.666015625 338.500976562 596.999023438 c 0
 342.833984375 596.33203125 345.333984375 593.33203125 346.000976562 587.999023438 c 0
 348.000976562 555.33203125 339.66796875 528.33203125 321.000976562 506.999023438 c 0
 309.66796875 494.33203125 295.66796875 486.999023438 279.000976562 484.999023438 c 0
 262.333984375 482.999023438 246.333984375 484.666015625 231.000976562 489.999023438 c 2
 152.000976562 522.999023438 l 2
 124.66796875 534.999023438 96.3349609375 518.666015625 67.001953125 473.999023438 c 0
 65.001953125 469.999023438 61.8349609375 468.999023438 57.501953125 470.999023438 c 0
 53.1689453125 472.999023438 50.6689453125 475.666015625 50.001953125 478.999023438 c 0
 47.3349609375 500.999023438 60.001953125 527.33203125 88.001953125 557.999023438 c 0
 96.001953125 568.666015625 108.168945312 576.333007812 124.501953125 581 c 0
 140.834960938 585.666992188 156.334960938 584.666992188 171.001953125 578 c 2
202.000976562 -223.000976562 m 0
 185.333984375 -223.000976562 172 -217.500976562 162 -206.500976562 c 0
 152 -195.500976562 147 -181.66796875 147 -165.000976562 c 0
 147 -147.000976562 152.5 -133.16796875 163.5 -123.500976562 c 0
 174.5 -113.833984375 188.333007812 -109.000976562 205 -109.000976562 c 0
 221.666992188 -109.000976562 235.333984375 -114.333984375 246.000976562 -125.000976562 c 0
 256.66796875 -135.66796875 262.000976562 -148.334960938 262.000976562 -163.001953125 c 0
 262.000976562 -180.334960938 256.000976562 -194.66796875 244.000976562 -206.000976562 c 0
 232.000976562 -217.333984375 218.000976562 -223.000976562 202.000976562 -223.000976562 c 0
EndSplineSet
EndChar

StartChar: five
Encoding: 53 53 23
Width: 501
GlyphClass: 2
Flags: W
LayerCount: 2
Fore
SplineSet
248 407 m 0
 285.333007812 407 319.500976562 398.333007812 350.500976562 381 c 0
 381.500976562 363.666992188 406.000976562 339.333984375 424.000976562 308.000976562 c 0
 442.000976562 276.66796875 451.000976562 241.000976562 451.000976562 201.000976562 c 0
 451.000976562 138.333984375 431.333984375 86.6669921875 392.000976562 46 c 0
 352.66796875 5.3330078125 302.000976562 -15 240.000976562 -15 c 0
 182.000976562 -15 133.333984375 4.3330078125 94.0009765625 43 c 0
 54.66796875 81.6669921875 35.0009765625 131 35.0009765625 191 c 0
 35.0009765625 233 44.5009765625 270.166992188 63.5009765625 302.5 c 0
 82.5009765625 334.833007812 108.16796875 360.333007812 140.500976562 379 c 0
 172.833984375 397.666992188 208.666992188 407 248 407 c 0
365.000976562 185 m 0
 365.000976562 214.333007812 360.66796875 244.000976562 352.000976562 274.000976562 c 0
 343.333984375 304.000976562 329.166992188 328.66796875 309.5 348.000976562 c 0
 289.833007812 367.333984375 265.333007812 377.000976562 236 377.000976562 c 0
 202 377.000976562 174.333007812 361.833984375 153 331.500976562 c 0
 131.666992188 301.16796875 121 259.000976562 121 205.000976562 c 0
 121 154.333984375 132.333007812 110.166992188 155 72.5 c 0
 177.666992188 34.8330078125 209.333984375 16 250.000976562 16 c 0
 290.66796875 16 320.000976562 32.6669921875 338.000976562 66 c 0
 356.000976562 99.3330078125 365.000976562 139 365.000976562 185 c 0
223.000976562 -61.9990234375 m 0
 247.000976562 -61.9990234375 268.502929688 -68.662109375 287.502929688 -81.9951171875 c 0
 306.502929688 -95.328125 316.3359375 -117.328125 317.002929688 -147.995117188 c 0
 317.669921875 -180.662109375 307.502929688 -208.829101562 286.502929688 -232.49609375 c 0
 265.502929688 -256.163085938 238.669921875 -273.330078125 206.002929688 -283.997070312 c 1
 196.002929688 -276.6640625 193.3359375 -268.997070312 198.002929688 -260.997070312 c 1
 247.3359375 -240.330078125 271.668945312 -211.997070312 271.001953125 -175.997070312 c 0
 270.334960938 -157.997070312 263.16796875 -144.830078125 249.500976562 -136.497070312 c 0
 235.833984375 -128.1640625 220.000976562 -126.331054688 202.000976562 -130.998046875 c 1
 184.000976562 -129.665039062 174.66796875 -120.665039062 174.000976562 -103.998046875 c 0
 174.000976562 -92.6650390625 177.66796875 -82.83203125 185.000976562 -74.4990234375 c 0
 192.333984375 -66.166015625 205.000976562 -61.9990234375 223.000976562 -61.9990234375 c 0
217.002929688 578.004882812 m 2
 298.001953125 542.00390625 l 2
 316.001953125 534.670898438 330.001953125 535.170898438 340.001953125 543.50390625 c 0
 350.001953125 551.836914062 361.668945312 568.00390625 375.001953125 592.00390625 c 0
 377.001953125 596.00390625 380.168945312 597.670898438 384.501953125 597.00390625 c 0
 388.834960938 596.336914062 391.334960938 593.336914062 392.001953125 588.00390625 c 0
 394.001953125 555.336914062 385.668945312 528.336914062 367.001953125 507.00390625 c 0
 355.668945312 494.336914062 341.668945312 487.00390625 325.001953125 485.00390625 c 0
 308.334960938 483.00390625 292.334960938 484.670898438 277.001953125 490.00390625 c 2
 198.001953125 523.00390625 l 2
 170.668945312 535.00390625 142.3359375 518.670898438 113.002929688 474.00390625 c 0
 111.002929688 470.00390625 107.8359375 469.00390625 103.502929688 471.00390625 c 0
 99.169921875 473.00390625 96.669921875 475.670898438 96.0029296875 479.00390625 c 0
 93.3359375 501.00390625 106.002929688 527.336914062 134.002929688 558.00390625 c 0
 142.002929688 568.670898438 154.169921875 576.337890625 170.502929688 581.004882812 c 0
 186.8359375 585.671875 202.3359375 584.671875 217.002929688 578.004882812 c 2
EndSplineSet
EndChar

StartChar: six
Encoding: 54 54 24
Width: 470
GlyphClass: 2
Flags: W
LayerCount: 2
Fore
SplineSet
224 578 m 2
 304.999023438 541.999023438 l 2
 322.999023438 534.666015625 336.999023438 535.166015625 346.999023438 543.499023438 c 0
 356.999023438 551.83203125 368.666015625 567.999023438 381.999023438 591.999023438 c 0
 383.999023438 595.999023438 387.166015625 597.666015625 391.499023438 596.999023438 c 0
 395.83203125 596.33203125 398.33203125 593.33203125 398.999023438 587.999023438 c 0
 400.999023438 555.33203125 392.666015625 528.33203125 373.999023438 506.999023438 c 0
 362.666015625 494.33203125 348.666015625 486.999023438 331.999023438 484.999023438 c 0
 315.33203125 482.999023438 299.33203125 484.666015625 283.999023438 489.999023438 c 2
 204.999023438 522.999023438 l 2
 177.666015625 534.999023438 149.333007812 518.666015625 120 473.999023438 c 0
 118 469.999023438 114.833007812 468.999023438 110.5 470.999023438 c 0
 106.166992188 472.999023438 103.666992188 475.666015625 103 478.999023438 c 0
 100.333007812 500.999023438 113 527.33203125 141 557.999023438 c 0
 149 568.666015625 161.166992188 576.333007812 177.5 581 c 0
 193.833007812 585.666992188 209.333007812 584.666992188 224 578 c 2
396.999023438 278.999023438 m 2
 396.998046875 111.001953125 l 2
 396.998046875 73.6689453125 398.831054688 50.3359375 402.498046875 41.0029296875 c 0
 406.165039062 31.669921875 416.998046875 26.0029296875 434.998046875 24.0029296875 c 2
 459.998046875 21.0029296875 l 2
 463.998046875 19.0029296875 465.665039062 15.0029296875 464.998046875 9.0029296875 c 0
 464.331054688 3.0029296875 461.998046875 -0.9970703125 457.998046875 -2.9970703125 c 0
 425.998046875 -0.9970703125 393.331054688 0.0029296875 359.998046875 0.0029296875 c 0
 331.998046875 0.0029296875 302.998046875 -0.9970703125 272.998046875 -2.9970703125 c 0
 268.998046875 -0.330078125 266.665039062 4.0029296875 265.998046875 10.0029296875 c 0
 265.331054688 16.0029296875 266.998046875 19.669921875 270.998046875 21.0029296875 c 2
 291.998046875 24.0029296875 l 2
 309.998046875 26.669921875 320.831054688 32.5029296875 324.498046875 41.5029296875 c 0
 328.165039062 50.5029296875 329.998046875 73.669921875 329.998046875 111.002929688 c 2
 329.998046875 173.002929688 l 2
 329.998046875 187.002929688 328.665039062 193.3359375 325.998046875 192.002929688 c 0
 305.331054688 177.3359375 287.998046875 167.168945312 273.998046875 161.501953125 c 0
 259.998046875 155.834960938 240.665039062 153.001953125 215.998046875 153.001953125 c 0
 117.998046875 153.001953125 68.998046875 195.001953125 68.998046875 279.001953125 c 0
 68.998046875 316.334960938 67.1650390625 339.501953125 63.498046875 348.501953125 c 0
 59.8310546875 357.501953125 48.998046875 363.334960938 30.998046875 366.001953125 c 2
 5.998046875 370.001953125 l 2
 1.998046875 372.668945312 0.3310546875 377.001953125 0.998046875 383.001953125 c 0
 1.6650390625 389.001953125 3.998046875 392.668945312 7.998046875 394.001953125 c 0
 41.998046875 392.001953125 74.6650390625 391.001953125 105.998046875 391.001953125 c 0
 135.998046875 391.001953125 164.998046875 392.001953125 192.998046875 394.001953125 c 0
 196.998046875 393.334960938 199.331054688 389.66796875 199.998046875 383.000976562 c 0
 200.665039062 376.333984375 198.998046875 372.000976562 194.998046875 370.000976562 c 2
 173.998046875 366.000976562 l 2
 155.998046875 363.333984375 145.165039062 357.500976562 141.498046875 348.500976562 c 0
 137.831054688 339.500976562 135.998046875 316.333984375 135.998046875 279.000976562 c 0
 135.998046875 245.66796875 143.665039062 222.16796875 158.998046875 208.500976562 c 0
 174.331054688 194.833984375 197.998046875 188.000976562 229.998046875 188.000976562 c 0
 262.665039062 188.000976562 288.998046875 196.333984375 308.998046875 213.000976562 c 0
 317.665039062 221.000976562 323.33203125 229.16796875 325.999023438 237.500976562 c 0
 328.666015625 245.833984375 329.999023438 259.666992188 329.999023438 279 c 0
 329.999023438 317 328.33203125 340.5 324.999023438 349.5 c 0
 321.666015625 358.5 312.666015625 364 297.999023438 366 c 2
 268.999023438 370 l 2
 264.999023438 372.666992188 263.33203125 377 263.999023438 383 c 0
 264.666015625 389 266.999023438 392.666992188 270.999023438 394 c 0
 302.999023438 392 332.666015625 391 359.999023438 391 c 0
 393.999023438 391 425.999023438 392 455.999023438 394 c 0
 459.999023438 393.333007812 462.33203125 389.666015625 462.999023438 382.999023438 c 0
 463.666015625 376.33203125 461.999023438 371.999023438 457.999023438 369.999023438 c 2
 434.999023438 365.999023438 l 2
 416.999023438 363.999023438 406.166015625 358.499023438 402.499023438 349.499023438 c 0
 398.83203125 340.499023438 396.999023438 316.999023438 396.999023438 278.999023438 c 2
EndSplineSet
EndChar

StartChar: seven
Encoding: 55 55 25
Width: 478
GlyphClass: 2
Flags: W
LayerCount: 2
Fore
SplineSet
239 -15 m 0
 176.333007812 -15 125.83203125 4.4990234375 87.4990234375 43.4990234375 c 0
 49.166015625 82.4990234375 29.9990234375 133.33203125 29.9990234375 195.999023438 c 0
 29.9990234375 252.666015625 49.33203125 301.666015625 87.9990234375 342.999023438 c 0
 126.666015625 384.33203125 172.333007812 405.665039062 225 406.998046875 c 0
 271 408.331054688 311.333007812 400.998046875 346 384.998046875 c 0
 395.333007812 355.665039062 420 321.33203125 420 281.999023438 c 0
 420 258.666015625 409.666992188 240.333007812 389 227 c 0
 368.333007812 213.666992188 342.333007812 205.333984375 311 202.000976562 c 1
 343 197.333984375 366.666992188 188.666992188 382 176 c 0
 397.333007812 163.333007812 406.5 150.333007812 409.5 137 c 0
 412.5 123.666992188 414 108.666992188 414 92 c 0
 414 72.6669921875 405.166992188 55 387.5 39 c 0
 369.833007812 23 347.833007812 10 321.5 0 c 0
 295.166992188 -10 267.666992188 -15 239 -15 c 0
247.999023438 22.9990234375 m 0
 273.33203125 22.9990234375 294.6640625 29.3349609375 311.997070312 42.001953125 c 0
 329.330078125 54.6689453125 337.997070312 72.001953125 337.997070312 94.001953125 c 0
 337.997070312 115.334960938 332.497070312 135.501953125 321.497070312 154.501953125 c 0
 310.497070312 173.501953125 298.330078125 183.334960938 284.997070312 184.001953125 c 0
 276.330078125 185.334960938 268.830078125 185.16796875 262.497070312 183.500976562 c 0
 256.1640625 181.833984375 246.331054688 181.000976562 232.998046875 181.000976562 c 0
 225.665039062 181.66796875 219.83203125 184.834960938 215.499023438 190.501953125 c 0
 211.166015625 196.168945312 209.999023438 202.501953125 211.999023438 209.501953125 c 0
 213.999023438 216.501953125 218.83203125 221.834960938 226.499023438 225.501953125 c 0
 234.166015625 229.168945312 245.666015625 229.001953125 260.999023438 225.001953125 c 0
 292.999023438 218.334960938 316.83203125 222.16796875 332.499023438 236.500976562 c 0
 348.166015625 250.833984375 353.999023438 270.000976562 349.999023438 294.000976562 c 0
 345.999023438 321.333984375 333.499023438 341.833984375 312.499023438 355.500976562 c 0
 291.499023438 369.16796875 267.666015625 376.66796875 240.999023438 378.000976562 c 0
 214.33203125 377.333984375 190.499023438 368.666992188 169.499023438 352 c 0
 148.499023438 335.333007812 132.499023438 313.166015625 121.499023438 285.499023438 c 0
 110.499023438 257.83203125 104.999023438 228.999023438 104.999023438 198.999023438 c 0
 104.999023438 150.999023438 118.166015625 109.666015625 144.499023438 74.9990234375 c 0
 170.83203125 40.33203125 205.33203125 22.9990234375 247.999023438 22.9990234375 c 0
138.998046875 -193.998046875 m 0
 125.665039062 -193.998046875 114.498046875 -190.166015625 105.498046875 -182.499023438 c 0
 96.498046875 -174.83203125 91.998046875 -163.665039062 91.998046875 -148.998046875 c 0
 91.3310546875 -134.998046875 95.498046875 -123.498046875 104.498046875 -114.498046875 c 0
 113.498046875 -105.498046875 124.998046875 -100.998046875 138.998046875 -100.998046875 c 0
 152.998046875 -100.998046875 164.165039062 -105.498046875 172.498046875 -114.498046875 c 0
 180.831054688 -123.498046875 184.998046875 -133.998046875 184.998046875 -145.998046875 c 0
 184.998046875 -159.998046875 180.831054688 -171.498046875 172.498046875 -180.498046875 c 0
 164.165039062 -189.498046875 152.998046875 -193.998046875 138.998046875 -193.998046875 c 0
326.998046875 -193.999023438 m 0
 313.665039062 -193.999023438 302.331054688 -190.165039062 292.998046875 -182.498046875 c 0
 283.665039062 -174.831054688 278.998046875 -163.6640625 278.998046875 -148.997070312 c 0
 278.998046875 -134.997070312 283.498046875 -123.497070312 292.498046875 -114.497070312 c 0
 301.498046875 -105.497070312 312.998046875 -100.997070312 326.998046875 -100.997070312 c 0
 340.998046875 -100.997070312 351.998046875 -105.330078125 359.998046875 -113.997070312 c 0
 367.998046875 -122.6640625 371.998046875 -133.331054688 371.998046875 -145.998046875 c 0
 371.998046875 -160.665039062 367.998046875 -172.33203125 359.998046875 -180.999023438 c 0
 351.998046875 -189.666015625 340.998046875 -193.999023438 326.998046875 -193.999023438 c 0
EndSplineSet
EndChar

StartChar: eight
Encoding: 56 56 26
Width: 540
GlyphClass: 2
Flags: W
LayerCount: 2
Fore
SplineSet
254 666 m 0
 278.666992188 666 299.330078125 657.668945312 315.997070312 641.001953125 c 0
 332.6640625 624.334960938 340.997070312 603.66796875 340.997070312 579.000976562 c 0
 340.997070312 553.66796875 332.330078125 532.66796875 314.997070312 516.000976562 c 0
 297.6640625 499.333984375 277.331054688 491.000976562 253.998046875 491.000976562 c 0
 230.665039062 491.000976562 210.33203125 499.66796875 192.999023438 517.000976562 c 0
 175.666015625 534.333984375 166.999023438 555.000976562 166.999023438 579.000976562 c 0
 166.999023438 602.333984375 175.33203125 622.666992188 191.999023438 640 c 0
 208.666015625 657.333007812 229.333007812 666 254 666 c 0
253.99609375 637.001953125 m 0
 237.329101562 637.001953125 223.329101562 631.334960938 211.99609375 620.001953125 c 0
 200.663085938 608.668945312 194.99609375 595.001953125 194.99609375 579.001953125 c 0
 194.99609375 563.668945312 200.99609375 550.001953125 212.99609375 538.001953125 c 0
 224.99609375 526.001953125 238.663085938 520.001953125 253.99609375 520.001953125 c 0
 269.329101562 520.001953125 282.99609375 525.668945312 294.99609375 537.001953125 c 0
 306.99609375 548.334960938 312.99609375 562.334960938 312.99609375 579.001953125 c 0
 312.99609375 596.334960938 307.329101562 610.334960938 295.99609375 621.001953125 c 0
 284.663085938 631.668945312 270.663085938 637.001953125 253.99609375 637.001953125 c 0
145.99609375 0.001953125 m 1
 134.997070312 -0.005859375 l 2
 102.997070312 -0.005859375 68.9970703125 -1.005859375 32.9970703125 -3.005859375 c 0
 28.9970703125 -0.3388671875 26.6640625 3.828125 25.9970703125 9.4951171875 c 0
 25.330078125 15.162109375 26.9970703125 19.3291015625 30.9970703125 21.99609375 c 2
 59.9970703125 24.99609375 l 2
 77.9970703125 26.99609375 88.830078125 32.49609375 92.4970703125 41.49609375 c 0
 96.1640625 50.49609375 97.9970703125 73.6630859375 97.9970703125 110.99609375 c 2
 97.9970703125 286.99609375 l 2
 97.9970703125 312.99609375 95.6640625 329.329101562 90.9970703125 335.99609375 c 0
 86.330078125 342.663085938 72.9970703125 348.663085938 50.9970703125 353.99609375 c 2
 41.9970703125 355.99609375 l 2
 39.9970703125 357.99609375 38.9970703125 360.829101562 38.9970703125 364.49609375 c 0
 38.9970703125 368.163085938 40.330078125 370.663085938 42.9970703125 371.99609375 c 0
 96.9970703125 380.663085938 137.330078125 400.330078125 163.997070312 430.997070312 c 1
 169.330078125 429.6640625 171.997070312 427.331054688 171.997070312 423.998046875 c 2
 171.997070312 366.998046875 l 2
 171.997070312 359.665039062 175.6640625 355.998046875 182.997070312 355.998046875 c 0
 209.6640625 372.665039062 233.6640625 385.33203125 254.997070312 393.999023438 c 0
 276.330078125 402.666015625 298.997070312 406.999023438 322.997070312 406.999023438 c 0
 362.330078125 406.999023438 391.663085938 395.666015625 410.99609375 372.999023438 c 0
 430.329101562 350.33203125 439.99609375 320.665039062 439.99609375 283.998046875 c 2
 439.99609375 110.998046875 l 2
 439.99609375 74.998046875 441.99609375 52.1650390625 445.99609375 42.498046875 c 0
 449.99609375 32.8310546875 460.663085938 26.998046875 477.99609375 24.998046875 c 2
 507.99609375 21.998046875 l 2
 511.99609375 19.998046875 513.663085938 15.8310546875 512.99609375 9.498046875 c 0
 512.329101562 3.1650390625 509.99609375 -1.001953125 505.99609375 -3.001953125 c 0
 467.99609375 -1.001953125 433.99609375 -0.001953125 403.99609375 -0.001953125 c 0
 371.99609375 -0.001953125 338.329101562 -1.001953125 302.99609375 -3.001953125 c 0
 298.99609375 -0.3349609375 296.663085938 3.83203125 295.99609375 9.4990234375 c 0
 295.329101562 15.166015625 296.99609375 19.3330078125 300.99609375 22 c 2
 319.99609375 25 l 2
 341.99609375 27.6669921875 355.163085938 33.333984375 359.49609375 42.0009765625 c 0
 363.829101562 50.66796875 365.99609375 73.66796875 365.99609375 111.000976562 c 2
 365.99609375 260.000976562 l 2
 365.99609375 326.000976562 334.663085938 359.000976562 271.99609375 359.000976562 c 0
 232.663085938 359.000976562 204.330078125 347.333984375 186.997070312 324.000976562 c 0
 176.997070312 312.000976562 171.997070312 292.333984375 171.997070312 265.000976562 c 2
 171.997070312 111.000976562 l 2
 171.997070312 84.333984375 172.6640625 65.833984375 173.997070312 55.5009765625 c 0
 175.330078125 45.16796875 178.497070312 38.0009765625 183.497070312 34.0009765625 c 0
 188.497070312 30.0009765625 197.330078125 27.0009765625 209.997070312 25.0009765625 c 2
 235.997070312 22.0009765625 l 2
 239.997070312 20.0009765625 241.6640625 15.833984375 240.997070312 9.5009765625 c 0
 240.330078125 3.16796875 237.997070312 -0.9990234375 233.997070312 -2.9990234375 c 0
 208.6640625 -1.666015625 190.997070312 -0.9990234375 180.997070312 -0.9990234375 c 1
 153.997070312 -37.9990234375 l 2
 148.6640625 -47.33203125 151.6640625 -54.9990234375 162.997070312 -60.9990234375 c 0
 193.6640625 -82.33203125 208.997070312 -105.999023438 208.997070312 -131.999023438 c 0
 208.997070312 -157.33203125 198.497070312 -178.33203125 177.497070312 -194.999023438 c 0
 156.497070312 -211.666015625 132.330078125 -219.999023438 104.997070312 -219.999023438 c 0
 66.330078125 -219.999023438 46.9970703125 -208.666015625 46.9970703125 -185.999023438 c 0
 46.9970703125 -179.33203125 49.330078125 -173.33203125 53.9970703125 -167.999023438 c 0
 58.6640625 -162.666015625 64.6640625 -159.999023438 71.9970703125 -159.999023438 c 0
 79.9970703125 -159.999023438 89.830078125 -164.83203125 101.497070312 -174.499023438 c 0
 113.1640625 -184.166015625 120.997070312 -188.999023438 124.997070312 -188.999023438 c 0
 142.997070312 -188.999023438 151.997070312 -178.666015625 151.997070312 -157.999023438 c 0
 151.997070312 -144.666015625 145.6640625 -131.666015625 132.997070312 -118.999023438 c 0
 120.330078125 -106.33203125 105.663085938 -96.6650390625 88.99609375 -89.998046875 c 1
 88.99609375 -84.998046875 l 1
 145.99609375 0.001953125 l 1
EndSplineSet
EndChar

StartChar: nine
Encoding: 57 57 27
Width: 300
GlyphClass: 2
Flags: W
LayerCount: 2
Fore
SplineSet
141 -97 m 0
 165.666992188 -97 186.330078125 -105.000976562 202.997070312 -121.000976562 c 0
 219.6640625 -137.000976562 227.997070312 -158.000976562 227.997070312 -184.000976562 c 0
 227.997070312 -208.000976562 219.330078125 -228.333984375 201.997070312 -245.000976562 c 0
 184.6640625 -261.66796875 164.331054688 -270.000976562 140.998046875 -270.000976562 c 0
 117.665039062 -270.000976562 97.33203125 -261.333984375 79.9990234375 -244.000976562 c 0
 62.666015625 -226.66796875 53.9990234375 -206.66796875 53.9990234375 -184.000976562 c 0
 53.9990234375 -159.333984375 62.33203125 -138.666992188 78.9990234375 -122 c 0
 95.666015625 -105.333007812 116.333007812 -97 141 -97 c 0
140.99609375 -125.000976562 m 0
 124.329101562 -125.000976562 110.329101562 -130.66796875 98.99609375 -142.000976562 c 0
 87.6630859375 -153.333984375 81.99609375 -167.333984375 81.99609375 -184.000976562 c 0
 81.99609375 -199.333984375 87.99609375 -213.000976562 99.99609375 -225.000976562 c 0
 111.99609375 -237.000976562 125.663085938 -243.000976562 140.99609375 -243.000976562 c 0
 156.329101562 -243.000976562 169.99609375 -237.333984375 181.99609375 -226.000976562 c 0
 193.99609375 -214.66796875 199.99609375 -200.66796875 199.99609375 -184.000976562 c 0
 199.99609375 -166.000976562 194.329101562 -151.66796875 182.99609375 -141.000976562 c 0
 171.663085938 -130.333984375 157.663085938 -125.000976562 140.99609375 -125.000976562 c 0
103.99609375 599.999023438 m 2
 103.99609375 620.666015625 99.6640625 633.33203125 90.9970703125 637.999023438 c 0
 82.330078125 642.666015625 66.6630859375 645.666015625 43.99609375 646.999023438 c 2
 25.99609375 648.999023438 l 2
 23.99609375 652.33203125 22.99609375 656.165039062 22.99609375 660.498046875 c 0
 22.99609375 664.831054688 24.3291015625 667.6640625 26.99609375 668.997070312 c 0
 74.3291015625 685.6640625 120.329101562 705.997070312 164.99609375 729.997070312 c 1
 178.99609375 727.330078125 185.99609375 724.330078125 185.99609375 720.997070312 c 2
 177.99609375 623.997070312 l 1
 177.99609375 354.997070312 l 1
 274.99609375 439.997070312 l 1
 290.329101562 435.997070312 296.329101562 426.6640625 292.99609375 411.997070312 c 1
 177.99609375 310.997070312 l 1
 177.99609375 110.997070312 l 2
 177.99609375 74.9970703125 179.99609375 52.1640625 183.99609375 42.4970703125 c 0
 187.99609375 32.830078125 198.663085938 26.9970703125 215.99609375 24.9970703125 c 2
 247.99609375 21.9970703125 l 2
 251.99609375 19.9970703125 253.663085938 15.830078125 252.99609375 9.4970703125 c 0
 252.329101562 3.1640625 249.99609375 -1.0029296875 245.99609375 -3.0029296875 c 0
 205.329101562 -1.0029296875 170.329101562 -0.0029296875 140.99609375 -0.0029296875 c 0
 109.663085938 -0.0029296875 74.99609375 -1.0029296875 36.99609375 -3.0029296875 c 0
 32.99609375 -0.3359375 30.6630859375 3.8310546875 29.99609375 9.498046875 c 0
 29.3291015625 15.1650390625 30.99609375 19.33203125 34.99609375 21.9990234375 c 2
 65.99609375 24.9990234375 l 2
 83.99609375 26.9990234375 94.8291015625 32.4990234375 98.49609375 41.4990234375 c 0
 102.163085938 50.4990234375 103.99609375 73.666015625 103.99609375 110.999023438 c 2
 103.99609375 262.999023438 l 1
 20.99609375 190.999023438 l 1
 6.99609375 194.33203125 1.6630859375 204.33203125 4.99609375 220.999023438 c 1
 103.99609375 305.999023438 l 1
 103.99609375 599.999023438 l 2
EndSplineSet
EndChar

StartChar: colon
Encoding: 58 58 28
Width: 180
GlyphClass: 2
Flags: W
LayerCount: 2
Fore
SplineSet
89 252 m 1
 2 393 l 1
 173 393 l 1
 89 252 l 1
89 140 m 1
 173 -1 l 1
 2 -1 l 1
 89 140 l 1
EndSplineSet
EndChar

StartChar: semicolon
Encoding: 59 59 29
Width: 180
GlyphClass: 2
Flags: W
LayerCount: 2
Fore
SplineSet
88 251 m 1
 1 393 l 1
 172 393 l 1
 88 251 l 1
EndSplineSet
EndChar

StartChar: less
Encoding: 60 60 30
Width: 615
GlyphClass: 2
Flags: W
LayerCount: 2
Fore
SplineSet
384 601 m 2
 384 621.666992188 379.66796875 634.331054688 371.000976562 638.998046875 c 0
 362.333984375 643.665039062 346.666992188 646.665039062 324 647.998046875 c 2
 306 648.998046875 l 2
 304 652.331054688 303 656.1640625 303 660.497070312 c 0
 303 664.830078125 304.333007812 667.663085938 307 668.99609375 c 0
 354.333007812 685.663085938 400.333007812 705.99609375 445 729.99609375 c 1
 459 727.329101562 466 724.329101562 466 720.99609375 c 2
 458 623.99609375 l 1
 458 259.99609375 l 1
 464 262.663085938 473 265.99609375 485 269.99609375 c 1
 485 269.99609375 l 1
 505 279.329101562 520.333007812 288.829101562 531 298.49609375 c 0
 541.666992188 308.163085938 549.666992188 315.330078125 555 319.997070312 c 0
 561.666992188 325.997070312 569.5 327.997070312 578.5 325.997070312 c 0
 587.5 323.997070312 590.666992188 318.6640625 588 309.997070312 c 0
 583.333007812 297.330078125 571 283.663085938 551 268.99609375 c 0
 531 254.329101562 507.333007812 240.99609375 480 228.99609375 c 0
 477.333007812 228.99609375 474 228.329101562 470 226.99609375 c 2
 458 222.99609375 l 1
 458 110.99609375 l 2
 458 74.99609375 460 52.1630859375 464 42.49609375 c 0
 468 32.8291015625 478.666992188 26.99609375 496 24.99609375 c 2
 528 21.99609375 l 2
 532 19.99609375 533.666992188 15.8291015625 533 9.49609375 c 0
 532.333007812 3.1630859375 530 -1.00390625 526 -3.00390625 c 0
 509.333007812 -2.3369140625 487.666015625 -1.3369140625 460.999023438 -0.00390625 c 1
 441.999023438 -38.00390625 l 2
 436.666015625 -47.3369140625 439.666015625 -55.00390625 450.999023438 -61.00390625 c 0
 481.666015625 -82.3369140625 496.999023438 -106.00390625 496.999023438 -132.00390625 c 0
 496.999023438 -157.336914062 486.499023438 -178.336914062 465.499023438 -195.00390625 c 0
 444.499023438 -211.670898438 420.33203125 -220.00390625 392.999023438 -220.00390625 c 0
 354.33203125 -220.00390625 334.999023438 -208.670898438 334.999023438 -186.00390625 c 0
 334.999023438 -179.336914062 337.33203125 -173.336914062 341.999023438 -168.00390625 c 0
 346.666015625 -162.670898438 352.666015625 -160.00390625 359.999023438 -160.00390625 c 0
 367.999023438 -160.00390625 377.83203125 -164.836914062 389.499023438 -174.50390625 c 0
 401.166015625 -184.170898438 408.999023438 -189.00390625 412.999023438 -189.00390625 c 0
 430.999023438 -189.00390625 439.999023438 -178.670898438 439.999023438 -158.00390625 c 0
 439.999023438 -144.670898438 433.666015625 -131.670898438 420.999023438 -119.00390625 c 0
 408.33203125 -106.336914062 393.665039062 -96.669921875 376.998046875 -90.0029296875 c 1
 376.998046875 -85.0029296875 l 1
 420.998046875 -0.0029296875 l 1
 389.665039062 -0.0029296875 354.998046875 -1.0029296875 316.998046875 -3.0029296875 c 0
 312.998046875 -0.3359375 310.665039062 3.8310546875 309.998046875 9.498046875 c 0
 309.331054688 15.1650390625 310.998046875 19.33203125 314.998046875 21.9990234375 c 2
 345.998046875 24.9990234375 l 2
 363.998046875 26.9990234375 374.831054688 32.4990234375 378.498046875 41.4990234375 c 0
 382.165039062 50.4990234375 383.998046875 73.666015625 383.998046875 110.999023438 c 2
 383.998046875 217.999023438 l 1
 378.665039062 218.666015625 368.33203125 220.999023438 352.999023438 224.999023438 c 0
 320.33203125 233.666015625 294.665039062 249.833007812 275.998046875 273.5 c 0
 257.331054688 297.166992188 250.998046875 321.333984375 256.998046875 346.000976562 c 0
 256.998046875 348.000976562 257.665039062 349.66796875 258.998046875 351.000976562 c 1
 178.998046875 351.000976562 l 2
 170.331054688 351.000976562 165.1640625 349.833984375 163.497070312 347.500976562 c 0
 161.830078125 345.16796875 160.997070312 338.66796875 160.997070312 328.000976562 c 2
 160.997070312 141.000976562 l 2
 160.997070312 52.333984375 185.330078125 15.0009765625 233.997070312 29.0009765625 c 0
 235.997070312 29.66796875 241.330078125 33.16796875 249.997070312 39.5009765625 c 0
 258.6640625 45.833984375 263.331054688 49.0009765625 263.998046875 49.0009765625 c 0
 267.331054688 49.0009765625 270.1640625 46.833984375 272.497070312 42.5009765625 c 0
 274.830078125 38.16796875 275.663085938 34.3349609375 274.99609375 31.001953125 c 0
 264.329101562 0.3349609375 236.329101562 -14.998046875 190.99609375 -14.998046875 c 0
 121.663085938 -14.998046875 86.99609375 25.3349609375 86.99609375 106.001953125 c 2
 86.99609375 322.001953125 l 2
 86.99609375 336.001953125 85.99609375 344.334960938 83.99609375 347.001953125 c 0
 81.99609375 349.668945312 75.99609375 351.001953125 65.99609375 351.001953125 c 2
 37.99609375 351.001953125 l 2
 34.6630859375 353.001953125 32.830078125 356.168945312 32.4970703125 360.501953125 c 0
 32.1640625 364.834960938 32.9970703125 368.66796875 34.9970703125 372.000976562 c 0
 64.9970703125 381.333984375 86.330078125 391.666992188 98.9970703125 403 c 0
 119.6640625 421.666992188 133.6640625 462.666992188 140.997070312 526 c 1
 150.997070312 530 157.997070312 528.333007812 161.997070312 521 c 1
 161.997070312 412 l 2
 161.997070312 402.666992188 162.830078125 397.166992188 164.497070312 395.5 c 0
 166.1640625 393.833007812 171.331054688 393 179.998046875 393 c 2
 294.998046875 393 l 1
 311.665039062 403 334.33203125 407.333007812 362.999023438 406 c 2
 369.999023438 406 l 2
 376.666015625 406 381.333007812 405.666992188 384 405 c 1
 384 601 l 2
384.000976562 366.997070312 m 2
 382.66796875 368.330078125 380.333007812 368.998046875 377 368.998046875 c 0
 332.333007812 371.665039062 308 359.665039062 304 332.998046875 c 0
 302.666992188 322.998046875 304.333984375 313.665039062 309.000976562 304.998046875 c 0
 315.000976562 286.331054688 330.000976562 272.998046875 354.000976562 264.998046875 c 0
 360.000976562 262.331054688 370.000976562 259.6640625 384.000976562 256.997070312 c 1
 384.000976562 366.997070312 l 2
EndSplineSet
EndChar

StartChar: equal
Encoding: 61 61 31
Width: 652
GlyphClass: 2
Flags: W
LayerCount: 2
Fore
SplineSet
538 107 m 1
 537.997070312 -147.994140625 l 2
 537.997070312 -171.994140625 539.997070312 -187.494140625 543.997070312 -194.494140625 c 0
 547.997070312 -201.494140625 561.6640625 -208.327148438 584.997070312 -214.994140625 c 2
 593.997070312 -216.994140625 l 2
 595.997070312 -218.994140625 596.997070312 -221.994140625 596.997070312 -225.994140625 c 0
 596.997070312 -229.994140625 595.6640625 -232.327148438 592.997070312 -232.994140625 c 0
 538.997070312 -241.661132812 498.6640625 -261.328125 471.997070312 -291.995117188 c 1
 464.6640625 -290.662109375 460.997070312 -288.329101562 460.997070312 -284.99609375 c 2
 463.997070312 -216.99609375 l 1
 463.997070312 -30.99609375 l 1
 463.997070312 26.00390625 l 2
 463.997070312 33.3369140625 460.6640625 37.00390625 453.997070312 37.00390625 c 1
 436.6640625 2.3369140625 409.6640625 -14.99609375 372.997070312 -14.99609375 c 0
 342.330078125 -14.99609375 318.663085938 3.6708984375 301.99609375 41.00390625 c 0
 299.329101562 44.3369140625 296.662109375 44.3369140625 293.995117188 41.00390625 c 0
 259.995117188 3.6708984375 225.662109375 -14.99609375 190.995117188 -14.99609375 c 0
 156.328125 -14.99609375 129.828125 -3.1630859375 111.495117188 20.50390625 c 0
 93.162109375 44.1708984375 83.9951171875 73.6708984375 83.9951171875 109.00390625 c 2
 83.9951171875 281.00390625 l 2
 83.9951171875 319.00390625 82.328125 342.336914062 78.9951171875 351.00390625 c 0
 75.662109375 359.670898438 65.9951171875 365.670898438 49.9951171875 369.00390625 c 2
 11.9951171875 371.00390625 l 2
 8.662109375 374.336914062 7.3291015625 379.00390625 7.99609375 385.00390625 c 0
 8.6630859375 391.00390625 10.6630859375 394.670898438 13.99609375 396.00390625 c 0
 59.99609375 394.00390625 94.3291015625 393.00390625 116.99609375 393.00390625 c 0
 146.329101562 393.00390625 181.329101562 394.00390625 221.99609375 396.00390625 c 0
 224.663085938 395.336914062 226.330078125 391.669921875 226.997070312 385.002929688 c 0
 227.6640625 378.3359375 226.6640625 373.668945312 223.997070312 371.001953125 c 2
 191.997070312 369.001953125 l 2
 175.997070312 366.334960938 166.330078125 360.334960938 162.997070312 351.001953125 c 0
 159.6640625 341.668945312 157.997070312 318.3359375 157.997070312 281.002929688 c 2
 157.997070312 137.002929688 l 2
 156.6640625 68.3359375 177.6640625 34.0029296875 220.997070312 34.0029296875 c 0
 248.997070312 34.0029296875 268.997070312 45.669921875 280.997070312 69.0029296875 c 0
 288.997070312 82.3359375 292.997070312 105.002929688 292.997070312 137.002929688 c 0
 290.997070312 150.3359375 293.330078125 160.002929688 299.997070312 166.002929688 c 0
 306.6640625 172.002929688 313.331054688 172.669921875 319.998046875 168.002929688 c 0
 326.665039062 163.3359375 329.998046875 153.3359375 329.998046875 138.002929688 c 0
 329.998046875 68.669921875 352.331054688 34.0029296875 396.998046875 34.0029296875 c 0
 418.998046875 34.0029296875 436.998046875 45.669921875 450.998046875 69.0029296875 c 0
 459.665039062 81.669921875 463.998046875 101.002929688 463.998046875 127.002929688 c 2
 463.998046875 281.002929688 l 2
 463.998046875 318.3359375 462.331054688 341.668945312 458.998046875 351.001953125 c 0
 455.665039062 360.334960938 445.998046875 366.334960938 429.998046875 369.001953125 c 2
 397.998046875 371.001953125 l 2
 394.665039062 374.334960938 393.33203125 379.001953125 393.999023438 385.001953125 c 0
 394.666015625 391.001953125 396.666015625 394.668945312 399.999023438 396.001953125 c 0
 439.999023438 394.001953125 474.999023438 393.001953125 504.999023438 393.001953125 c 0
 529.666015625 393.001953125 563.999023438 394.001953125 607.999023438 396.001953125 c 0
 610.666015625 395.334960938 612.333007812 391.66796875 613 385.000976562 c 0
 613.666992188 378.333984375 612.666992188 373.666992188 610 371 c 2
 572 369 l 2
 556 365.666992188 546.333007812 359.666992188 543 351 c 0
 539.666992188 342.333007812 538 319 538 281 c 2
 538 107 l 1
EndSplineSet
EndChar

StartChar: greater
Encoding: 62 62 32
Width: 813
GlyphClass: 2
Flags: W
LayerCount: 2
Fore
SplineSet
350 600 m 2
 350 620.666992188 345.666992188 633.330078125 337 637.997070312 c 0
 328.333007812 642.6640625 312 645.6640625 288 646.997070312 c 2
 270 648.997070312 l 2
 268 652.330078125 267 656.163085938 267 660.49609375 c 0
 267 664.829101562 268.333007812 667.662109375 271 668.995117188 c 0
 316.333007812 684.328125 363 704.661132812 411 729.994140625 c 1
 425 727.327148438 432 724.327148438 432 720.994140625 c 2
 424 645.994140625 l 1
 424 145.994140625 l 2
 424 99.994140625 425.666992188 68.994140625 429 52.994140625 c 0
 432.333007812 36.994140625 440.333007812 28.994140625 453 28.994140625 c 0
 469.666992188 28.3271484375 490.333984375 27.994140625 515.000976562 27.994140625 c 0
 539.66796875 27.994140625 562.000976562 33.994140625 582.000976562 45.994140625 c 1
 588.66796875 54.6611328125 592.000976562 76.328125 592.000976562 110.995117188 c 2
 592.000976562 223.995117188 l 1
 581.333984375 226.662109375 574.000976562 228.329101562 570.000976562 228.99609375 c 0
 546.66796875 240.99609375 529.66796875 253.163085938 519.000976562 265.49609375 c 0
 508.333984375 277.829101562 501.333984375 291.329101562 498.000976562 305.99609375 c 0
 496.000976562 313.99609375 500.16796875 319.329101562 510.500976562 321.99609375 c 0
 520.833984375 324.663085938 527.000976562 322.330078125 529.000976562 314.997070312 c 0
 533.000976562 304.997070312 538.66796875 295.997070312 546.000976562 287.997070312 c 0
 553.333984375 279.997070312 559.666992188 273.997070312 565 269.997070312 c 1
 565 269.997070312 l 1
 569.666992188 268.6640625 574.166992188 267.331054688 578.5 265.998046875 c 0
 582.833007812 264.665039062 587.333007812 262.665039062 592 259.998046875 c 1
 592 600.998046875 l 2
 592 621.665039062 587.666992188 634.33203125 579 638.999023438 c 0
 570.333007812 643.666015625 554.666015625 646.666015625 531.999023438 647.999023438 c 2
 513.999023438 648.999023438 l 2
 511.999023438 652.33203125 510.999023438 656.165039062 510.999023438 660.498046875 c 0
 510.999023438 664.831054688 512.33203125 667.6640625 514.999023438 668.997070312 c 0
 562.33203125 685.6640625 608.33203125 705.997070312 652.999023438 729.997070312 c 1
 666.999023438 727.330078125 673.999023438 724.330078125 673.999023438 720.997070312 c 2
 665.999023438 623.997070312 l 1
 665.999023438 404.997070312 l 1
 669.33203125 405.6640625 673.999023438 405.997070312 679.999023438 405.997070312 c 2
 686.999023438 405.997070312 l 2
 718.33203125 407.330078125 742.999023438 401.997070312 760.999023438 389.997070312 c 0
 777.666015625 378.6640625 788.333007812 363.997070312 793 345.997070312 c 0
 799.666992188 322.6640625 793.5 298.831054688 774.5 274.498046875 c 0
 755.5 250.165039062 729.666992188 233.665039062 697 224.998046875 c 0
 681.666992188 220.998046875 671.333984375 218.665039062 666.000976562 217.998046875 c 1
 666.000976562 110.998046875 l 2
 666.000976562 74.998046875 668.000976562 52.1650390625 672.000976562 42.498046875 c 0
 676.000976562 32.8310546875 686.66796875 26.998046875 704.000976562 24.998046875 c 2
 736.000976562 21.998046875 l 2
 740.000976562 19.998046875 741.66796875 15.8310546875 741.000976562 9.498046875 c 0
 740.333984375 3.1650390625 738.000976562 -1.001953125 734.000976562 -3.001953125 c 0
 699.333984375 -1.001953125 668.000976562 -0.001953125 640.000976562 -0.001953125 c 1
 621.000976562 -38.001953125 l 2
 615.66796875 -47.3349609375 618.66796875 -55.001953125 630.000976562 -61.001953125 c 0
 660.66796875 -82.3349609375 676.000976562 -106.001953125 676.000976562 -132.001953125 c 0
 676.000976562 -157.334960938 665.500976562 -178.334960938 644.500976562 -195.001953125 c 0
 623.500976562 -211.668945312 599.333984375 -220.001953125 572.000976562 -220.001953125 c 0
 533.333984375 -220.001953125 514.000976562 -208.668945312 514.000976562 -186.001953125 c 0
 514.000976562 -179.334960938 516.333984375 -173.334960938 521.000976562 -168.001953125 c 0
 525.66796875 -162.668945312 531.66796875 -160.001953125 539.000976562 -160.001953125 c 0
 547.000976562 -160.001953125 556.833984375 -164.834960938 568.500976562 -174.501953125 c 0
 580.16796875 -184.168945312 588.000976562 -189.001953125 592.000976562 -189.001953125 c 0
 610.000976562 -189.001953125 619.000976562 -178.668945312 619.000976562 -158.001953125 c 0
 619.000976562 -144.668945312 612.66796875 -131.668945312 600.000976562 -119.001953125 c 0
 587.333984375 -106.334960938 572.666992188 -96.66796875 556 -90.0009765625 c 1
 556 -85.0009765625 l 1
 599 -0.0009765625 l 1
 473 -4.0009765625 394.333007812 -12.0009765625 363 -24.0009765625 c 0
 355.666992188 -24.0009765625 352 -21.333984375 352 -16.0009765625 c 2
 352 0.9990234375 l 2
 352 18.9990234375 351.333007812 28.9990234375 350 30.9990234375 c 2
 346 30.9990234375 l 1
 318.666992188 13.666015625 296.666992188 1.666015625 280 -5.0009765625 c 0
 263.333007812 -11.66796875 243.333007812 -15.0009765625 220 -15.0009765625 c 0
 165.333007812 -15.0009765625 120.833007812 3.83203125 86.5 41.4990234375 c 0
 52.1669921875 79.166015625 35 124.333007812 35 177 c 0
 35 245.666992188 58 301.166992188 104 343.5 c 0
 150 385.833007812 207.666992188 407 277 407 c 0
 305 407 327.333007812 404 344 398 c 0
 348 398 350 402.666992188 350 412 c 2
 350 600 l 2
666 256.99609375 m 1
 680 259.663085938 689.999023438 262.329101562 695.999023438 264.99609375 c 0
 719.999023438 272.99609375 734.999023438 286.329101562 740.999023438 304.99609375 c 0
 745.666015625 313.663085938 747.333007812 322.99609375 746 332.99609375 c 0
 742 359.663085938 717.666992188 371.663085938 673 368.99609375 c 0
 671.666992188 368.99609375 670.5 368.829101562 669.5 368.49609375 c 0
 668.5 368.163085938 667.333007812 367.663085938 666 366.99609375 c 2
 666 256.99609375 l 1
351.999023438 98.9951171875 m 2
 351.997070312 294.995117188 l 2
 351.997070312 308.328125 347.6640625 321.328125 338.997070312 333.995117188 c 0
 318.997070312 361.995117188 290.997070312 375.995117188 254.997070312 375.995117188 c 0
 211.6640625 375.995117188 177.831054688 359.828125 153.498046875 327.495117188 c 0
 129.165039062 295.162109375 116.998046875 255.995117188 116.998046875 209.995117188 c 0
 116.998046875 161.995117188 130.331054688 120.662109375 156.998046875 85.9951171875 c 0
 183.665039062 51.328125 219.998046875 33.9951171875 265.998046875 33.9951171875 c 0
 298.665039062 33.9951171875 324.33203125 43.328125 342.999023438 61.9951171875 c 0
 348.999023438 67.9951171875 351.999023438 80.328125 351.999023438 98.9951171875 c 2
EndSplineSet
EndChar

StartChar: question
Encoding: 63 63 33
Width: 475
GlyphClass: 2
Flags: W
LayerCount: 2
Fore
SplineSet
331 -160 m 2
 331.004882812 160 l 2
 331.004882812 168.666992188 320.004882812 173 298.004882812 173 c 0
 278.671875 173 265.671875 168.666992188 259.004882812 160 c 0
 219.004882812 100 195.671875 66 189.004882812 58 c 0
 167.671875 32.6669921875 146.504882812 14.833984375 125.504882812 4.5009765625 c 0
 104.504882812 -5.83203125 80.337890625 -10.9990234375 53.0048828125 -10.9990234375 c 0
 35.671875 -10.9990234375 22.0048828125 -9.33203125 12.0048828125 -5.9990234375 c 1
 7.337890625 2.0009765625 7.337890625 8.333984375 12.0048828125 13.0009765625 c 1
 34.0048828125 14.333984375 54.671875 20.333984375 74.0048828125 31.0009765625 c 0
 84.0048828125 37.66796875 92.171875 43.66796875 98.5048828125 49.0009765625 c 0
 104.837890625 54.333984375 113.837890625 64.6669921875 125.504882812 80 c 0
 137.171875 95.3330078125 146.671875 109 154.004882812 121 c 0
 161.337890625 133 172.337890625 151.333007812 187.004882812 176 c 0
 191.004882812 182.666992188 191.004882812 187 187.004882812 189 c 0
 129.004882812 210.333007812 100.004882812 243.333007812 100.004882812 288 c 0
 100.004882812 330 117.171875 358.333007812 151.504882812 373 c 0
 185.837890625 387.666992188 231.670898438 395 289.00390625 395 c 0
 350.336914062 395 406.669921875 393.333007812 458.002929688 390 c 0
 462.002929688 389.333007812 464.002929688 385.666015625 464.002929688 378.999023438 c 0
 464.002929688 372.33203125 462.002929688 368.33203125 458.002929688 366.999023438 c 2
 422.002929688 363.999023438 l 2
 411.3359375 363.33203125 404.8359375 358.33203125 402.502929688 348.999023438 c 0
 400.169921875 339.666015625 399.002929688 319.333007812 399.002929688 288 c 2
 399.002929688 -160 l 2
 399.002929688 -183.333007812 400.002929688 -198.833007812 402.002929688 -206.5 c 0
 404.002929688 -214.166992188 407.8359375 -219.666992188 413.502929688 -223 c 0
 419.169921875 -226.333007812 429.669921875 -229 445.002929688 -231 c 2
 467.002929688 -234 l 2
 472.3359375 -236 474.668945312 -239.833007812 474.001953125 -245.5 c 0
 473.334960938 -251.166992188 470.334960938 -255 465.001953125 -257 c 0
 423.001953125 -255 390.334960938 -254 367.001953125 -254 c 0
 339.001953125 -254 305.334960938 -255 266.001953125 -257 c 0
 263.334960938 -255 261.66796875 -251.166992188 261.000976562 -245.5 c 0
 260.333984375 -239.833007812 261.666992188 -236 265 -234 c 2
 300 -231 l 2
 314.666992188 -229 323.5 -224.333007812 326.5 -217 c 0
 329.5 -209.666992188 331 -190.666992188 331 -160 c 2
331.004882812 341 m 2
 331.004882812 352.333007812 328.004882812 359.333007812 322.004882812 362 c 0
 316.004882812 364.666992188 303.004882812 366 283.004882812 366 c 0
 250.337890625 366 225.170898438 358.5 207.50390625 343.5 c 0
 189.836914062 328.5 181.00390625 309 181.00390625 285 c 0
 181.00390625 255 189.00390625 233.666992188 205.00390625 221 c 0
 221.00390625 208.333007812 245.00390625 202 277.00390625 202 c 0
 301.670898438 202 316.837890625 203.166992188 322.504882812 205.5 c 0
 328.171875 207.833007812 331.004882812 214 331.004882812 224 c 2
 331.004882812 341 l 2
284.004882812 666 m 0
 308.671875 666 329.334960938 657.668945312 346.001953125 641.001953125 c 0
 362.668945312 624.334960938 371.001953125 603.66796875 371.001953125 579.000976562 c 0
 371.001953125 553.66796875 362.334960938 532.66796875 345.001953125 516.000976562 c 0
 327.668945312 499.333984375 307.3359375 491.000976562 284.002929688 491.000976562 c 0
 260.669921875 491.000976562 240.336914062 499.66796875 223.00390625 517.000976562 c 0
 205.670898438 534.333984375 197.00390625 555.000976562 197.00390625 579.000976562 c 0
 197.00390625 602.333984375 205.336914062 622.666992188 222.00390625 640 c 0
 238.670898438 657.333007812 259.337890625 666 284.004882812 666 c 0
284.000976562 637.001953125 m 0
 267.333984375 637.001953125 253.333984375 631.334960938 242.000976562 620.001953125 c 0
 230.66796875 608.668945312 225.000976562 595.001953125 225.000976562 579.001953125 c 0
 225.000976562 563.668945312 231.000976562 550.001953125 243.000976562 538.001953125 c 0
 255.000976562 526.001953125 268.66796875 520.001953125 284.000976562 520.001953125 c 0
 299.333984375 520.001953125 313.000976562 525.668945312 325.000976562 537.001953125 c 0
 337.000976562 548.334960938 343.000976562 562.334960938 343.000976562 579.001953125 c 0
 343.000976562 596.334960938 337.333984375 610.334960938 326.000976562 621.001953125 c 0
 314.66796875 631.668945312 300.66796875 637.001953125 284.000976562 637.001953125 c 0
EndSplineSet
EndChar

StartChar: at
Encoding: 64 64 34
Width: 745
GlyphClass: 2
Flags: W
LayerCount: 2
Fore
SplineSet
303 202 m 2
 299.666992188 247.333007812 283.666992188 283.499023438 255 310.499023438 c 0
 226.333007812 337.499023438 187.333007812 350.999023438 138 350.999023438 c 0
 104.666992188 350.999023438 75 334.666015625 49 301.999023438 c 1
 38.3330078125 298.666015625 32.3330078125 302.666015625 31 313.999023438 c 1
 47 346.666015625 68.8330078125 370.499023438 96.5 385.499023438 c 0
 124.166992188 400.499023438 152.666992188 407.999023438 182 407.999023438 c 0
 244.666992188 407.999023438 293 385.666015625 327 340.999023438 c 0
 328.333007812 339.666015625 330.166015625 337.499023438 332.499023438 334.499023438 c 0
 334.83203125 331.499023438 336.665039062 328.666015625 337.998046875 325.999023438 c 1
 355.331054688 352.666015625 377.498046875 372.999023438 404.498046875 386.999023438 c 0
 431.498046875 400.999023438 462.998046875 407.999023438 498.998046875 407.999023438 c 0
 557.665039062 407.999023438 606.498046875 389.166015625 645.498046875 351.499023438 c 0
 684.498046875 313.83203125 703.998046875 263.999023438 703.998046875 201.999023438 c 0
 703.998046875 159.999023438 694.498046875 122.83203125 675.498046875 90.4990234375 c 0
 656.498046875 58.166015625 630.831054688 32.666015625 598.498046875 13.9990234375 c 0
 566.165039062 -4.66796875 530.33203125 -14.0009765625 490.999023438 -14.0009765625 c 0
 455.666015625 -14.0009765625 424.333007812 -6.16796875 397 9.4990234375 c 0
 369.666992188 25.166015625 348 46.9990234375 332 74.9990234375 c 1
 316 47.666015625 294 25.9990234375 266 9.9990234375 c 0
 238 -6.0009765625 207.333007812 -14.0009765625 174 -14.0009765625 c 0
 130.666992188 -14.0009765625 96.5 -1.333984375 71.5 23.9990234375 c 0
 46.5 49.33203125 32 81.9990234375 28 121.999023438 c 0
 26.6669921875 135.999023438 26.6669921875 144.999023438 28 148.999023438 c 0
 29.3330078125 152.999023438 47.3330078125 154.999023438 82 154.999023438 c 2
 277 154.999023438 l 2
 288.333007812 154.999023438 295.5 155.83203125 298.5 157.499023438 c 0
 301.5 159.166015625 303 163.333007812 303 170 c 2
 303 192 l 1
 303 202 l 2
289 125.999023438 m 2
 218.001953125 126.000976562 l 2
 153.334960938 126.000976562 116.66796875 122.333984375 108.000976562 115.000976562 c 0
 104.000976562 112.333984375 102.000976562 100.333984375 102.000976562 79.0009765625 c 0
 102.000976562 62.333984375 109.16796875 47.6669921875 123.500976562 35 c 0
 137.833984375 22.3330078125 158.333984375 16 185.000976562 16 c 0
 212.333984375 16 237.666992188 28.6669921875 261 54 c 0
 284.333007812 79.3330078125 296 101.666015625 296 120.999023438 c 0
 296 124.33203125 293.666992188 125.999023438 289 125.999023438 c 2
374.001953125 209.000976562 m 0
 374.001953125 179.000976562 378.333007812 149 387 119 c 0
 395.666992188 89 409.833984375 64.3330078125 429.500976562 45 c 0
 449.16796875 25.6669921875 473.66796875 16 503.000976562 16 c 0
 537.000976562 16 564.66796875 31.3330078125 586.000976562 62 c 0
 607.333984375 92.6669921875 618.000976562 135 618.000976562 189 c 0
 618.000976562 239.666992188 606.833984375 283.666992188 584.500976562 321 c 0
 562.16796875 358.333007812 530.334960938 377 489.001953125 377 c 0
 449.001953125 377 419.834960938 360.333007812 401.501953125 327 c 0
 383.168945312 293.666992188 374.001953125 254.333984375 374.001953125 209.000976562 c 0
273 -194 m 0
 259.666992188 -194 248.5 -190.16796875 239.5 -182.500976562 c 0
 230.5 -174.833984375 226 -163.666992188 226 -149 c 0
 225.333007812 -135 229.5 -123.5 238.5 -114.5 c 0
 247.5 -105.5 259 -101 273 -101 c 0
 287 -101 298.166992188 -105.5 306.5 -114.5 c 0
 314.833007812 -123.5 319 -134 319 -146 c 0
 319 -160 314.833007812 -171.5 306.5 -180.5 c 0
 298.166992188 -189.5 287 -194 273 -194 c 0
461 -194.000976562 m 0
 447.666992188 -194.000976562 436.333007812 -190.166992188 427 -182.5 c 0
 417.666992188 -174.833007812 413 -163.666015625 413 -148.999023438 c 0
 413 -134.999023438 417.5 -123.499023438 426.5 -114.499023438 c 0
 435.5 -105.499023438 447 -100.999023438 461 -100.999023438 c 0
 475 -100.999023438 486 -105.33203125 494 -113.999023438 c 0
 502 -122.666015625 506 -133.333007812 506 -146 c 0
 506 -160.666992188 502 -172.333984375 494 -181.000976562 c 0
 486 -189.66796875 475 -194.000976562 461 -194.000976562 c 0
EndSplineSet
EndChar

StartChar: A
Encoding: 65 65 35
Width: 522
GlyphClass: 2
Flags: W
LayerCount: 2
Fore
SplineSet
166 -194 m 0
 152.666992188 -194 141.5 -190.16796875 132.5 -182.500976562 c 0
 123.5 -174.833984375 119 -163.666992188 119 -149 c 0
 118.333007812 -135 122.5 -123.5 131.5 -114.5 c 0
 140.5 -105.5 152 -101 166 -101 c 0
 180 -101 191.166992188 -105.5 199.5 -114.5 c 0
 207.833007812 -123.5 212 -134 212 -146 c 0
 212 -160 207.833007812 -171.5 199.5 -180.5 c 0
 191.166992188 -189.5 180 -194 166 -194 c 0
354 -194.000976562 m 0
 340.666992188 -194.000976562 329.333007812 -190.166992188 320 -182.5 c 0
 310.666992188 -174.833007812 306 -163.666015625 306 -148.999023438 c 0
 306 -134.999023438 310.5 -123.499023438 319.5 -114.499023438 c 0
 328.5 -105.499023438 340 -100.999023438 354 -100.999023438 c 0
 368 -100.999023438 379 -105.33203125 387 -113.999023438 c 0
 395 -122.666015625 399 -133.333007812 399 -146 c 0
 399 -160.666992188 395 -172.333984375 387 -181.000976562 c 0
 379 -189.66796875 368 -194.000976562 354 -194.000976562 c 0
422.999023438 146 m 2
 422.999023438 100 424.6640625 68.9990234375 427.997070312 52.9990234375 c 0
 431.330078125 36.9990234375 439.330078125 28.9990234375 451.997070312 28.9990234375 c 0
 457.997070312 28.9990234375 471.997070312 32.666015625 493.997070312 39.9990234375 c 0
 497.997070312 39.33203125 499.997070312 34.4990234375 499.997070312 25.4990234375 c 0
 499.997070312 16.4990234375 497.6640625 10.666015625 492.997070312 7.9990234375 c 0
 440.330078125 0.666015625 396.330078125 -10.0009765625 360.997070312 -24.0009765625 c 0
 353.6640625 -24.0009765625 349.997070312 -21.333984375 349.997070312 -16.0009765625 c 0
 349.997070312 1.9990234375 346.6640625 10.9990234375 339.997070312 10.9990234375 c 0
 309.997070312 -6.333984375 275.997070312 -15.0009765625 237.997070312 -15.0009765625 c 0
 171.330078125 -15.0009765625 120.830078125 6.166015625 86.4970703125 48.4990234375 c 0
 52.1640625 90.83203125 34.9970703125 135.33203125 34.9970703125 181.999023438 c 0
 34.9970703125 228.666015625 45.830078125 268.999023438 67.4970703125 302.999023438 c 0
 89.1640625 336.999023438 118.331054688 362.83203125 154.998046875 380.499023438 c 0
 191.665039062 398.166015625 231.665039062 406.999023438 274.998046875 406.999023438 c 0
 306.998046875 406.999023438 334.665039062 403.666015625 357.998046875 396.999023438 c 0
 375.331054688 392.33203125 386.998046875 389.999023438 392.998046875 389.999023438 c 0
 398.331054688 389.999023438 407.331054688 395.666015625 419.998046875 406.999023438 c 0
 424.665039062 406.999023438 428.33203125 403.999023438 430.999023438 397.999023438 c 1
 425.666015625 376.666015625 422.999023438 336.333007812 422.999023438 277 c 2
 422.999023438 146 l 2
350.997070312 81.9990234375 m 2
 350.99609375 229.999023438 l 2
 350.99609375 287.999023438 347.99609375 322.666015625 341.99609375 333.999023438 c 0
 335.329101562 346.666015625 323.829101562 356.833007812 307.49609375 364.5 c 0
 291.163085938 372.166992188 271.99609375 376 249.99609375 376 c 0
 211.329101562 376 179.829101562 360.5 155.49609375 329.5 c 0
 131.163085938 298.5 118.99609375 259.666992188 118.99609375 213 c 0
 118.99609375 158.333007812 133.829101562 113.5 163.49609375 78.5 c 0
 193.163085938 43.5 230.99609375 26 276.99609375 26 c 0
 311.663085938 26 333.330078125 31.3330078125 341.997070312 42 c 0
 347.997070312 49.3330078125 350.997070312 62.666015625 350.997070312 81.9990234375 c 2
EndSplineSet
EndChar

StartChar: B
Encoding: 66 66 36
Width: 522
GlyphClass: 2
Flags: W
LayerCount: 2
Fore
SplineSet
232 -194 m 0
 218.666992188 -194 207.5 -190.16796875 198.5 -182.500976562 c 0
 189.5 -174.833984375 185 -163.666992188 185 -149 c 0
 184.333007812 -135 188.5 -123.5 197.5 -114.5 c 0
 206.5 -105.5 218 -101 232 -101 c 0
 246 -101 257.166992188 -105.5 265.5 -114.5 c 0
 273.833007812 -123.5 278 -134 278 -146 c 0
 278 -160 273.833007812 -171.5 265.5 -180.5 c 0
 257.166992188 -189.5 246 -194 232 -194 c 0
401 -194.000976562 m 0
 387.666992188 -194.000976562 376.333007812 -190.166992188 367 -182.5 c 0
 357.666992188 -174.833007812 353 -163.666015625 353 -148.999023438 c 0
 353 -134.999023438 357.5 -123.499023438 366.5 -114.499023438 c 0
 375.5 -105.499023438 387 -100.999023438 401 -100.999023438 c 0
 415 -100.999023438 426 -105.33203125 434 -113.999023438 c 0
 442 -122.666015625 446 -133.333007812 446 -146 c 0
 446 -160.666992188 442 -172.333984375 434 -181.000976562 c 0
 426 -189.66796875 415 -194.000976562 401 -194.000976562 c 0
322.999023438 370 m 1
 350.999023438 365.333007812 376.49609375 354.162109375 399.49609375 336.495117188 c 0
 422.49609375 318.828125 440.329101562 297.995117188 452.99609375 273.995117188 c 0
 465.663085938 255.328125 471.99609375 229.661132812 471.99609375 196.994140625 c 0
 471.99609375 145.661132812 458.329101562 102.494140625 430.99609375 67.494140625 c 0
 403.663085938 32.494140625 366.99609375 8.3271484375 320.99609375 -5.005859375 c 0
 299.663085938 -11.6728515625 277.49609375 -14.6728515625 254.49609375 -14.005859375 c 0
 231.49609375 -13.3388671875 215.99609375 -6.671875 207.99609375 5.9951171875 c 0
 200.663085938 17.9951171875 203.99609375 30.9951171875 217.99609375 44.9951171875 c 0
 224.663085938 51.662109375 233.330078125 53.662109375 243.997070312 50.9951171875 c 0
 254.6640625 48.328125 261.997070312 44.328125 265.997070312 38.9951171875 c 0
 274.6640625 27.662109375 281.6640625 21.3291015625 286.997070312 19.99609375 c 0
 292.330078125 18.6630859375 305.663085938 23.6630859375 326.99609375 34.99609375 c 1
 347.663085938 50.99609375 363.99609375 73.99609375 375.99609375 103.99609375 c 0
 387.99609375 133.99609375 393.99609375 165.329101562 393.99609375 197.99609375 c 0
 395.329101562 239.329101562 382.99609375 273.99609375 356.99609375 301.99609375 c 0
 330.99609375 329.99609375 297.99609375 343.99609375 257.99609375 343.99609375 c 0
 244.663085938 343.99609375 236.163085938 345.163085938 232.49609375 347.49609375 c 0
 228.829101562 349.829101562 226.99609375 353.99609375 226.99609375 359.99609375 c 0
 226.99609375 369.329101562 234.329101562 374.329101562 248.99609375 374.99609375 c 0
 263.663085938 375.663085938 277.99609375 379.663085938 291.99609375 386.99609375 c 0
 338.663085938 410.99609375 360.663085938 451.329101562 357.99609375 507.99609375 c 0
 357.329101562 540.663085938 346.329101562 564.330078125 324.99609375 578.997070312 c 0
 303.663085938 593.6640625 278.330078125 600.331054688 248.997070312 598.998046875 c 0
 190.997070312 596.998046875 159.330078125 548.998046875 153.997070312 454.998046875 c 0
 151.997070312 424.998046875 150.997070312 399.665039062 150.997070312 378.998046875 c 2
 150.997070312 271.998046875 l 1
 150.997070312 -38.001953125 l 1
 150.997070312 -143.001953125 l 2
 150.997070312 -169.668945312 151.6640625 -188.001953125 152.997070312 -198.001953125 c 0
 154.330078125 -208.001953125 157.497070312 -215.001953125 162.497070312 -219.001953125 c 0
 167.497070312 -223.001953125 176.330078125 -226.001953125 188.997070312 -228.001953125 c 2
 235.997070312 -232.001953125 l 2
 239.997070312 -234.001953125 241.6640625 -238.168945312 240.997070312 -244.501953125 c 0
 240.330078125 -250.834960938 237.997070312 -255.001953125 233.997070312 -257.001953125 c 0
 177.997070312 -255.001953125 137.997070312 -254.001953125 113.997070312 -254.001953125 c 0
 81.9970703125 -254.001953125 47.9970703125 -255.001953125 11.9970703125 -257.001953125 c 0
 7.9970703125 -254.334960938 5.6640625 -250.16796875 4.9970703125 -244.500976562 c 0
 4.330078125 -238.833984375 5.9970703125 -234.666992188 9.9970703125 -232 c 2
 38.9970703125 -229 l 2
 56.9970703125 -227 67.830078125 -221.5 71.4970703125 -212.5 c 0
 75.1640625 -203.5 76.9970703125 -180.333007812 76.9970703125 -143 c 2
 76.9970703125 18 l 1
 76.9970703125 77 l 1
 76.9970703125 349 l 1
 81.6640625 433 87.3310546875 488.833007812 93.998046875 516.5 c 0
 100.665039062 544.166992188 113.33203125 569.666992188 131.999023438 593 c 0
 159.999023438 628.333007812 197.33203125 646.333007812 243.999023438 647 c 0
 299.33203125 647.666992188 340.33203125 635 366.999023438 609 c 0
 393.666015625 583 407.999023438 546.666992188 409.999023438 500 c 0
 411.999023438 448 382.999023438 404.666992188 322.999023438 370 c 1
EndSplineSet
EndChar

StartChar: C
Encoding: 67 67 37
Width: 393
GlyphClass: 2
Flags: W
LayerCount: 2
Fore
SplineSet
199 607 m 0
 237.666992188 607 267.5 596.83203125 288.5 576.499023438 c 0
 309.5 556.166015625 323 521.333007812 329 472 c 1
 323 466.666992188 316.666992188 466.666992188 310 472 c 1
 302.666992188 501.333007812 290.833984375 522 274.500976562 534 c 0
 258.16796875 546 233.334960938 552 200.001953125 552 c 0
 167.334960938 552 143.66796875 546 129.000976562 534 c 0
 114.333984375 522 100.666992188 501.333007812 88 472 c 0
 82 466.666992188 75.6669921875 466.666992188 69 472 c 1
 85.6669921875 562 129 607 199 607 c 0
210 -269.000976562 m 0
 156.666992188 -269.000976562 116.331054688 -249.333984375 88.998046875 -210.000976562 c 1
 82.3310546875 -220.66796875 76.3310546875 -232.834960938 70.998046875 -246.501953125 c 0
 65.6650390625 -260.168945312 62.33203125 -267.668945312 60.9990234375 -269.001953125 c 0
 58.33203125 -274.334960938 54.33203125 -277.334960938 48.9990234375 -278.001953125 c 0
 43.666015625 -278.668945312 38.9990234375 -277.668945312 34.9990234375 -275.001953125 c 0
 30.9990234375 -272.334960938 28.9990234375 -267.66796875 28.9990234375 -261.000976562 c 0
 30.9990234375 -231.66796875 43.9990234375 -200.000976562 67.9990234375 -166.000976562 c 1
 61.33203125 -144.000976562 57.9990234375 -121.333984375 57.9990234375 -98.0009765625 c 0
 57.9990234375 -32.0009765625 84.666015625 43.666015625 137.999023438 128.999023438 c 2
 183.999023438 200.999023438 l 2
 229.33203125 274.33203125 251.999023438 311.999023438 251.999023438 313.999023438 c 0
 251.999023438 319.999023438 244.33203125 322.999023438 228.999023438 322.999023438 c 2
 135.999023438 322.999023438 l 2
 101.33203125 322.999023438 77.6650390625 315.33203125 64.998046875 299.999023438 c 0
 58.3310546875 291.999023438 50.3310546875 277.999023438 40.998046875 257.999023438 c 1
 34.3310546875 253.999023438 28.998046875 256.33203125 24.998046875 264.999023438 c 1
 34.998046875 328.33203125 46.3310546875 371.999023438 58.998046875 395.999023438 c 1
 90.3310546875 393.999023438 122.6640625 392.999023438 155.997070312 392.999023438 c 2
 264.997070312 392.999023438 l 2
 304.330078125 392.999023438 331.997070312 393.999023438 347.997070312 395.999023438 c 0
 349.330078125 395.999023438 351.330078125 392.83203125 353.997070312 386.499023438 c 0
 356.6640625 380.166015625 356.331054688 375.666015625 352.998046875 372.999023438 c 0
 344.331054688 364.33203125 333.998046875 350.999023438 321.998046875 332.999023438 c 0
 309.998046875 314.999023438 298.165039062 297.33203125 286.498046875 279.999023438 c 0
 274.831054688 262.666015625 261.331054688 243.999023438 245.998046875 223.999023438 c 0
 211.331054688 169.999023438 183.498046875 121.666015625 162.498046875 78.9990234375 c 0
 141.498046875 36.33203125 128.331054688 -9.66796875 122.998046875 -59.0009765625 c 0
 122.331054688 -63.66796875 122.998046875 -77.0009765625 124.998046875 -99.0009765625 c 1
 175.665039062 -79.66796875 211.33203125 -69.0009765625 231.999023438 -67.0009765625 c 0
 279.33203125 -67.0009765625 312.33203125 -81.0009765625 330.999023438 -109.000976562 c 0
 340.33203125 -124.333984375 344.999023438 -142.333984375 344.999023438 -163.000976562 c 0
 344.999023438 -179.000976562 340.33203125 -195.333984375 330.999023438 -212.000976562 c 0
 303.666015625 -250.000976562 263.333007812 -269.000976562 210 -269.000976562 c 0
266.997070312 -216.000976562 m 0
 286.330078125 -200.66796875 295.997070312 -184.66796875 295.997070312 -168.000976562 c 0
 295.997070312 -159.333984375 293.330078125 -150.666992188 287.997070312 -142 c 0
 275.997070312 -122.666992188 258.997070312 -113.333984375 236.997070312 -114.000976562 c 0
 212.997070312 -116.000976562 190.1640625 -121.66796875 168.497070312 -131.000976562 c 0
 146.830078125 -140.333984375 135.997070312 -149.333984375 135.997070312 -158.000976562 c 0
 135.997070312 -164.000976562 136.997070312 -170.000976562 138.997070312 -176.000976562 c 0
 142.997070312 -186.66796875 148.6640625 -195.000976562 155.997070312 -201.000976562 c 0
 199.997070312 -230.333984375 236.997070312 -235.333984375 266.997070312 -216.000976562 c 0
EndSplineSet
EndChar

StartChar: D
Encoding: 68 68 38
Width: 504
GlyphClass: 2
Flags: W
LayerCount: 2
Fore
SplineSet
108 -194 m 0
 94.6669921875 -194 83.5 -190.16796875 74.5 -182.500976562 c 0
 65.5 -174.833984375 61 -163.666992188 61 -149 c 0
 60.3330078125 -135 64.5 -123.5 73.5 -114.5 c 0
 82.5 -105.5 94 -101 108 -101 c 0
 122 -101 133.166992188 -105.5 141.5 -114.5 c 0
 149.833007812 -123.5 154 -134 154 -146 c 0
 154 -160 149.833007812 -171.5 141.5 -180.5 c 0
 133.166992188 -189.5 122 -194 108 -194 c 0
274 -194.000976562 m 0
 260.666992188 -194.000976562 249.333007812 -190.166992188 240 -182.5 c 0
 230.666992188 -174.833007812 226 -163.666015625 226 -148.999023438 c 0
 226 -134.999023438 230.5 -123.499023438 239.5 -114.499023438 c 0
 248.5 -105.499023438 260 -100.999023438 274 -100.999023438 c 0
 288 -100.999023438 299 -105.33203125 307 -113.999023438 c 0
 315 -122.666015625 319 -133.333007812 319 -146 c 0
 319 -160.666992188 315 -172.333984375 307 -181.000976562 c 0
 299 -189.66796875 288 -194.000976562 274 -194.000976562 c 0
349.999023438 600 m 2
 349.999023438 620.666992188 345.666015625 633.336914062 336.999023438 638.00390625 c 0
 328.33203125 642.670898438 311.999023438 645.670898438 287.999023438 647.00390625 c 2
 269.999023438 649.00390625 l 2
 267.999023438 652.336914062 266.999023438 656.169921875 266.999023438 660.502929688 c 0
 266.999023438 664.8359375 268.33203125 667.668945312 270.999023438 669.001953125 c 0
 316.33203125 684.334960938 362.999023438 704.66796875 410.999023438 730.000976562 c 1
 424.999023438 727.333984375 431.999023438 724.333984375 431.999023438 721.000976562 c 2
 423.999023438 646.000976562 l 1
 423.999023438 -142.999023438 l 2
 423.999023438 -169.666015625 424.666015625 -187.999023438 425.999023438 -197.999023438 c 0
 427.33203125 -207.999023438 430.499023438 -214.999023438 435.499023438 -218.999023438 c 0
 440.499023438 -222.999023438 449.33203125 -225.999023438 461.999023438 -227.999023438 c 2
 500.999023438 -231.999023438 l 2
 504.999023438 -233.999023438 506.666015625 -238.166015625 505.999023438 -244.499023438 c 0
 505.33203125 -250.83203125 502.999023438 -254.999023438 498.999023438 -256.999023438 c 0
 450.999023438 -254.999023438 413.666015625 -253.999023438 386.999023438 -253.999023438 c 0
 357.666015625 -253.999023438 320.999023438 -254.999023438 276.999023438 -256.999023438 c 0
 273.666015625 -254.999023438 271.999023438 -250.83203125 271.999023438 -244.499023438 c 0
 271.999023438 -238.166015625 273.666015625 -233.999023438 276.999023438 -231.999023438 c 2
 311.999023438 -228.999023438 l 2
 329.999023438 -226.999023438 341.166015625 -220.666015625 345.499023438 -209.999023438 c 0
 349.83203125 -199.33203125 350.999023438 -176.999023438 348.999023438 -142.999023438 c 0
 348.999023438 -111.666015625 349.33203125 -74.9990234375 349.999023438 -32.9990234375 c 0
 350.666015625 9.0009765625 349.999023438 30.333984375 347.999023438 31.0009765625 c 2
 343.999023438 31.0009765625 l 1
 316.666015625 13.66796875 294.666015625 1.66796875 277.999023438 -4.9990234375 c 0
 261.33203125 -11.666015625 241.33203125 -14.9990234375 217.999023438 -14.9990234375 c 0
 163.999023438 -14.9990234375 119.999023438 3.66796875 85.9990234375 41.0009765625 c 0
 51.9990234375 78.333984375 34.9990234375 123.666992188 34.9990234375 177 c 0
 34.9990234375 245.666992188 57.9990234375 301.166992188 103.999023438 343.5 c 0
 149.999023438 385.833007812 207.666015625 407 276.999023438 407 c 0
 304.999023438 407 327.33203125 404 343.999023438 398 c 0
 347.999023438 398 349.999023438 402.666992188 349.999023438 412 c 2
 349.999023438 600 l 2
351.999023438 99.0029296875 m 2
 351.997070312 295.002929688 l 2
 351.997070312 308.3359375 347.6640625 321.3359375 338.997070312 334.002929688 c 0
 318.997070312 362.002929688 290.997070312 376.002929688 254.997070312 376.002929688 c 0
 211.6640625 376.002929688 177.831054688 359.8359375 153.498046875 327.502929688 c 0
 129.165039062 295.169921875 116.998046875 256.002929688 116.998046875 210.002929688 c 0
 116.998046875 162.002929688 130.331054688 120.669921875 156.998046875 86.0029296875 c 0
 183.665039062 51.3359375 219.998046875 34.0029296875 265.998046875 34.0029296875 c 0
 298.665039062 34.0029296875 324.33203125 43.3359375 342.999023438 62.0029296875 c 0
 348.999023438 68.0029296875 351.999023438 80.3359375 351.999023438 99.0029296875 c 2
EndSplineSet
EndChar

StartChar: E
Encoding: 69 69 39
Width: 408
GlyphClass: 2
Flags: W
LayerCount: 2
Fore
SplineSet
244 28 m 0
 260.666992188 31.3330078125 274.165039062 36.3388671875 284.498046875 43.005859375 c 0
 294.831054688 49.6728515625 300.6640625 57.33984375 301.997070312 66.0068359375 c 0
 306.6640625 87.33984375 319.331054688 97.6728515625 339.998046875 97.005859375 c 0
 348.665039062 97.005859375 355.165039062 93.6728515625 359.498046875 87.005859375 c 0
 363.831054688 80.3388671875 365.331054688 73.3388671875 363.998046875 66.005859375 c 0
 363.331054688 43.3388671875 333.6640625 20.3388671875 274.997070312 -2.994140625 c 0
 254.330078125 -10.994140625 223.997070312 -14.994140625 183.997070312 -14.994140625 c 0
 143.330078125 -14.994140625 110.163085938 -6.3271484375 84.49609375 11.005859375 c 0
 58.8291015625 28.3388671875 45.3291015625 52.005859375 43.99609375 82.005859375 c 0
 45.3291015625 108.672851562 53.3291015625 132.505859375 67.99609375 153.505859375 c 0
 82.6630859375 174.505859375 113.663085938 190.672851562 160.99609375 202.005859375 c 1
 130.329101562 205.338867188 104.162109375 215.505859375 82.4951171875 232.505859375 c 0
 60.828125 249.505859375 51.328125 269.338867188 53.9951171875 292.005859375 c 0
 56.662109375 314.672851562 62.4951171875 332.005859375 71.4951171875 344.005859375 c 0
 80.4951171875 356.005859375 95.662109375 369.672851562 116.995117188 385.005859375 c 0
 142.995117188 398.338867188 170.328125 405.838867188 198.995117188 407.505859375 c 0
 227.662109375 409.172851562 250.329101562 407.672851562 266.99609375 403.005859375 c 0
 288.99609375 398.338867188 309.329101562 390.171875 327.99609375 378.504882812 c 0
 346.663085938 366.837890625 355.99609375 354.670898438 355.99609375 342.00390625 c 0
 357.329101562 335.336914062 355.99609375 328.669921875 351.99609375 322.002929688 c 0
 347.99609375 315.3359375 341.329101562 311.668945312 331.99609375 311.001953125 c 0
 311.99609375 310.334960938 299.329101562 320.66796875 293.99609375 342.000976562 c 0
 292.663085938 349.333984375 285.830078125 357.166992188 273.497070312 365.5 c 0
 261.1640625 373.833007812 249.331054688 378 237.998046875 378 c 0
 209.331054688 379.333007812 182.998046875 373 158.998046875 359 c 0
 134.998046875 345 120.665039062 323.333007812 115.998046875 294 c 0
 112.665039062 270 118.83203125 250.666992188 134.499023438 236 c 0
 150.166015625 221.333007812 173.999023438 216 205.999023438 220 c 0
 223.999023438 224.666992188 237.166015625 223.666992188 245.499023438 217 c 0
 253.83203125 210.333007812 256.499023438 202.166015625 253.499023438 192.499023438 c 0
 250.499023438 182.83203125 243.33203125 177.33203125 231.999023438 175.999023438 c 0
 222.666015625 175.33203125 213.666015625 175.83203125 204.999023438 177.499023438 c 0
 196.33203125 179.166015625 187.999023438 179.333007812 179.999023438 178 c 0
 166.666015625 176.666992188 154.333007812 167.166992188 143 149.5 c 0
 131.666992188 131.833007812 126 113.333007812 126 94 c 0
 126.666992188 72.6669921875 135 55.6669921875 151 43 c 0
 167 30.3330078125 186.333007812 24 209 24 c 0
 222.333007812 24 234 25.3330078125 244 28 c 0
116.998046875 -193.994140625 m 0
 103.665039062 -193.994140625 92.498046875 -190.162109375 83.498046875 -182.495117188 c 0
 74.498046875 -174.828125 69.998046875 -163.661132812 69.998046875 -148.994140625 c 0
 69.3310546875 -134.994140625 73.498046875 -123.494140625 82.498046875 -114.494140625 c 0
 91.498046875 -105.494140625 102.998046875 -100.994140625 116.998046875 -100.994140625 c 0
 130.998046875 -100.994140625 142.165039062 -105.494140625 150.498046875 -114.494140625 c 0
 158.831054688 -123.494140625 162.998046875 -133.994140625 162.998046875 -145.994140625 c 0
 162.998046875 -159.994140625 158.831054688 -171.494140625 150.498046875 -180.494140625 c 0
 142.165039062 -189.494140625 130.998046875 -193.994140625 116.998046875 -193.994140625 c 0
304.998046875 -193.995117188 m 0
 291.665039062 -193.995117188 280.331054688 -190.161132812 270.998046875 -182.494140625 c 0
 261.665039062 -174.827148438 256.998046875 -163.66015625 256.998046875 -148.993164062 c 0
 256.998046875 -134.993164062 261.498046875 -123.493164062 270.498046875 -114.493164062 c 0
 279.498046875 -105.493164062 290.998046875 -100.993164062 304.998046875 -100.993164062 c 0
 318.998046875 -100.993164062 329.998046875 -105.326171875 337.998046875 -113.993164062 c 0
 345.998046875 -122.66015625 349.998046875 -133.327148438 349.998046875 -145.994140625 c 0
 349.998046875 -160.661132812 345.998046875 -172.328125 337.998046875 -180.995117188 c 0
 329.998046875 -189.662109375 318.998046875 -193.995117188 304.998046875 -193.995117188 c 0
EndSplineSet
EndChar

StartChar: F
Encoding: 70 70 40
Width: 408
GlyphClass: 2
Flags: W
LayerCount: 2
Fore
SplineSet
175 107 m 2
 175 75 176.666992188 54.0009765625 180 44.0009765625 c 0
 182.666992188 41.333984375 184.833984375 38.833984375 186.500976562 36.5009765625 c 0
 188.16796875 34.16796875 192.834960938 32.3349609375 200.501953125 31.001953125 c 0
 208.168945312 29.6689453125 218.668945312 29.001953125 232.001953125 29.001953125 c 0
 266.001953125 29.001953125 291.668945312 33.3349609375 309.001953125 42.001953125 c 0
 326.334960938 50.6689453125 341.66796875 72.001953125 355.000976562 106.001953125 c 0
 357.000976562 108.001953125 360.000976562 109.001953125 364.000976562 109.001953125 c 0
 368.000976562 109.001953125 371.333984375 108.501953125 374.000976562 107.501953125 c 0
 376.66796875 106.501953125 378.66796875 104.668945312 380.000976562 102.001953125 c 0
 374.000976562 54.6689453125 364.333984375 19.6689453125 351.000976562 -2.998046875 c 1
 318.333984375 -0.998046875 273.666992188 0.001953125 217 0.001953125 c 2
 138 0.001953125 l 2
 112.666992188 0.001953125 77 -0.998046875 31 -2.998046875 c 0
 27.6669921875 -0.998046875 25.6669921875 2.8349609375 25 8.501953125 c 0
 24.3330078125 14.1689453125 25.666015625 18.001953125 28.9990234375 20.001953125 c 2
 54.9990234375 23.001953125 l 2
 76.33203125 26.3349609375 89.33203125 31.501953125 93.9990234375 38.501953125 c 0
 98.666015625 45.501953125 100.999023438 64.001953125 100.999023438 94.001953125 c 2
 100.999023438 600.001953125 l 2
 100.999023438 620.668945312 96.83203125 633.501953125 88.4990234375 638.501953125 c 0
 80.166015625 643.501953125 64.3330078125 646.668945312 41 648.001953125 c 2
 23 649.001953125 l 2
 21 652.334960938 20 656.16796875 20 660.500976562 c 0
 20 664.833984375 21.3330078125 667.666992188 24 669 c 0
 71.3330078125 685.666992188 117.333007812 706 162 730 c 1
 176 727.333007812 183 724.333007812 183 721 c 2
 175 624 l 1
 175 107 l 2
205 -215.999023438 m 0
 167 -215.999023438 137.334960938 -205.999023438 116.001953125 -185.999023438 c 0
 94.6689453125 -165.999023438 81.001953125 -131.666015625 75.001953125 -82.9990234375 c 1
 81.6689453125 -76.9990234375 88.001953125 -76.9990234375 94.001953125 -82.9990234375 c 1
 101.334960938 -110.33203125 113.16796875 -130.499023438 129.500976562 -143.499023438 c 0
 145.833984375 -156.499023438 170.666992188 -162.999023438 204 -162.999023438 c 0
 236 -162.999023438 259.833007812 -156.499023438 275.5 -143.499023438 c 0
 291.166992188 -130.499023438 304.666992188 -110.33203125 316 -82.9990234375 c 0
 322.666992188 -76.9990234375 329 -76.9990234375 335 -82.9990234375 c 1
 327 -126.33203125 311.666992188 -159.33203125 289 -181.999023438 c 0
 266.333007812 -204.666015625 238.333007812 -215.999023438 205 -215.999023438 c 0
EndSplineSet
EndChar

StartChar: G
Encoding: 71 71 41
Width: 792
GlyphClass: 2
Flags: W
LayerCount: 2
Fore
SplineSet
153 -194 m 0
 139.666992188 -194 128.5 -190.16796875 119.5 -182.500976562 c 0
 110.5 -174.833984375 106 -163.666992188 106 -149 c 0
 105.333007812 -135 109.5 -123.5 118.5 -114.5 c 0
 127.5 -105.5 139 -101 153 -101 c 0
 167 -101 178.166992188 -105.5 186.5 -114.5 c 0
 194.833007812 -123.5 199 -134 199 -146 c 0
 199 -160 194.833007812 -171.5 186.5 -180.5 c 0
 178.166992188 -189.5 167 -194 153 -194 c 0
341 -194.000976562 m 0
 327.666992188 -194.000976562 316.333007812 -190.166992188 307 -182.5 c 0
 297.666992188 -174.833007812 293 -163.666015625 293 -148.999023438 c 0
 293 -134.999023438 297.5 -123.499023438 306.5 -114.499023438 c 0
 315.5 -105.499023438 327 -100.999023438 341 -100.999023438 c 0
 355 -100.999023438 366 -105.33203125 374 -113.999023438 c 0
 382 -122.666015625 386 -133.333007812 386 -146 c 0
 386 -160.666992188 382 -172.333984375 374 -181.000976562 c 0
 366 -189.66796875 355 -194.000976562 341 -194.000976562 c 0
349.999023438 600 m 2
 349.999023438 620.666992188 345.663085938 633.333007812 336.99609375 638 c 0
 328.329101562 642.666992188 311.99609375 645.666992188 287.99609375 647 c 2
 269.99609375 649 l 2
 267.99609375 652.333007812 266.99609375 656.166015625 266.99609375 660.499023438 c 0
 266.99609375 664.83203125 268.329101562 667.665039062 270.99609375 668.998046875 c 0
 316.329101562 684.331054688 362.99609375 704.6640625 410.99609375 729.997070312 c 1
 424.99609375 727.330078125 431.99609375 724.330078125 431.99609375 720.997070312 c 2
 423.99609375 645.997070312 l 1
 423.99609375 395.997070312 l 1
 451.329101562 393.997070312 471.662109375 392.997070312 484.995117188 392.997070312 c 2
 647.995117188 392.997070312 l 2
 687.328125 392.997070312 714.995117188 393.997070312 730.995117188 395.997070312 c 0
 734.328125 394.6640625 735.995117188 389.997070312 735.995117188 381.997070312 c 0
 735.995117188 371.330078125 734.328125 365.330078125 730.995117188 363.997070312 c 0
 719.662109375 359.997070312 710.829101562 354.497070312 704.49609375 347.497070312 c 0
 698.163085938 340.497070312 684.99609375 323.6640625 664.99609375 296.997070312 c 0
 655.663085938 284.997070312 620.330078125 232.997070312 558.997070312 140.997070312 c 0
 551.6640625 128.330078125 548.331054688 121.830078125 548.998046875 121.497070312 c 0
 549.665039062 121.1640625 556.33203125 120.997070312 568.999023438 120.997070312 c 0
 631.666015625 120.330078125 677.666015625 101.330078125 706.999023438 63.9970703125 c 0
 736.33203125 26.6640625 750.999023438 -17.0029296875 750.999023438 -67.0029296875 c 0
 750.999023438 -97.669921875 743.83203125 -126.002929688 729.499023438 -152.002929688 c 0
 715.166015625 -178.002929688 693.333007812 -203.669921875 664 -229.002929688 c 1
 630.666992188 -248.3359375 604.333984375 -259.8359375 585.000976562 -263.502929688 c 0
 565.66796875 -267.169921875 537.334960938 -269.002929688 500.001953125 -269.002929688 c 0
 477.334960938 -269.002929688 456.834960938 -263.002929688 438.501953125 -251.002929688 c 0
 420.168945312 -239.002929688 411.001953125 -223.3359375 411.001953125 -204.002929688 c 0
 411.001953125 -194.002929688 414.001953125 -185.669921875 420.001953125 -179.002929688 c 0
 426.001953125 -172.3359375 434.668945312 -169.002929688 446.001953125 -169.002929688 c 0
 459.334960938 -169.002929688 473.66796875 -179.669921875 489.000976562 -201.002929688 c 0
 497.000976562 -211.669921875 504.500976562 -219.502929688 511.500976562 -224.502929688 c 0
 518.500976562 -229.502929688 527.000976562 -232.002929688 537.000976562 -232.002929688 c 0
 588.333984375 -231.3359375 623.333984375 -217.3359375 642.000976562 -190.002929688 c 0
 660.66796875 -162.669921875 670.000976562 -121.669921875 670.000976562 -67.0029296875 c 0
 670.000976562 -30.3359375 662.66796875 2.3310546875 648.000976562 30.998046875 c 0
 633.333984375 59.6650390625 612.666992188 75.998046875 586 79.998046875 c 0
 558.666992188 83.998046875 534 83.3310546875 512 77.998046875 c 1
 492.666992188 80.6650390625 486 90.998046875 492 108.998046875 c 1
 504 127.998046875 l 2
 542 187.998046875 570.666992188 233.498046875 590 264.498046875 c 0
 609.333007812 295.498046875 620 312.331054688 622 314.998046875 c 2
 626 322.998046875 l 1
 607 322.998046875 l 1
 463 322.998046875 l 2
 445.666992188 322.998046875 434.833984375 321.998046875 430.500976562 319.998046875 c 0
 426.16796875 317.998046875 424.000976562 312.331054688 424.000976562 302.998046875 c 2
 424.000976562 145.998046875 l 2
 424.000976562 95.3310546875 424.66796875 63.998046875 426.000976562 51.998046875 c 0
 427.333984375 39.998046875 433.333984375 32.3310546875 444.000976562 28.998046875 c 0
 446.000976562 28.998046875 449.16796875 26.498046875 453.500976562 21.498046875 c 0
 457.833984375 16.498046875 458.000976562 9.6650390625 454.000976562 0.998046875 c 1
 443.333984375 -1.6689453125 428.666992188 -5.1689453125 410 -9.501953125 c 0
 391.333007812 -13.8349609375 375.666015625 -18.66796875 362.999023438 -24.0009765625 c 0
 355.666015625 -24.0009765625 351.999023438 -21.333984375 351.999023438 -16.0009765625 c 2
 351.999023438 0.9990234375 l 2
 351.999023438 18.9990234375 351.33203125 28.9990234375 349.999023438 30.9990234375 c 2
 345.999023438 30.9990234375 l 1
 318.666015625 13.666015625 296.666015625 1.666015625 279.999023438 -5.0009765625 c 0
 263.33203125 -11.66796875 243.33203125 -15.0009765625 219.999023438 -15.0009765625 c 0
 165.33203125 -15.0009765625 120.83203125 3.83203125 86.4990234375 41.4990234375 c 0
 52.166015625 79.166015625 34.9990234375 124.333007812 34.9990234375 177 c 0
 34.9990234375 245.666992188 57.9990234375 301.166992188 103.999023438 343.5 c 0
 149.999023438 385.833007812 207.666015625 407 276.999023438 407 c 0
 304.999023438 407 327.33203125 404 343.999023438 398 c 0
 347.999023438 398 349.999023438 402.666992188 349.999023438 412 c 2
 349.999023438 600 l 2
351.99609375 98.9990234375 m 2
 351.994140625 294.999023438 l 2
 351.994140625 308.33203125 347.661132812 321.33203125 338.994140625 333.999023438 c 0
 318.994140625 361.999023438 290.994140625 375.999023438 254.994140625 375.999023438 c 0
 211.661132812 375.999023438 177.828125 359.83203125 153.495117188 327.499023438 c 0
 129.162109375 295.166015625 116.995117188 255.999023438 116.995117188 209.999023438 c 0
 116.995117188 161.999023438 130.328125 120.666015625 156.995117188 85.9990234375 c 0
 183.662109375 51.33203125 219.995117188 33.9990234375 265.995117188 33.9990234375 c 0
 298.662109375 33.9990234375 324.329101562 43.33203125 342.99609375 61.9990234375 c 0
 348.99609375 67.9990234375 351.99609375 80.33203125 351.99609375 98.9990234375 c 2
EndSplineSet
EndChar

StartChar: H
Encoding: 72 72 42
Width: 411
GlyphClass: 2
Flags: W
LayerCount: 2
Fore
SplineSet
144 -194 m 0
 130.666992188 -194 119.5 -190.16796875 110.5 -182.500976562 c 0
 101.5 -174.833984375 97 -163.666992188 97 -149 c 0
 96.3330078125 -135 100.5 -123.5 109.5 -114.5 c 0
 118.5 -105.5 130 -101 144 -101 c 0
 158 -101 169.166992188 -105.5 177.5 -114.5 c 0
 185.833007812 -123.5 190 -134 190 -146 c 0
 190 -160 185.833007812 -171.5 177.5 -180.5 c 0
 169.166992188 -189.5 158 -194 144 -194 c 0
332 -194.000976562 m 0
 318.666992188 -194.000976562 307.333007812 -190.166992188 298 -182.5 c 0
 288.666992188 -174.833007812 284 -163.666015625 284 -148.999023438 c 0
 284 -134.999023438 288.5 -123.499023438 297.5 -114.499023438 c 0
 306.5 -105.499023438 318 -100.999023438 332 -100.999023438 c 0
 346 -100.999023438 357 -105.33203125 365 -113.999023438 c 0
 373 -122.666015625 377 -133.333007812 377 -146 c 0
 377 -160.666992188 373 -172.333984375 365 -181.000976562 c 0
 357 -189.66796875 346 -194.000976562 332 -194.000976562 c 0
200.999023438 145 m 1
 121.004882812 144.998046875 l 1
 121.004882812 173.998046875 l 1
 201.004882812 173.998046875 l 1
 201.004882812 251.998046875 l 1
 88.337890625 270.665039062 30.6708984375 319.998046875 28.00390625 399.998046875 c 0
 27.3369140625 445.998046875 42.669921875 493.998046875 74.0029296875 543.998046875 c 0
 107.3359375 591.331054688 145.668945312 620.998046875 189.001953125 632.998046875 c 0
 232.334960938 644.998046875 268.001953125 646.331054688 296.001953125 636.998046875 c 0
 333.334960938 626.331054688 347.66796875 602.331054688 339.000976562 564.998046875 c 0
 337.000976562 556.998046875 332.333984375 550.498046875 325.000976562 545.498046875 c 0
 317.66796875 540.498046875 310.000976562 539.331054688 302.000976562 541.998046875 c 0
 230.66796875 568.665039062 176.834960938 572.83203125 140.501953125 554.499023438 c 0
 104.168945312 536.166015625 81.001953125 496.999023438 71.001953125 436.999023438 c 1
 69.001953125 392.999023438 86.001953125 362.499023438 122.001953125 345.499023438 c 0
 158.001953125 328.499023438 209.001953125 319.999023438 275.001953125 319.999023438 c 1
 275.001953125 173.999023438 l 1
 355.001953125 173.999023438 l 1
 355.001953125 144.999023438 l 1
 275.001953125 144.999023438 l 1
 275.001953125 122.999023438 l 2
 275.001953125 82.33203125 278.001953125 56.33203125 284.001953125 44.9990234375 c 0
 290.001953125 33.666015625 307.334960938 26.9990234375 336.001953125 24.9990234375 c 2
 372.001953125 22.9990234375 l 2
 374.668945312 20.9990234375 375.668945312 16.83203125 375.001953125 10.4990234375 c 0
 374.334960938 4.166015625 372.66796875 -0.0009765625 370.000976562 -2.0009765625 c 0
 312.000976562 -0.0009765625 267.333984375 0.9990234375 236.000976562 0.9990234375 c 0
 205.333984375 0.9990234375 162.333984375 -0.0009765625 107.000976562 -2.0009765625 c 0
 103.66796875 -0.0009765625 101.66796875 4.166015625 101.000976562 10.4990234375 c 0
 100.333984375 16.83203125 101.666992188 20.9990234375 105 22.9990234375 c 2
 141 24.9990234375 l 2
 160.333007812 25.666015625 174.166015625 28.8330078125 182.499023438 34.5 c 0
 190.83203125 40.1669921875 195.999023438 49 197.999023438 61 c 0
 199.999023438 73 200.999023438 93.6669921875 200.999023438 123 c 2
 200.999023438 145 l 1
EndSplineSet
EndChar

StartChar: I
Encoding: 73 73 43
Width: 291
GlyphClass: 2
Flags: W
LayerCount: 2
Fore
SplineSet
51 -194 m 0
 37.6669921875 -194 26.5 -190.16796875 17.5 -182.500976562 c 0
 8.5 -174.833984375 4 -163.666992188 4 -149 c 0
 3.3330078125 -135 7.5 -123.5 16.5 -114.5 c 0
 25.5 -105.5 37 -101 51 -101 c 0
 65 -101 76.1669921875 -105.5 84.5 -114.5 c 0
 92.8330078125 -123.5 97 -134 97 -146 c 0
 97 -160 92.8330078125 -171.5 84.5 -180.5 c 0
 76.1669921875 -189.5 65 -194 51 -194 c 0
229 -194.000976562 m 0
 215.666992188 -194.000976562 204.333007812 -190.166992188 195 -182.5 c 0
 185.666992188 -174.833007812 181 -163.666015625 181 -148.999023438 c 0
 181 -134.999023438 185.5 -123.499023438 194.5 -114.499023438 c 0
 203.5 -105.499023438 215 -100.999023438 229 -100.999023438 c 0
 243 -100.999023438 254 -105.33203125 262 -113.999023438 c 0
 270 -122.666015625 274 -133.333007812 274 -146 c 0
 274 -160.666992188 270 -172.333984375 262 -181.000976562 c 0
 254 -189.66796875 243 -194.000976562 229 -194.000976562 c 0
96.9990234375 94 m 2
 96.9990234375 297 l 2
 96.9990234375 320.333007812 95.9990234375 336.166015625 93.9990234375 344.499023438 c 0
 91.9990234375 352.83203125 88.166015625 358.665039062 82.4990234375 361.998046875 c 0
 76.83203125 365.331054688 66.33203125 367.998046875 50.9990234375 369.998046875 c 2
 22.9990234375 372.998046875 l 2
 19.666015625 374.998046875 18.3330078125 378.998046875 19 384.998046875 c 0
 19.6669921875 390.998046875 21.6669921875 394.331054688 25 394.998046875 c 0
 89 393.665039062 125.333007812 392.998046875 134 392.998046875 c 0
 142.666992188 392.998046875 179 393.665039062 243 394.998046875 c 0
 247 394.331054688 249 390.998046875 249 384.998046875 c 0
 249 378.998046875 247.666992188 374.998046875 245 372.998046875 c 2
 216 369.998046875 l 2
 200.666992188 367.998046875 190.166992188 365.331054688 184.5 361.998046875 c 0
 178.833007812 358.665039062 175.166015625 352.83203125 173.499023438 344.499023438 c 0
 171.83203125 336.166015625 170.999023438 320.333007812 170.999023438 297 c 2
 170.999023438 94 l 2
 170.999023438 64 173.33203125 45.3330078125 177.999023438 38 c 0
 182.666015625 30.6669921875 195.333007812 25.6669921875 216 23 c 2
 245 20 l 2
 247.666992188 18 249 14.1669921875 249 8.5 c 0
 249 2.8330078125 247 -1 243 -3 c 0
 196.333007812 -1 160 0 134 0 c 0
 109.333007812 0 73 -1 25 -3 c 0
 21.6669921875 -1 19.6669921875 2.8330078125 19 8.5 c 0
 18.3330078125 14.1669921875 19.666015625 18 22.9990234375 20 c 2
 50.9990234375 23 l 2
 72.33203125 26.3330078125 85.33203125 31.5 89.9990234375 38.5 c 0
 94.666015625 45.5 96.9990234375 64 96.9990234375 94 c 2
EndSplineSet
EndChar

StartChar: J
Encoding: 74 74 44
Width: 294
GlyphClass: 2
Flags: W
LayerCount: 2
Fore
SplineSet
77 -225 m 0
 90.3330078125 -225 102.66796875 -220.333984375 114.000976562 -211.000976562 c 0
 125.333984375 -201.66796875 130.666992188 -188.66796875 130 -172.000976562 c 0
 128.666992188 -133.333984375 111.666992188 -114.000976562 79 -114.000976562 c 0
 59.6669921875 -114.000976562 44.6669921875 -123.000976562 34 -141.000976562 c 0
 30 -147.66796875 28 -156.66796875 28 -168.000976562 c 0
 28 -183.333984375 32.8330078125 -196.666992188 42.5 -208 c 0
 52.1669921875 -219.333007812 63.6669921875 -225 77 -225 c 0
60.001953125 484.999023438 m 0
 46.6689453125 484.999023438 35.501953125 488.831054688 26.501953125 496.498046875 c 0
 17.501953125 504.165039062 13.001953125 515.33203125 13.001953125 529.999023438 c 0
 12.3349609375 543.33203125 16.501953125 554.83203125 25.501953125 564.499023438 c 0
 34.501953125 574.166015625 46.001953125 578.999023438 60.001953125 578.999023438 c 0
 74.001953125 578.999023438 85.1689453125 574.499023438 93.501953125 565.499023438 c 0
 101.834960938 556.499023438 106.001953125 545.666015625 106.001953125 532.999023438 c 0
 106.001953125 518.999023438 101.834960938 507.499023438 93.501953125 498.499023438 c 0
 85.1689453125 489.499023438 74.001953125 484.999023438 60.001953125 484.999023438 c 0
248.001953125 484.998046875 m 0
 234.668945312 484.998046875 223.334960938 488.831054688 214.001953125 496.498046875 c 0
 204.668945312 504.165039062 200.001953125 515.33203125 200.001953125 529.999023438 c 0
 200.001953125 543.33203125 204.501953125 554.83203125 213.501953125 564.499023438 c 0
 222.501953125 574.166015625 234.001953125 578.999023438 248.001953125 578.999023438 c 0
 262.001953125 578.999023438 273.001953125 574.666015625 281.001953125 565.999023438 c 0
 289.001953125 557.33203125 293.001953125 546.33203125 293.001953125 532.999023438 c 0
 293.001953125 518.33203125 289.001953125 506.665039062 281.001953125 497.998046875 c 0
 273.001953125 489.331054688 262.001953125 484.998046875 248.001953125 484.998046875 c 0
199.000976562 355.998046875 m 1
 199 -114.002929688 l 1
 221.666992188 -131.3359375 241.833984375 -154.3359375 259.500976562 -183.002929688 c 0
 277.16796875 -211.669921875 286.334960938 -237.669921875 287.001953125 -261.002929688 c 0
 287.001953125 -267.669921875 285.001953125 -272.336914062 281.001953125 -275.00390625 c 0
 277.001953125 -277.670898438 272.501953125 -278.670898438 267.501953125 -278.00390625 c 0
 262.501953125 -277.336914062 258.334960938 -274.336914062 255.001953125 -269.00390625 c 0
 253.668945312 -266.336914062 250.501953125 -259.00390625 245.501953125 -247.00390625 c 0
 240.501953125 -235.00390625 233.668945312 -222.336914062 225.001953125 -209.00390625 c 0
 216.334960938 -195.670898438 205.66796875 -183.337890625 193.000976562 -172.004882812 c 1
 189.66796875 -192.004882812 184.000976562 -209.004882812 176.000976562 -223.004882812 c 0
 166.000976562 -238.337890625 153.500976562 -250.337890625 138.500976562 -259.004882812 c 0
 123.500976562 -267.671875 106.333984375 -272.004882812 87.0009765625 -272.004882812 c 0
 74.333984375 -272.004882812 62.0009765625 -270.671875 50.0009765625 -268.004882812 c 0
 28.66796875 -260.671875 11.16796875 -248.171875 -2.4990234375 -230.504882812 c 0
 -16.166015625 -212.837890625 -22.9990234375 -192.670898438 -22.9990234375 -170.00390625 c 0
 -22.9990234375 -141.336914062 -12.9990234375 -117.00390625 7.0009765625 -97.00390625 c 0
 27.0009765625 -77.00390625 51.333984375 -67.00390625 80.0009765625 -67.00390625 c 0
 97.333984375 -67.00390625 112.333984375 -70.3369140625 125.000976562 -77.00390625 c 1
 125.000976562 286.99609375 l 2
 125.000976562 312.99609375 122.66796875 329.329101562 118.000976562 335.99609375 c 0
 113.333984375 342.663085938 100.000976562 348.663085938 78.0009765625 353.99609375 c 2
 69.0009765625 355.99609375 l 2
 67.0009765625 357.99609375 66.0009765625 360.829101562 66.0009765625 364.49609375 c 0
 66.0009765625 368.163085938 67.333984375 370.663085938 70.0009765625 371.99609375 c 0
 124.000976562 380.663085938 164.333984375 400.330078125 191.000976562 430.997070312 c 1
 199.000976562 429.6640625 203.000976562 427.331054688 203.000976562 423.998046875 c 2
 199.000976562 355.998046875 l 1
EndSplineSet
EndChar

StartChar: K
Encoding: 75 75 45
Width: 475
GlyphClass: 2
Flags: W
LayerCount: 2
Fore
SplineSet
134 -194 m 0
 120.666992188 -194 109.5 -190.16796875 100.5 -182.500976562 c 0
 91.5 -174.833984375 87 -163.666992188 87 -149 c 0
 86.3330078125 -135 90.5 -123.5 99.5 -114.5 c 0
 108.5 -105.5 120 -101 134 -101 c 0
 148 -101 159.166992188 -105.5 167.5 -114.5 c 0
 175.833007812 -123.5 180 -134 180 -146 c 0
 180 -160 175.833007812 -171.5 167.5 -180.5 c 0
 159.166992188 -189.5 148 -194 134 -194 c 0
322 -194.000976562 m 0
 308.666992188 -194.000976562 297.333007812 -190.166992188 288 -182.5 c 0
 278.666992188 -174.833007812 274 -163.666015625 274 -148.999023438 c 0
 274 -134.999023438 278.5 -123.499023438 287.5 -114.499023438 c 0
 296.5 -105.499023438 308 -100.999023438 322 -100.999023438 c 0
 336 -100.999023438 347 -105.33203125 355 -113.999023438 c 0
 363 -122.666015625 367 -133.333007812 367 -146 c 0
 367 -160.666992188 363 -172.333984375 355 -181.000976562 c 0
 347 -189.66796875 336 -194.000976562 322 -194.000976562 c 0
86.9990234375 94 m 2
 87 287.997070312 l 2
 87 319.330078125 85.8330078125 339.663085938 83.5 348.99609375 c 0
 81.1669921875 358.329101562 74.6669921875 363.329101562 64 363.99609375 c 2
 20 366.99609375 l 2
 16 368.329101562 14 372.329101562 14 378.99609375 c 0
 14 385.663085938 16 389.330078125 20 389.997070312 c 0
 78.6669921875 393.330078125 137.666992188 394.997070312 197 394.997070312 c 0
 254.333007812 394.997070312 300.166015625 387.830078125 334.499023438 373.497070312 c 0
 368.83203125 359.1640625 385.999023438 330.6640625 385.999023438 287.997070312 c 0
 385.999023438 243.330078125 356.999023438 210.330078125 298.999023438 188.997070312 c 0
 294.999023438 186.997070312 294.999023438 182.6640625 298.999023438 175.997070312 c 0
 334.999023438 118.6640625 357.83203125 83.3310546875 367.499023438 69.998046875 c 0
 377.166015625 56.6650390625 391.999023438 43.6650390625 411.999023438 30.998046875 c 0
 431.33203125 20.3310546875 451.999023438 14.3310546875 473.999023438 12.998046875 c 1
 478.666015625 8.3310546875 478.666015625 1.998046875 473.999023438 -6.001953125 c 1
 463.999023438 -9.3349609375 450.33203125 -11.001953125 432.999023438 -11.001953125 c 0
 405.666015625 -11.001953125 381.999023438 -6.1689453125 361.999023438 3.498046875 c 0
 341.999023438 13.1650390625 320.33203125 31.33203125 296.999023438 57.9990234375 c 0
 288.999023438 67.9990234375 278.166015625 83.33203125 264.499023438 103.999023438 c 0
 250.83203125 124.666015625 238.33203125 143.333007812 226.999023438 160 c 0
 220.33203125 168.666992188 207.33203125 173 187.999023438 173 c 0
 169.33203125 173 159.999023438 168.666992188 159.999023438 160 c 2
 159.999023438 94 l 2
 159.999023438 76 160.33203125 63.5 160.999023438 56.5 c 0
 161.666015625 49.5 163.499023438 43.5 166.499023438 38.5 c 0
 169.499023438 33.5 174.999023438 30 182.999023438 28 c 0
 190.999023438 26 198.33203125 24.3330078125 204.999023438 23 c 2
 235.999023438 20 l 2
 239.33203125 18.6669921875 240.999023438 15 240.999023438 9 c 0
 240.999023438 3 238.999023438 -1 234.999023438 -3 c 0
 186.33203125 -1 149.33203125 0 123.999023438 0 c 0
 99.9990234375 0 63.33203125 -1 13.9990234375 -3 c 0
 8.666015625 -1 5.9990234375 2.8330078125 5.9990234375 8.5 c 0
 5.9990234375 14.1669921875 7.9990234375 18 11.9990234375 20 c 2
 40.9990234375 23 l 2
 56.33203125 25 66.83203125 27.6669921875 72.4990234375 31 c 0
 78.166015625 34.3330078125 81.9990234375 40 83.9990234375 48 c 0
 85.9990234375 56 86.9990234375 71.3330078125 86.9990234375 94 c 2
159 340.997070312 m 2
 159 223.998046875 l 2
 159 215.998046875 160 210.665039062 162 207.998046875 c 0
 164 205.331054688 168 203.6640625 174 202.997070312 c 0
 180 202.330078125 191.666992188 201.997070312 209 201.997070312 c 0
 242.333007812 201.997070312 266.666015625 208.330078125 281.999023438 220.997070312 c 0
 297.33203125 233.6640625 304.999023438 254.997070312 304.999023438 284.997070312 c 0
 304.999023438 308.997070312 296.33203125 328.497070312 278.999023438 343.497070312 c 0
 261.666015625 358.497070312 236.333007812 365.997070312 203 365.997070312 c 0
 183.666992188 365.997070312 171.5 364.6640625 166.5 361.997070312 c 0
 161.5 359.330078125 159 352.330078125 159 340.997070312 c 2
EndSplineSet
EndChar

StartChar: L
Encoding: 76 76 46
Width: 454
GlyphClass: 2
Flags: W
LayerCount: 2
Fore
SplineSet
127 -194 m 0
 113.666992188 -194 102.5 -190.16796875 93.5 -182.500976562 c 0
 84.5 -174.833984375 80 -163.666992188 80 -149 c 0
 79.3330078125 -135 83.5 -123.5 92.5 -114.5 c 0
 101.5 -105.5 113 -101 127 -101 c 0
 141 -101 152.166992188 -105.5 160.5 -114.5 c 0
 168.833007812 -123.5 173 -134 173 -146 c 0
 173 -160 168.833007812 -171.5 160.5 -180.5 c 0
 152.166992188 -189.5 141 -194 127 -194 c 0
315 -194.000976562 m 0
 301.666992188 -194.000976562 290.333007812 -190.166992188 281 -182.5 c 0
 271.666992188 -174.833007812 267 -163.666015625 267 -148.999023438 c 0
 267 -134.999023438 271.5 -123.499023438 280.5 -114.499023438 c 0
 289.5 -105.499023438 301 -100.999023438 315 -100.999023438 c 0
 329 -100.999023438 340 -105.33203125 348 -113.999023438 c 0
 356 -122.666015625 360 -133.333007812 360 -146 c 0
 360 -160.666992188 356 -172.333984375 348 -181.000976562 c 0
 340 -189.66796875 329 -194.000976562 315 -194.000976562 c 0
-10.0009765625 23 m 0
 15.33203125 26.3330078125 34.330078125 34.666015625 46.9970703125 47.9990234375 c 0
 59.6640625 61.33203125 75.3310546875 93.33203125 93.998046875 143.999023438 c 2
 141.998046875 270.999023438 l 2
 165.331054688 334.999023438 181.331054688 379.33203125 189.998046875 403.999023438 c 0
 198.665039062 428.666015625 209.165039062 459.166015625 221.498046875 495.499023438 c 0
 233.831054688 531.83203125 243.1640625 558.999023438 249.497070312 576.999023438 c 0
 255.830078125 594.999023438 265.330078125 622.666015625 277.997070312 659.999023438 c 0
 290.6640625 694.666015625 311.6640625 711.999023438 340.997070312 711.999023438 c 0
 354.997070312 711.999023438 367.1640625 707.33203125 377.497070312 697.999023438 c 0
 387.830078125 688.666015625 393.330078125 677.666015625 393.997070312 664.999023438 c 0
 395.997070312 635.666015625 383.6640625 620.999023438 356.997070312 620.999023438 c 2
 337.997070312 620.999023438 l 2
 323.997070312 620.999023438 313.330078125 614.33203125 305.997070312 600.999023438 c 0
 281.997070312 556.999023438 265.997070312 514.666015625 257.997070312 473.999023438 c 0
 252.6640625 450.666015625 250.331054688 434.999023438 250.998046875 426.999023438 c 0
 252.331054688 412.33203125 259.998046875 386.999023438 273.998046875 350.999023438 c 2
 367.998046875 114.999023438 l 2
 375.998046875 95.666015625 382.331054688 80.3330078125 386.998046875 69 c 0
 391.665039062 57.6669921875 396.998046875 48.6669921875 402.998046875 42 c 0
 408.998046875 35.3330078125 415.998046875 31 423.998046875 29 c 2
 457.998046875 24 l 2
 461.998046875 21.3330078125 463.665039062 16.5 462.998046875 9.5 c 0
 462.331054688 2.5 460.331054688 -1.6669921875 456.998046875 -3 c 0
 416.331054688 -1 381.6640625 0 352.997070312 0 c 0
 339.6640625 0 313.331054688 -1 273.998046875 -3 c 0
 269.998046875 -1 267.331054688 3.3330078125 265.998046875 10 c 0
 264.665039062 16.6669921875 265.998046875 21.333984375 269.998046875 24.0009765625 c 2
 301.998046875 27.0009765625 l 2
 316.665039062 31.0009765625 323.665039062 36.66796875 322.998046875 44.0009765625 c 0
 321.665039062 58.0009765625 308.998046875 92.333984375 284.998046875 147.000976562 c 2
 241.998046875 250.000976562 l 2
 220.665039062 301.333984375 208.998046875 327.333984375 206.998046875 328.000976562 c 0
 205.665039062 326.66796875 193.998046875 299.334960938 171.998046875 246.001953125 c 2
 138.998046875 159.001953125 l 2
 116.331054688 93.6689453125 105.331054688 57.001953125 105.998046875 49.001953125 c 0
 105.998046875 38.3349609375 110.331054688 31.66796875 118.998046875 29.0009765625 c 2
 155.998046875 24.0009765625 l 2
 160.665039062 20.0009765625 162.998046875 15.16796875 162.998046875 9.5009765625 c 0
 162.998046875 3.833984375 160.665039062 -0.3330078125 155.998046875 -3 c 0
 121.331054688 -1 90.998046875 0 64.998046875 0 c 0
 52.998046875 0 29.3310546875 -1 -6.001953125 -3 c 0
 -10.6689453125 -0.3330078125 -13.1689453125 3.6669921875 -13.501953125 9 c 0
 -13.8349609375 14.3330078125 -12.66796875 19 -10.0009765625 23 c 0
EndSplineSet
EndChar

StartChar: M
Encoding: 77 77 47
Width: 802
GlyphClass: 2
Flags: W
LayerCount: 2
Fore
SplineSet
301 -194 m 0
 287.666992188 -194 276.5 -190.16796875 267.5 -182.500976562 c 0
 258.5 -174.833984375 254 -163.666992188 254 -149 c 0
 253.333007812 -135 257.5 -123.5 266.5 -114.5 c 0
 275.5 -105.5 287 -101 301 -101 c 0
 315 -101 326.166992188 -105.5 334.5 -114.5 c 0
 342.833007812 -123.5 347 -134 347 -146 c 0
 347 -160 342.833007812 -171.5 334.5 -180.5 c 0
 326.166992188 -189.5 315 -194 301 -194 c 0
489 -194.000976562 m 0
 475.666992188 -194.000976562 464.333007812 -190.166992188 455 -182.5 c 0
 445.666992188 -174.833007812 441 -163.666015625 441 -148.999023438 c 0
 441 -134.999023438 445.5 -123.499023438 454.5 -114.499023438 c 0
 463.5 -105.499023438 475 -100.999023438 489 -100.999023438 c 0
 503 -100.999023438 514 -105.33203125 522 -113.999023438 c 0
 530 -122.666015625 534 -133.333007812 534 -146 c 0
 534 -160.666992188 530 -172.333984375 522 -181.000976562 c 0
 514 -189.66796875 503 -194.000976562 489 -194.000976562 c 0
618.999023438 26 m 2
 618.999023438 33.3330078125 615.33203125 37.0078125 607.999023438 37.0078125 c 1
 559.999023438 3.0078125 515.666015625 -13.9921875 474.999023438 -13.9921875 c 0
 451.666015625 -13.9921875 431.999023438 -9.4921875 415.999023438 -0.4921875 c 0
 399.999023438 8.5078125 384.33203125 23.3408203125 368.999023438 44.0078125 c 1
 362.33203125 46.0078125 353.999023438 43.6748046875 343.999023438 37.0078125 c 0
 295.33203125 3.0078125 249.999023438 -13.9921875 207.999023438 -13.9921875 c 0
 169.999023438 -13.9921875 140.666015625 -2.3251953125 119.999023438 21.0078125 c 0
 99.33203125 44.3408203125 88.9990234375 73.673828125 88.9990234375 109.006835938 c 2
 88.9990234375 282.006835938 l 2
 88.9990234375 319.33984375 87.166015625 342.506835938 83.4990234375 351.506835938 c 0
 79.83203125 360.506835938 68.9990234375 366.006835938 50.9990234375 368.006835938 c 2
 18.9990234375 371.006835938 l 2
 15.666015625 375.006835938 14.166015625 379.83984375 14.4990234375 385.506835938 c 0
 14.83203125 391.173828125 16.9990234375 394.673828125 20.9990234375 396.006835938 c 0
 62.33203125 394.006835938 97.33203125 393.006835938 125.999023438 393.006835938 c 0
 155.999023438 393.006835938 188.999023438 394.006835938 224.999023438 396.006835938 c 0
 228.999023438 395.33984375 231.33203125 391.672851562 231.999023438 385.005859375 c 0
 232.666015625 378.338867188 230.999023438 373.671875 226.999023438 371.004882812 c 2
 200.999023438 368.004882812 l 2
 182.999023438 366.004882812 172.166015625 360.504882812 168.499023438 351.504882812 c 0
 164.83203125 342.504882812 162.999023438 319.337890625 162.999023438 282.004882812 c 2
 162.999023438 137.004882812 l 2
 162.999023438 68.337890625 193.999023438 34.0048828125 255.999023438 34.0048828125 c 0
 293.33203125 34.0048828125 320.999023438 45.671875 338.999023438 69.0048828125 c 0
 348.999023438 81.671875 353.999023438 101.338867188 353.999023438 128.005859375 c 2
 353.999023438 282.005859375 l 2
 353.999023438 319.338867188 352.166015625 342.505859375 348.499023438 351.505859375 c 0
 344.83203125 360.505859375 333.999023438 366.005859375 315.999023438 368.005859375 c 2
 286.999023438 371.005859375 l 2
 283.666015625 375.005859375 282.166015625 379.838867188 282.499023438 385.505859375 c 0
 282.83203125 391.172851562 284.999023438 394.672851562 288.999023438 396.005859375 c 0
 326.999023438 394.005859375 360.999023438 393.005859375 390.999023438 393.005859375 c 0
 420.999023438 393.005859375 453.999023438 394.005859375 489.999023438 396.005859375 c 0
 493.999023438 395.338867188 496.33203125 391.671875 496.999023438 385.004882812 c 0
 497.666015625 378.337890625 495.999023438 373.670898438 491.999023438 371.00390625 c 2
 465.999023438 368.00390625 l 2
 447.999023438 366.00390625 437.166015625 360.50390625 433.499023438 351.50390625 c 0
 429.83203125 342.50390625 427.999023438 319.336914062 427.999023438 282.00390625 c 2
 427.999023438 137.00390625 l 2
 427.999023438 68.3369140625 458.666015625 34.00390625 519.999023438 34.00390625 c 0
 555.999023438 34.00390625 583.999023438 46.00390625 603.999023438 70.00390625 c 0
 613.999023438 82.00390625 618.999023438 100.670898438 618.999023438 126.00390625 c 2
 618.999023438 282.00390625 l 2
 618.999023438 319.336914062 617.166015625 342.50390625 613.499023438 351.50390625 c 0
 609.83203125 360.50390625 598.999023438 366.00390625 580.999023438 368.00390625 c 2
 554.999023438 371.00390625 l 2
 551.666015625 375.00390625 550.166015625 379.836914062 550.499023438 385.50390625 c 0
 550.83203125 391.170898438 552.999023438 394.670898438 556.999023438 396.00390625 c 0
 592.33203125 394.00390625 625.33203125 393.00390625 655.999023438 393.00390625 c 0
 687.33203125 393.00390625 722.33203125 394.00390625 760.999023438 396.00390625 c 0
 764.999023438 395.336914062 767.33203125 391.669921875 767.999023438 385.002929688 c 0
 768.666015625 378.3359375 766.999023438 373.668945312 762.999023438 371.001953125 c 2
 730.999023438 368.001953125 l 2
 712.999023438 366.001953125 702.166015625 360.501953125 698.499023438 351.501953125 c 0
 694.83203125 342.501953125 692.999023438 319.334960938 692.999023438 282.001953125 c 2
 692.999023438 106.001953125 l 2
 692.999023438 82.001953125 694.999023438 66.501953125 698.999023438 59.501953125 c 0
 702.999023438 52.501953125 716.666015625 45.6689453125 739.999023438 39.001953125 c 2
 748.999023438 37.001953125 l 2
 750.999023438 35.001953125 751.999023438 32.001953125 751.999023438 28.001953125 c 0
 751.999023438 24.001953125 750.666015625 21.6689453125 747.999023438 21.001953125 c 0
 693.999023438 12.3349609375 653.666015625 -7.33203125 626.999023438 -37.9990234375 c 1
 621.666015625 -36.666015625 618.999023438 -34.3330078125 618.999023438 -31 c 2
 618.999023438 26 l 2
EndSplineSet
EndChar

StartChar: N
Encoding: 78 78 48
Width: 540
GlyphClass: 2
Flags: W
LayerCount: 2
Fore
SplineSet
159 485 m 0
 145.666992188 485 134.5 488.83203125 125.5 496.499023438 c 0
 116.5 504.166015625 112 515.333007812 112 530 c 0
 111.333007812 543.333007812 115.5 554.833007812 124.5 564.5 c 0
 133.5 574.166992188 145 579 159 579 c 0
 173 579 184.166992188 574.5 192.5 565.5 c 0
 200.833007812 556.5 205 545.666992188 205 533 c 0
 205 519 200.833007812 507.5 192.5 498.5 c 0
 184.166992188 489.5 173 485 159 485 c 0
347 484.999023438 m 0
 333.666992188 484.999023438 322.333007812 488.83203125 313 496.499023438 c 0
 303.666992188 504.166015625 299 515.333007812 299 530 c 0
 299 543.333007812 303.5 554.833007812 312.5 564.5 c 0
 321.5 574.166992188 333 579 347 579 c 0
 361 579 372 574.666992188 380 566 c 0
 388 557.333007812 392 546.333007812 392 533 c 0
 392 518.333007812 388 506.666015625 380 497.999023438 c 0
 372 489.33203125 361 484.999023438 347 484.999023438 c 0
182.999023438 355.999023438 m 0
 209.666015625 372.666015625 233.6640625 385.328125 254.997070312 393.995117188 c 0
 276.330078125 402.662109375 298.997070312 406.995117188 322.997070312 406.995117188 c 0
 362.330078125 406.995117188 391.663085938 395.662109375 410.99609375 372.995117188 c 0
 430.329101562 350.328125 439.99609375 320.661132812 439.99609375 283.994140625 c 2
 439.99609375 -57.005859375 l 2
 439.99609375 -125.672851562 440.99609375 -169.672851562 442.99609375 -189.005859375 c 0
 444.99609375 -208.338867188 452.663085938 -220.671875 465.99609375 -226.004882812 c 0
 488.663085938 -233.337890625 503.830078125 -234.004882812 511.497070312 -228.004882812 c 0
 519.1640625 -222.004882812 523.331054688 -210.671875 523.998046875 -194.004882812 c 0
 524.665039062 -177.337890625 525.665039062 -167.004882812 526.998046875 -163.004882812 c 0
 528.998046875 -157.004882812 534.165039062 -152.837890625 542.498046875 -150.504882812 c 0
 550.831054688 -148.171875 559.1640625 -148.504882812 567.497070312 -151.504882812 c 0
 575.830078125 -154.504882812 581.330078125 -160.004882812 583.997070312 -168.004882812 c 0
 592.6640625 -192.004882812 589.331054688 -211.671875 573.998046875 -227.004882812 c 0
 547.998046875 -250.337890625 518.498046875 -263.837890625 485.498046875 -267.504882812 c 0
 452.498046875 -271.171875 424.331054688 -259.504882812 400.998046875 -232.504882812 c 0
 377.665039062 -205.504882812 365.998046875 -161.671875 365.998046875 -101.004882812 c 2
 365.998046875 5.9951171875 l 1
 365.998046875 259.995117188 l 2
 365.998046875 325.995117188 334.665039062 358.995117188 271.998046875 358.995117188 c 0
 232.665039062 358.995117188 204.33203125 347.328125 186.999023438 323.995117188 c 0
 176.999023438 311.995117188 171.999023438 292.328125 171.999023438 264.995117188 c 2
 171.999023438 110.995117188 l 2
 171.999023438 84.328125 172.666015625 65.828125 173.999023438 55.4951171875 c 0
 175.33203125 45.162109375 178.499023438 37.9951171875 183.499023438 33.9951171875 c 0
 188.499023438 29.9951171875 197.33203125 26.9951171875 209.999023438 24.9951171875 c 2
 235.999023438 21.9951171875 l 2
 239.999023438 19.9951171875 241.666015625 15.828125 240.999023438 9.4951171875 c 0
 240.33203125 3.162109375 237.999023438 -1.0048828125 233.999023438 -3.0048828125 c 0
 199.33203125 -1.0048828125 166.33203125 -0.0048828125 134.999023438 -0.0048828125 c 0
 102.999023438 -0.0048828125 68.9990234375 -1.0048828125 32.9990234375 -3.0048828125 c 0
 28.9990234375 -0.337890625 26.666015625 3.8291015625 25.9990234375 9.49609375 c 0
 25.33203125 15.1630859375 26.9990234375 19.330078125 30.9990234375 21.9970703125 c 2
 59.9990234375 24.9970703125 l 2
 77.9990234375 26.9970703125 88.83203125 32.4970703125 92.4990234375 41.4970703125 c 0
 96.166015625 50.4970703125 97.9990234375 73.6640625 97.9990234375 110.997070312 c 2
 97.9990234375 286.997070312 l 2
 97.9990234375 312.997070312 95.666015625 329.330078125 90.9990234375 335.997070312 c 0
 86.33203125 342.6640625 72.9990234375 348.6640625 50.9990234375 353.997070312 c 2
 41.9990234375 355.997070312 l 2
 39.9990234375 357.997070312 38.9990234375 360.830078125 38.9990234375 364.497070312 c 0
 38.9990234375 368.1640625 40.33203125 370.6640625 42.9990234375 371.997070312 c 0
 96.9990234375 380.6640625 137.33203125 400.331054688 163.999023438 430.998046875 c 1
 169.33203125 429.665039062 171.999023438 427.33203125 171.999023438 423.999023438 c 2
 171.999023438 366.999023438 l 2
 171.999023438 359.666015625 175.666015625 355.999023438 182.999023438 355.999023438 c 0
EndSplineSet
EndChar

StartChar: O
Encoding: 79 79 49
Width: 423
GlyphClass: 2
Flags: W
LayerCount: 2
Fore
SplineSet
132 -14 m 0
 98 -14 68.3330078125 -8.3330078125 43 3 c 1
 33 13 28 26.3330078125 28 43 c 0
 28 51.6669921875 30.3330078125 60 35 68 c 0
 39.6669921875 76 44.6669921875 80 50 80 c 0
 56 80 60.6669921875 77.3330078125 64 72 c 0
 93.3330078125 37.3330078125 126.666015625 20 163.999023438 20 c 0
 201.999023438 20 234.499023438 34.3330078125 261.499023438 63 c 0
 288.499023438 91.6669921875 301.999023438 131 301.999023438 181 c 0
 301.999023438 224.333007812 287.666015625 263.5 258.999023438 298.5 c 0
 230.33203125 333.5 190.999023438 351 140.999023438 351 c 0
 92.9990234375 351 55.9990234375 331 29.9990234375 291 c 1
 19.33203125 289.666992188 13.33203125 294.666992188 11.9990234375 306 c 1
 27.33203125 340 50.83203125 365.5 82.4990234375 382.5 c 0
 114.166015625 399.5 146.333007812 408 179 408 c 0
 234.333007812 408 280 390.666992188 316 356 c 0
 354.666992188 318.666992188 374 269.666992188 374 209 c 0
 374 149 353.166992188 96.8330078125 311.5 52.5 c 0
 269.833007812 8.1669921875 210 -14 132 -14 c 0
95 -194 m 0
 81.6669921875 -194 70.5 -190.16796875 61.5 -182.500976562 c 0
 52.5 -174.833984375 48 -163.666992188 48 -149 c 0
 47.3330078125 -135 51.5 -123.5 60.5 -114.5 c 0
 69.5 -105.5 81 -101 95 -101 c 0
 109 -101 120.166992188 -105.5 128.5 -114.5 c 0
 136.833007812 -123.5 141 -134 141 -146 c 0
 141 -160 136.833007812 -171.5 128.5 -180.5 c 0
 120.166992188 -189.5 109 -194 95 -194 c 0
283 -194.000976562 m 0
 269.666992188 -194.000976562 258.333007812 -190.166992188 249 -182.5 c 0
 239.666992188 -174.833007812 235 -163.666015625 235 -148.999023438 c 0
 235 -134.999023438 239.5 -123.499023438 248.5 -114.499023438 c 0
 257.5 -105.499023438 269 -100.999023438 283 -100.999023438 c 0
 297 -100.999023438 308 -105.33203125 316 -113.999023438 c 0
 324 -122.666015625 328 -133.333007812 328 -146 c 0
 328 -160.666992188 324 -172.333984375 316 -181.000976562 c 0
 308 -189.66796875 297 -194.000976562 283 -194.000976562 c 0
EndSplineSet
EndChar

StartChar: P
Encoding: 80 80 50
Width: 535
GlyphClass: 2
Flags: W
LayerCount: 2
Fore
SplineSet
322 404 m 0
 354 410.666992188 382.499023438 405.499023438 407.499023438 388.499023438 c 0
 432.499023438 371.499023438 451.999023438 346.166015625 465.999023438 312.499023438 c 0
 479.999023438 278.83203125 486.999023438 240.33203125 486.999023438 196.999023438 c 0
 486.999023438 153.666015625 479.499023438 116.333007812 464.499023438 85 c 0
 449.499023438 53.6669921875 425.666015625 29.1669921875 392.999023438 11.5 c 0
 360.33203125 -6.1669921875 320.33203125 -15 272.999023438 -15 c 0
 198.999023438 -15 142.166015625 3.8330078125 102.499023438 41.5 c 0
 62.83203125 79.1669921875 42.33203125 129.333984375 40.9990234375 192.000976562 c 0
 42.33203125 258.66796875 57.83203125 312.334960938 87.4990234375 353.001953125 c 0
 117.166015625 393.668945312 158.333007812 411.668945312 211 407.001953125 c 0
 225 406.334960938 237 401.66796875 247 393.000976562 c 0
 257 384.333984375 264 374.666992188 268 364 c 0
 270 360.666992188 272.666992188 360.666992188 276 364 c 0
 290.666992188 386.666992188 306 400 322 404 c 0
343.999023438 369.999023438 m 0
 336.666015625 370.666015625 327.833007812 367.33203125 317.5 359.999023438 c 0
 307.166992188 352.666015625 299 344.666015625 293 335.999023438 c 0
 286.333007812 323.33203125 283.333007812 300.999023438 284 268.999023438 c 0
 287.333007812 255.666015625 284.833007812 245.666015625 276.5 238.999023438 c 0
 268.166992188 232.33203125 259.666992188 231.499023438 251 236.499023438 c 0
 242.333007812 241.499023438 239 251.999023438 241 267.999023438 c 0
 245.666992188 299.999023438 243.666992188 325.499023438 235 344.499023438 c 0
 226.333007812 363.499023438 212.666015625 371.999023438 193.999023438 369.999023438 c 0
 173.33203125 367.33203125 157.499023438 349.499023438 146.499023438 316.499023438 c 0
 135.499023438 283.499023438 129.33203125 246.33203125 127.999023438 204.999023438 c 0
 127.999023438 78.33203125 174.999023438 14.6650390625 268.999023438 13.998046875 c 0
 360.33203125 14.6650390625 405.999023438 73.33203125 405.999023438 189.999023438 c 0
 407.33203125 231.999023438 402.999023438 271.499023438 392.999023438 308.499023438 c 0
 382.999023438 345.499023438 366.666015625 365.999023438 343.999023438 369.999023438 c 0
172.999023438 -194.001953125 m 0
 159.666015625 -194.001953125 148.499023438 -190.169921875 139.499023438 -182.502929688 c 0
 130.499023438 -174.8359375 125.999023438 -163.668945312 125.999023438 -149.001953125 c 0
 125.33203125 -135.001953125 129.499023438 -123.501953125 138.499023438 -114.501953125 c 0
 147.499023438 -105.501953125 158.999023438 -101.001953125 172.999023438 -101.001953125 c 0
 186.999023438 -101.001953125 198.166015625 -105.501953125 206.499023438 -114.501953125 c 0
 214.83203125 -123.501953125 218.999023438 -134.001953125 218.999023438 -146.001953125 c 0
 218.999023438 -160.001953125 214.83203125 -171.501953125 206.499023438 -180.501953125 c 0
 198.166015625 -189.501953125 186.999023438 -194.001953125 172.999023438 -194.001953125 c 0
360.999023438 -194.002929688 m 0
 347.666015625 -194.002929688 336.33203125 -190.168945312 326.999023438 -182.501953125 c 0
 317.666015625 -174.834960938 312.999023438 -163.66796875 312.999023438 -149.000976562 c 0
 312.999023438 -135.000976562 317.499023438 -123.500976562 326.499023438 -114.500976562 c 0
 335.499023438 -105.500976562 346.999023438 -101.000976562 360.999023438 -101.000976562 c 0
 374.999023438 -101.000976562 385.999023438 -105.333984375 393.999023438 -114.000976562 c 0
 401.999023438 -122.66796875 405.999023438 -133.334960938 405.999023438 -146.001953125 c 0
 405.999023438 -160.668945312 401.999023438 -172.3359375 393.999023438 -181.002929688 c 0
 385.999023438 -189.669921875 374.999023438 -194.002929688 360.999023438 -194.002929688 c 0
EndSplineSet
EndChar

StartChar: Q
Encoding: 81 81 51
Width: 768
GlyphClass: 2
Flags: W
LayerCount: 2
Fore
SplineSet
307 -194 m 0
 293.666992188 -194 282.5 -190.16796875 273.5 -182.500976562 c 0
 264.5 -174.833984375 260 -163.666992188 260 -149 c 0
 259.333007812 -135 263.5 -123.5 272.5 -114.5 c 0
 281.5 -105.5 293 -101 307 -101 c 0
 321 -101 332.166992188 -105.5 340.5 -114.5 c 0
 348.833007812 -123.5 353 -134 353 -146 c 0
 353 -160 348.833007812 -171.5 340.5 -180.5 c 0
 332.166992188 -189.5 321 -194 307 -194 c 0
495 -194.000976562 m 0
 481.666992188 -194.000976562 470.333007812 -190.166992188 461 -182.5 c 0
 451.666992188 -174.833007812 447 -163.666015625 447 -148.999023438 c 0
 447 -134.999023438 451.5 -123.499023438 460.5 -114.499023438 c 0
 469.5 -105.499023438 481 -100.999023438 495 -100.999023438 c 0
 509 -100.999023438 520 -105.33203125 528 -113.999023438 c 0
 536 -122.666015625 540 -133.333007812 540 -146 c 0
 540 -160.666992188 536 -172.333984375 528 -181.000976562 c 0
 520 -189.66796875 509 -194.000976562 495 -194.000976562 c 0
591.999023438 363 m 0
 563.999023438 362.333007812 544.994140625 357.66796875 534.994140625 349.000976562 c 0
 521.661132812 338.333984375 507.994140625 312.333984375 493.994140625 271.000976562 c 0
 491.327148438 269.000976562 487.16015625 268.333984375 481.493164062 269.000976562 c 0
 475.826171875 269.66796875 470.993164062 271.66796875 466.993164062 275.000976562 c 1
 478.993164062 313.000976562 490.326171875 365.000976562 500.993164062 431.000976562 c 1
 507.66015625 433.66796875 514.327148438 433.66796875 520.994140625 431.000976562 c 1
 522.994140625 413.000976562 527.661132812 402.16796875 534.994140625 398.500976562 c 0
 542.327148438 394.833984375 560.66015625 393.000976562 589.993164062 393.000976562 c 2
 650.993164062 393.000976562 l 2
 681.66015625 393.000976562 701.993164062 394.000976562 711.993164062 396.000976562 c 0
 715.993164062 394.000976562 717.66015625 390.66796875 716.993164062 386.000976562 c 0
 696.326171875 357.333984375 671.659179688 319.333984375 642.9921875 272.000976562 c 2
 521.9921875 69.0009765625 l 2
 511.9921875 51.66796875 507.9921875 40.66796875 509.9921875 36.0009765625 c 0
 511.9921875 31.333984375 522.325195312 29.0009765625 540.9921875 29.0009765625 c 2
 574.9921875 29.0009765625 l 2
 602.9921875 29.0009765625 626.4921875 30.833984375 645.4921875 34.5009765625 c 0
 664.4921875 38.16796875 680.325195312 46.66796875 692.9921875 60.0009765625 c 0
 701.659179688 68.66796875 712.326171875 88.0009765625 724.993164062 118.000976562 c 0
 729.66015625 120.66796875 734.327148438 121.16796875 738.994140625 119.500976562 c 0
 743.661132812 117.833984375 746.328125 115.000976562 746.995117188 111.000976562 c 0
 736.995117188 55.66796875 724.662109375 17.66796875 709.995117188 -2.9990234375 c 1
 677.328125 -0.9990234375 639.995117188 0.0009765625 597.995117188 0.0009765625 c 2
 507.995117188 0.0009765625 l 2
 481.995117188 0.0009765625 459.662109375 -1.33203125 440.995117188 -3.9990234375 c 0
 437.662109375 -4.666015625 424.495117188 -6.8330078125 401.495117188 -10.5 c 0
 378.495117188 -14.1669921875 365.662109375 -16 362.995117188 -16 c 0
 355.662109375 -16 351.995117188 -13.3330078125 351.995117188 -8 c 2
 351.995117188 9 l 2
 351.995117188 21.6669921875 351.328125 29 349.995117188 31 c 2
 345.995117188 31 l 1
 318.662109375 13.6669921875 296.662109375 1.6669921875 279.995117188 -5 c 0
 263.328125 -11.6669921875 243.328125 -15 219.995117188 -15 c 0
 165.328125 -15 120.828125 3.8330078125 86.4951171875 41.5 c 0
 52.162109375 79.1669921875 34.9951171875 124.333984375 34.9951171875 177.000976562 c 0
 34.9951171875 245.66796875 57.9951171875 301.16796875 103.995117188 343.500976562 c 0
 149.995117188 385.833984375 207.662109375 407.000976562 276.995117188 407.000976562 c 0
 304.995117188 407.000976562 327.328125 404.000976562 343.995117188 398.000976562 c 0
 347.995117188 398.000976562 349.995117188 402.66796875 349.995117188 412.000976562 c 2
 349.995117188 600.000976562 l 2
 349.995117188 620.66796875 345.662109375 633.334960938 336.995117188 638.001953125 c 0
 328.328125 642.668945312 311.995117188 645.668945312 287.995117188 647.001953125 c 2
 269.995117188 649.001953125 l 2
 267.995117188 652.334960938 266.995117188 656.16796875 266.995117188 660.500976562 c 0
 266.995117188 664.833984375 268.328125 667.666992188 270.995117188 669 c 0
 316.328125 684.333007812 362.995117188 704.666015625 410.995117188 729.999023438 c 1
 424.995117188 727.33203125 431.995117188 724.33203125 431.995117188 720.999023438 c 2
 422.995117188 645.999023438 l 1
 422.995117188 124.999023438 l 2
 422.995117188 80.33203125 424.328125 53.83203125 426.995117188 45.4990234375 c 0
 429.662109375 37.166015625 435.329101562 38.9990234375 443.99609375 50.9990234375 c 0
 456.663085938 72.9990234375 464.830078125 87.666015625 468.497070312 94.9990234375 c 0
 472.1640625 102.33203125 476.831054688 111.33203125 482.498046875 121.999023438 c 0
 488.165039062 132.666015625 493.33203125 142.333007812 497.999023438 151 c 2
 600.999023438 333 l 2
 608.33203125 346.333007812 610.999023438 355 608.999023438 359 c 0
 606.999023438 363 601.33203125 364.333007812 591.999023438 363 c 0
351.994140625 99.001953125 m 2
 351.9921875 295.001953125 l 2
 351.9921875 308.334960938 347.659179688 321.334960938 338.9921875 334.001953125 c 0
 318.9921875 362.001953125 290.9921875 376.001953125 254.9921875 376.001953125 c 0
 211.659179688 376.001953125 177.826171875 359.834960938 153.493164062 327.501953125 c 0
 129.16015625 295.168945312 116.993164062 256.001953125 116.993164062 210.001953125 c 0
 116.993164062 162.001953125 130.326171875 120.668945312 156.993164062 86.001953125 c 0
 183.66015625 51.3349609375 219.993164062 34.001953125 265.993164062 34.001953125 c 0
 298.66015625 34.001953125 324.327148438 43.3349609375 342.994140625 62.001953125 c 0
 348.994140625 68.001953125 351.994140625 80.3349609375 351.994140625 99.001953125 c 2
EndSplineSet
EndChar

StartChar: R
Encoding: 82 82 52
Width: 319
GlyphClass: 2
Flags: W
LayerCount: 2
Fore
SplineSet
48 -194 m 0
 34.6669921875 -194 23.5 -190.16796875 14.5 -182.500976562 c 0
 5.5 -174.833984375 1 -163.666992188 1 -149 c 0
 0.3330078125 -135 4.5 -123.5 13.5 -114.5 c 0
 22.5 -105.5 34 -101 48 -101 c 0
 62 -101 73.1669921875 -105.5 81.5 -114.5 c 0
 89.8330078125 -123.5 94 -134 94 -146 c 0
 94 -160 89.8330078125 -171.5 81.5 -180.5 c 0
 73.1669921875 -189.5 62 -194 48 -194 c 0
223 -194.000976562 m 0
 209.666992188 -194.000976562 198.333007812 -190.166992188 189 -182.5 c 0
 179.666992188 -174.833007812 175 -163.666015625 175 -148.999023438 c 0
 175 -134.999023438 179.5 -123.499023438 188.5 -114.499023438 c 0
 197.5 -105.499023438 209 -100.999023438 223 -100.999023438 c 0
 237 -100.999023438 248 -105.33203125 256 -113.999023438 c 0
 264 -122.666015625 268 -133.333007812 268 -146 c 0
 268 -160.666992188 264 -172.333984375 256 -181.000976562 c 0
 248 -189.66796875 237 -194.000976562 223 -194.000976562 c 0
237.999023438 309 m 0
 236.666015625 313.666992188 235.998046875 321.833007812 235.998046875 333.5 c 0
 235.998046875 345.166992188 234.998046875 354.333984375 232.998046875 361.000976562 c 0
 230.998046875 367.66796875 225.498046875 372.334960938 216.498046875 375.001953125 c 0
 207.498046875 377.668945312 193.998046875 376.001953125 175.998046875 370.001953125 c 0
 160.665039062 365.334960938 152.33203125 354.334960938 150.999023438 337.001953125 c 0
 149.666015625 319.668945312 148.999023438 275.001953125 148.999023438 203.001953125 c 2
 148.999023438 96.001953125 l 2
 148.999023438 64.6689453125 151.33203125 45.1689453125 155.999023438 37.501953125 c 0
 160.666015625 29.8349609375 173.333007812 25.001953125 194 23.001953125 c 2
 227 20.001953125 l 2
 229.666992188 18.001953125 231 14.001953125 231 8.001953125 c 0
 231 2.001953125 229 -1.3310546875 225 -1.998046875 c 0
 155.666992188 -0.6650390625 118 0.001953125 112 0.001953125 c 0
 99.3330078125 0.001953125 65 -0.6650390625 9 -1.998046875 c 0
 5.6669921875 -1.3310546875 3.6669921875 2.001953125 3 8.001953125 c 0
 2.3330078125 14.001953125 3.666015625 18.001953125 6.9990234375 20.001953125 c 2
 28.9990234375 23.001953125 l 2
 49.666015625 25.6689453125 62.4990234375 30.6689453125 67.4990234375 38.001953125 c 0
 72.4990234375 45.3349609375 74.9990234375 64.66796875 74.9990234375 96.0009765625 c 2
 74.9990234375 189.000976562 l 2
 75.666015625 200.333984375 76.3330078125 210.500976562 77 219.500976562 c 0
 77.6669921875 228.500976562 77.6669921875 237.66796875 77 247.000976562 c 0
 75 297.66796875 86.3330078125 337.16796875 111 365.500976562 c 0
 135.666992188 393.833984375 165.166992188 408.000976562 199.5 408.000976562 c 0
 233.833007812 408.000976562 263 396.000976562 287 372.000976562 c 0
 298.333007812 360.66796875 304.333007812 341.000976562 305 313.000976562 c 0
 305 305.000976562 300.166992188 299.333984375 290.5 296.000976562 c 0
 280.833007812 292.66796875 270.166015625 292.16796875 258.499023438 294.500976562 c 0
 246.83203125 296.833984375 239.999023438 301.666992188 237.999023438 309 c 0
EndSplineSet
EndChar

